<svg width="140" height="22" viewBox="0 0 140 22" fill="none" xmlns="http://www.w3.org/2000/svg">
<path d="M13.1942 16.4354C13.5896 15.7031 13.6745 14.3967 13.6895 12.7009H8.5459V12.7123C6.83424 12.7123 5.64812 12.9999 4.95096 13.61C4.34249 14.1417 4.04272 15.0612 4.04272 16.3632C4.04272 17.0226 3.97448 17.2544 4.0027 17.2773C4.12566 17.3654 4.73787 17.3768 5.72501 17.3768H10.2282C12.0187 17.3768 12.8714 17.0498 13.1942 16.4354ZM2.0241 0.00601196L10.7422 0.0226095C13.5729 0.0226095 15.356 1.00301 16.4661 2.72058C17.4471 4.24899 17.7302 6.21524 17.7302 8.54148V11.6378C17.7302 14.4084 17.6876 16.5796 16.7448 18.3186C15.6693 20.3349 13.7745 21.3872 10.2282 21.3872H5.72501C3.94078 21.3872 2.70427 21.2713 1.66645 20.5347C0.47514 19.6988 0 18.4628 0 16.3638C0 13.8602 0.753889 11.9491 2.30256 10.597C3.76311 9.32328 5.83731 8.69658 8.5459 8.69658V8.70259H13.6958V8.54148C13.6958 6.90833 13.551 5.61686 13.0715 4.86883C12.7257 4.32654 12.0127 4.02235 10.7425 4.01548L2.02439 4.00489V0.00601196H2.0241Z" fill="#F5A61C"/>
<path d="M90.1868 16.4352C90.5816 15.7029 90.6608 14.3965 90.6772 12.7007H85.5428V12.7122C83.838 12.7122 82.6447 12.9998 81.9539 13.6099C81.3354 14.1416 81.0287 15.061 81.0287 16.3631C81.0287 17.0224 80.9613 17.2542 80.9898 17.2771C81.1179 17.3652 81.7244 17.3767 82.7118 17.3767H87.2159C89.0107 17.3767 89.8576 17.0496 90.1868 16.4352ZM79.0112 0.00582886L87.7281 0.0224264C90.5712 0.0224264 92.3439 1.00283 93.458 2.7204C94.4328 4.24881 94.7285 6.21505 94.7285 8.54129V11.6376C94.7285 14.4083 94.6735 16.5794 93.7371 18.3184C92.6549 20.3348 90.7607 21.387 87.2159 21.387H82.7118C80.9285 21.387 79.6905 21.2711 78.6544 20.5345C77.4717 19.6986 76.9868 18.4627 76.9868 16.3636C76.9868 13.86 77.7505 11.949 79.3 10.5968C80.7718 9.3231 82.846 8.6964 85.5425 8.6964V8.70241H90.6815V8.54129C90.6815 6.90815 90.5433 5.61668 90.0572 4.86864C89.7125 4.32636 88.9992 4.02216 87.7281 4.0153L79.0112 4.00471V0.00582886Z" fill="#F5A61C"/>
<path d="M20.2397 17.3097L26.1916 17.3211C28.2661 17.3211 30.0218 17.1875 31.2543 16.5897C32.2069 16.1247 32.8649 15.2942 33.1261 13.8147L33.1871 13.5105C33.3498 12.6455 32.9588 12.6904 29.7938 12.6953C27.8313 12.7007 31.0084 12.7007 28.5115 12.7007V12.6953L26.8617 12.6901C26.5202 12.6901 26.1815 12.6953 25.8536 12.7004C24.8779 12.7119 24.0189 12.7224 23.2492 12.5905C20.7523 12.1467 19.5103 10.8123 20.2506 6.70695C20.7857 3.7603 22.1789 2.04273 24.2142 1.05717C25.969 0.203828 28.155 0.00494307 30.662 0.0155312L36.2372 0.0264055V4.02672L30.662 4.01441C28.5904 4.00382 26.8344 4.14891 25.6022 4.74127C24.6435 5.20629 23.9907 6.04304 23.7244 7.51021C23.5671 8.369 23.6236 8.61252 23.7845 8.63542C24.2747 8.72327 24.9946 8.71182 25.8138 8.70123C26.1375 8.69523 26.4825 8.69036 26.862 8.69036L28.5118 8.70123V8.69036C31.9233 8.69036 28.6284 8.70123 29.7941 8.69494C34.8778 8.67891 37.764 8.25797 36.66 14.3069L36.6044 14.6171C36.0691 17.5741 34.675 19.2919 32.6478 20.2721C30.8866 21.1194 28.6955 21.3252 26.1922 21.3146L20.2397 21.3034V17.3097Z" fill="#F5A61C"/>
<path d="M59.2126 17.3546L65.1648 17.3652C67.239 17.3767 68.978 17.2273 70.1924 16.6232C71.1513 16.1467 71.7981 15.2991 72.0708 13.8147C72.194 13.1334 72.0388 12.8962 71.6529 12.8223C70.8789 12.6904 69.7362 12.6904 68.3537 12.6956C68.0635 12.6956 67.785 12.6956 67.4792 12.6956L65.8228 12.6904C65.4888 12.6904 65.1441 12.6956 64.819 12.7007C63.8382 12.7122 62.9797 12.7227 62.2002 12.5908C59.703 12.147 58.4544 10.8074 59.1968 6.70725C59.7315 3.7606 61.1186 2.03245 63.1479 1.04718C64.9082 0.193545 67.0939 -0.00505421 69.6081 9.67732e-05L75.1816 0.0109711V4.015L69.6081 3.99926C67.5339 3.99383 65.7842 4.13805 64.5517 4.73585C63.594 5.20087 62.9308 6.04392 62.6682 7.51109C62.5124 8.36472 62.568 8.6071 62.7413 8.63629C63.2311 8.72414 63.9557 8.7127 64.7752 8.70211C65.1092 8.6961 65.4502 8.69123 65.8231 8.69123L67.4795 8.69581C67.7856 8.69581 68.0637 8.69581 68.354 8.69581C69.8923 8.69581 71.1516 8.69124 72.1943 8.87324C75.0426 9.3829 76.2347 10.7737 75.5448 14.618C75.0094 17.5647 73.6376 19.2928 71.6094 20.2904C69.8586 21.1538 67.673 21.375 65.1651 21.3647L59.2129 21.3532V17.3546H59.2126Z" fill="#F5A61C"/>
<path d="M134.895 8.9122H139.532V10.7291H134.895V16.3517C134.895 16.9618 134.94 17.4591 135.034 17.8635C135.129 18.2509 135.274 18.5729 135.463 18.7944C135.648 19.0213 135.881 19.1827 136.165 19.2708C136.444 19.371 136.779 19.4151 137.152 19.4151C137.816 19.4151 138.346 19.3438 138.74 19.1936C139.142 19.0433 139.421 18.9386 139.582 18.8779L140 20.6773C139.789 20.7881 139.398 20.9269 138.853 21.088C138.306 21.254 137.671 21.3367 136.969 21.3367C136.132 21.3367 135.452 21.2313 134.906 21.0207C134.371 20.8118 133.931 20.4893 133.602 20.0741C133.267 19.6471 133.039 19.1272 132.905 18.5176C132.777 17.8967 132.705 17.1875 132.705 16.3737V5.52257L134.895 5.14655V8.9122H134.895ZM128.741 2.91989C129.387 2.91989 129.946 2.96367 130.408 3.06383C130.871 3.15254 131.193 3.2404 131.384 3.31795L130.989 5.19033C130.792 5.09704 130.525 5.01262 130.178 4.91962C129.84 4.83548 129.415 4.79227 128.909 4.79227C127.894 4.79227 127.176 5.06814 126.768 5.62273C126.362 6.17588 126.154 6.92364 126.154 7.85482V8.9122H130.871V10.7291H126.154V21.0765H123.97V7.81504C123.97 6.25401 124.349 5.0461 125.119 4.19276C125.893 3.33998 127.103 2.91989 128.741 2.91989ZM118.809 14.9944C118.809 13.6205 118.503 12.5356 117.882 11.7326C117.259 10.9288 116.417 10.5305 115.353 10.5305C114.283 10.5305 113.435 10.9288 112.822 11.7326C112.198 12.5359 111.886 13.6208 111.886 14.9944C111.886 16.368 112.198 17.454 112.822 18.2512C113.435 19.0599 114.283 19.4643 115.353 19.4643C116.417 19.4643 117.259 19.0599 117.882 18.2512C118.504 17.454 118.809 16.3682 118.809 14.9944ZM121.094 14.9944C121.094 15.9587 120.949 16.8344 120.67 17.6148C120.387 18.3954 119.99 19.0599 119.477 19.6251C118.976 20.1911 118.362 20.6227 117.661 20.9269C116.953 21.2311 116.178 21.3864 115.353 21.3864C114.516 21.3864 113.748 21.2311 113.04 20.9269C112.331 20.6227 111.729 20.1911 111.217 19.6251C110.709 19.0596 110.314 18.3952 110.031 17.6148C109.745 16.8341 109.6 15.9587 109.6 14.9944C109.6 14.0423 109.745 13.1772 110.031 12.3854C110.314 11.5941 110.709 10.9248 111.217 10.3636C111.729 9.79931 112.331 9.36663 113.04 9.06244C113.748 8.75767 114.516 8.60715 115.353 8.60715C116.177 8.60715 116.953 8.75767 117.661 9.06244C118.362 9.36663 118.975 9.79931 119.477 10.3636C119.99 10.9245 120.386 11.5941 120.67 12.3854C120.949 13.1775 121.094 14.0423 121.094 14.9944ZM102.845 19.5144C103.736 19.5144 104.405 19.393 104.84 19.1592C105.265 18.928 105.486 18.5511 105.486 18.0352C105.486 17.5092 105.27 17.0882 104.851 16.7729C104.428 16.4624 103.726 16.1073 102.756 15.7207C102.283 15.5367 101.83 15.3432 101.396 15.15C100.966 14.9506 100.594 14.7174 100.281 14.4627C99.9693 14.1971 99.7121 13.8755 99.5232 13.4994C99.3332 13.1234 99.2436 12.6687 99.2436 12.1147C99.2436 11.0396 99.6462 10.1871 100.448 9.55579C101.245 8.92279 102.333 8.60715 103.719 8.60715C104.065 8.60715 104.412 8.62403 104.757 8.66867C105.103 8.70216 105.421 8.75138 105.714 8.81261C106.021 8.86269 106.279 8.91821 106.507 8.97888C106.735 9.04555 106.909 9.09993 107.036 9.14514L106.635 11.0175C106.401 10.8953 106.033 10.7634 105.532 10.6361C105.029 10.4973 104.428 10.4303 103.719 10.4303C103.101 10.4303 102.577 10.5516 102.115 10.7972C101.663 11.0344 101.43 11.4167 101.43 11.9255C101.43 12.1911 101.485 12.43 101.586 12.6349C101.686 12.8344 101.848 13.0224 102.054 13.1772C102.271 13.3435 102.527 13.4992 102.845 13.6368C103.157 13.7756 103.536 13.9253 103.971 14.0858C104.562 14.3024 105.075 14.5185 105.532 14.7277C105.982 14.9394 106.379 15.183 106.691 15.4591C107.015 15.7476 107.259 16.0798 107.438 16.4796C107.605 16.8779 107.695 17.365 107.695 17.9413C107.695 19.0594 107.27 19.913 106.435 20.4887C105.599 21.0645 104.4 21.359 102.845 21.359C101.764 21.359 100.916 21.27 100.303 21.0874C99.6908 20.9106 99.2773 20.7718 99.0541 20.6768L99.4559 18.8112C99.7067 18.9045 100.103 19.0382 100.66 19.2262C101.205 19.4153 101.937 19.5144 102.845 19.5144Z" fill="white"/>
<path d="M43.962 4.94709C43.5666 5.68883 43.4828 7.00233 43.4615 8.70244H48.868V8.69157C50.5391 8.69157 51.6543 8.4034 52.2787 7.82677C52.858 7.29508 53.1149 6.35359 53.1149 5.02979C53.1149 4.37075 53.1817 4.13838 53.1538 4.11663C53.0369 4.02792 52.4232 4.01562 51.4378 4.01562H46.9283C45.1383 4.01533 44.2902 4.34299 43.962 4.94709ZM56.0855 21.3867L46.4209 21.365C43.5778 21.365 41.8002 20.39 40.6846 18.6662C39.7151 17.1438 39.4196 15.1784 39.4196 12.8513V9.75524C39.4196 6.98516 39.4691 4.81316 40.4111 3.07442C41.4866 1.05781 43.3878 0.000427246 46.9277 0.000427246H51.4372C53.214 0.000427246 54.458 0.122906 55.4883 0.858352C56.6819 1.69539 57.1611 2.93048 57.1611 5.0295C57.1611 7.49969 56.4924 9.40555 55.0255 10.7574C53.6211 12.0592 51.5982 12.701 48.8674 12.701V12.6956L43.4609 12.701V12.8513C43.4609 14.4853 43.6052 15.7707 44.0846 16.5231C44.4348 17.0662 45.1487 17.3652 46.4206 17.3652L56.0852 17.3767V21.3867H56.0855Z" fill="#F5A61C"/>
</svg>
