<svg version="1.2" xmlns="http://www.w3.org/2000/svg" viewBox="0 0 50 48" width="42" height="40">
	<title>vector9-svg</title>
	<style>
		.s0 { fill: #9e7b4f } 
	</style>
	<path id="Layer" fill-rule="evenodd" class="s0" d="m49.5 25.4v5.7c0 2-1.2 3.8-3 4.6v2.7c0 4-3.2 7.2-7.1 7.2h-3.5c-0.5 1.4-1.9 2.3-3.4 2.3h-3.6c-1 0-1.8-0.3-2.5-1-0.7-0.7-1.1-1.6-1.1-2.5 0-1.4 0.9-2.7 2.1-3.2q0.7-0.4 1.5-0.4h3.6c1 0 1.9 0.4 2.5 1.1q0.6 0.6 0.9 1.3h3.5c2.6 0 4.8-2.1 4.8-4.8v-2.3c-1.7-0.1-3-1.5-3-3.2v-9.3c0-1.7 1.3-3 2.9-3.2-0.3-4.7-2.2-9-5.5-12.4-3.7-3.6-8.5-5.6-13.6-5.6-10.2 0-18.5 8-19.1 18 1.6 0.2 2.9 1.5 2.9 3.2v9.3c0 1.8-1.4 3.2-3.2 3.2-2.8 0-5.1-2.2-5.1-5v-5.7c0-2 1.2-3.8 3-4.6 0.4-11.5 9.9-20.7 21.5-20.7 5.7 0 11.1 2.2 15.2 6.3 3.9 3.8 6.1 8.9 6.3 14.4 1.8 0.8 3 2.6 3 4.6zm-43.9-2.7c-1.5 0-2.8 1.2-2.8 2.7v5.7c0 1.5 1.3 2.7 2.8 2.7 0.5 0 0.9-0.4 0.9-0.9v-9.3c0-0.5-0.4-0.9-0.9-0.9zm28.1 21.7q0-0.5-0.3-0.9-0.4-0.3-0.9-0.3h-3.6q-0.3 0-0.5 0.1c-0.4 0.2-0.7 0.6-0.7 1.1q0 0.5 0.3 0.8 0.4 0.4 0.9 0.4h3.6c0.6 0 1.1-0.4 1.2-1q0-0.1 0-0.2zm13.5-19c0-1.5-1.3-2.7-2.8-2.7-0.5 0-0.9 0.4-0.9 0.9v9.3c0 0.5 0.4 0.9 0.9 0.9 1.5 0 2.8-1.2 2.8-2.7z"/>
	<path id="Layer" fill-rule="evenodd" class="s0" d="m26 31.5l-4.3 4.3c-0.5 0.5-1.1 0.8-1.8 0.8q-0.4 0-0.9-0.2c-0.9-0.4-1.5-1.3-1.5-2.3v-2.6h-0.1c-2.7 0-5-2.2-5-5v-10.1c0-2.7 2.3-5 5-5h15.2c1.3 0 2.6 0.6 3.5 1.5 0.9 0.9 1.5 2.2 1.5 3.5v10.1c0 2.8-2.3 5-5 5zm-0.5-2.4h7.1c1.4 0 2.6-1.1 2.6-2.6v-10.1c0-0.7-0.3-1.3-0.8-1.8-0.5-0.5-1.1-0.8-1.8-0.8h-15.2c-1.5 0-2.6 1.2-2.6 2.6v10.1c0 1.5 1.1 2.6 2.6 2.6h1.3c0.6 0 1.1 0.6 1.1 1.2v3.8q0 0.1 0.1 0.1 0 0 0.1 0l4.7-4.7c0.2-0.2 0.5-0.4 0.8-0.4z"/>
	<path id="Layer" class="s0" d="m19.3 19.9c-0.9 0-1.7 0.8-1.7 1.8 0 0.9 0.8 1.7 1.7 1.7 1 0 1.7-0.8 1.7-1.7 0-1-0.7-1.8-1.7-1.8z"/>
	<path id="Layer" class="s0" d="m25 19.9c-1 0-1.7 0.8-1.7 1.8 0 0.9 0.7 1.7 1.7 1.7 1 0 1.7-0.8 1.7-1.7 0-1-0.7-1.8-1.7-1.8z"/>
	<path id="Layer" class="s0" d="m30.7 19.9c-1 0-1.7 0.8-1.7 1.8 0 0.9 0.7 1.7 1.7 1.7 0.9 0 1.7-0.8 1.7-1.7 0-1-0.8-1.8-1.7-1.8z"/>
</svg>