<svg width="50" height="44" viewBox="0 0 50 44" fill="none" xmlns="http://www.w3.org/2000/svg">
<path d="M44.6762 0.554077H5.32372C2.38815 0.554077 0 2.94233 0 5.8779V38.122C0 41.0576 2.38815 43.4457 5.32372 43.4457H10.6378C11.0426 43.4457 11.3707 43.1177 11.3707 42.7128C11.3707 42.308 11.0426 41.9799 10.6378 41.9799H5.32372C3.19638 41.9799 1.46578 40.2492 1.46578 38.122V8.01716H37.5261C37.9309 8.01716 38.259 7.68912 38.259 7.28427C38.259 6.87942 37.9309 6.55138 37.5261 6.55138H1.46578V5.8778C1.46578 3.75046 3.19648 2.01986 5.32372 2.01986H44.6762C46.8035 2.01986 48.5341 3.75056 48.5341 5.8778V6.55138H40.6494C40.2445 6.55138 39.9165 6.87942 39.9165 7.28427C39.9165 7.68912 40.2445 8.01716 40.6494 8.01716H48.5341V38.122C48.5341 40.2493 46.8034 41.9799 44.6762 41.9799H13.7611C13.3562 41.9799 13.0282 42.308 13.0282 42.7128C13.0282 43.1177 13.3562 43.4457 13.7611 43.4457H44.6762C47.6117 43.4457 49.9999 41.0576 49.9999 38.122V5.8779C50 2.94233 47.6117 0.554077 44.6762 0.554077Z" fill="#9E7B4F"/>
<path d="M38.2937 29.5517C38.3161 30.2183 38.8557 30.7406 39.5221 30.7406H43.6066C43.9415 30.7406 44.2547 30.6084 44.4885 30.3683C44.722 30.1287 44.8456 29.8126 44.8368 29.4787C44.7009 24.2768 42.572 19.4077 38.8423 15.7686C35.1058 12.1228 30.1724 10.1151 24.951 10.1151C19.7297 10.1151 14.7963 12.1229 11.0598 15.7686C7.33009 19.4077 5.20118 24.2767 5.06526 29.4786C5.05646 29.8127 5.18018 30.1287 5.41363 30.3683C5.64747 30.6084 5.96066 30.7406 6.29544 30.7406H10.38C11.0464 30.7406 11.5861 30.2183 11.6084 29.5517C11.7197 26.2334 13.0575 23.0921 15.3753 20.7065C15.6574 20.4161 15.6507 19.9521 15.3604 19.6702C15.0699 19.388 14.6058 19.395 14.3241 19.685C13.7169 20.31 13.1709 20.9822 12.6885 21.6923L9.73866 19.6028C10.4203 18.6099 11.2034 17.6766 12.0836 16.8177C13.8805 15.0646 15.9765 13.7215 18.2532 12.834L19.3624 16.285C18.4976 16.6375 17.6635 17.0714 16.8722 17.5871C16.5331 17.8081 16.4374 18.2621 16.6584 18.6012C16.8794 18.9405 17.3335 19.0362 17.6726 18.815C19.8384 17.4036 22.3553 16.6575 24.9512 16.6575C28.4379 16.6575 31.7367 17.9933 34.2402 20.4189C36.7377 22.8392 38.1774 26.0825 38.2937 29.5517ZM11.9239 22.947C10.8733 24.8823 10.2622 27.0396 10.153 29.2748H6.53847C6.65583 26.2717 7.49211 23.3946 8.95691 20.8453L11.9239 22.947ZM39.7493 29.2748C39.64 27.0304 39.031 24.8764 37.9814 22.9447L40.9453 20.8453C42.4101 23.3946 43.2464 26.2717 43.3637 29.2749H39.7493V29.2748ZM40.1636 19.6028L37.2158 21.6908C36.6503 20.8598 35.997 20.0805 35.2599 19.3664C33.8778 18.0272 32.2771 16.9877 30.5411 16.2807L31.649 12.834C33.9256 13.7215 36.0217 15.0646 37.8186 16.8177C38.6989 17.6766 39.4819 18.6099 40.1636 19.6028ZM20.7456 15.7983L19.6391 12.356C21.3418 11.8455 23.1274 11.5808 24.951 11.5808C26.7747 11.5808 28.5603 11.8455 30.2629 12.356L29.1572 15.7962C27.8074 15.3982 26.3937 15.1918 24.951 15.1918C23.5152 15.1918 22.1009 15.3978 20.7456 15.7983Z" fill="#9E7B4F"/>
<path d="M27.8266 24.8453L23.4005 27.7213C22.0313 28.3209 21.0718 29.6883 21.0718 31.2763C21.0718 33.4155 22.8121 35.1557 24.9511 35.1557C27.0418 35.1557 28.7505 33.4931 28.8269 31.4207L29.9337 26.2982C30.0527 25.748 29.83 25.186 29.3667 24.8665C28.903 24.5468 28.2988 24.5385 27.8266 24.8453ZM28.459 26.1825L27.9017 28.7618C27.4636 28.2485 26.8946 27.8505 26.2465 27.6202L28.459 26.1825ZM24.9511 33.6899C23.6203 33.6899 22.5376 32.6072 22.5376 31.2763C22.5376 29.9455 23.6203 28.8628 24.9511 28.8628C26.282 28.8628 27.3647 29.9455 27.3647 31.2763C27.3647 32.6072 26.282 33.6899 24.9511 33.6899Z" fill="#9E7B4F"/>
<path d="M5.23558 3.64575C4.83073 3.64575 4.50269 3.97379 4.50269 4.37864C4.50269 4.78349 4.83073 5.11153 5.23558 5.11153H5.54339C5.94824 5.11153 6.27628 4.78349 6.27628 4.37864C6.27628 3.97379 5.94824 3.64575 5.54339 3.64575H5.23558Z" fill="#9E7B4F"/>
<path d="M8.82743 3.64575C8.42259 3.64575 8.09454 3.97379 8.09454 4.37864C8.09454 4.78349 8.42259 5.11153 8.82743 5.11153H9.13525C9.5401 5.11153 9.86814 4.78349 9.86814 4.37864C9.86814 3.97379 9.5401 3.64575 9.13525 3.64575H8.82743Z" fill="#9E7B4F"/>
<path d="M12.4193 3.64575C12.0144 3.64575 11.6864 3.97379 11.6864 4.37864C11.6864 4.78349 12.0144 5.11153 12.4193 5.11153H12.7271C13.1319 5.11153 13.46 4.78349 13.46 4.37864C13.46 3.97379 13.1319 3.64575 12.7271 3.64575H12.4193Z" fill="#9E7B4F"/>
</svg>
