<svg width="50" height="50" viewBox="0 0 50 50" fill="none" xmlns="http://www.w3.org/2000/svg">
<path d="M19.413 41.3559H30.7207" stroke="#9E7B4F" stroke-width="2" stroke-miterlimit="10" stroke-linecap="round" stroke-linejoin="round"/>
<mask id="mask0_4116_2421" style="mask-type:luminance" maskUnits="userSpaceOnUse" x="0" y="0" width="50" height="50">
<path d="M0 3.8147e-06H50V50H0V3.8147e-06Z" fill="white"/>
</mask>
<g mask="url(#mask0_4116_2421)">
<path d="M11.0352 11.2621H5.45821C4.51358 11.2621 3.74776 12.0279 3.74776 12.9726V28.9414" stroke="#9E7B4F" stroke-width="2" stroke-miterlimit="10" stroke-linecap="round" stroke-linejoin="round"/>
<path d="M46.2522 28.8711V12.9726C46.2522 12.0279 45.4865 11.2621 44.5418 11.2621H38.879" stroke="#9E7B4F" stroke-width="2" stroke-miterlimit="10" stroke-linecap="round" stroke-linejoin="round"/>
<path d="M25 31.4772L17.6032 23.5603C16.9271 22.8367 15.7797 22.8367 15.1036 23.5603L10.1417 28.8711" stroke="#9E7B4F" stroke-width="2" stroke-miterlimit="10" stroke-linecap="round" stroke-linejoin="round"/>
<path d="M42.9561 32.1867L34.8964 23.5604C34.2203 22.8366 33.0728 22.8366 32.3968 23.5604L19.2793 37.6001" stroke="#9E7B4F" stroke-width="2" stroke-miterlimit="10" stroke-linecap="round" stroke-linejoin="round"/>
<path d="M29.2545 11.2621C29.2545 13.6118 27.3497 15.5166 25 15.5166C22.6503 15.5166 20.7455 13.6118 20.7455 11.2621C20.7455 8.9124 22.6503 7.00762 25 7.00762C27.3497 7.00762 29.2545 8.9124 29.2545 11.2621Z" stroke="#9E7B4F" stroke-width="2" stroke-miterlimit="10" stroke-linecap="round" stroke-linejoin="round"/>
<path d="M35.5297 11.9349V10.5893C35.5297 10.4179 35.4236 10.2644 35.2632 10.2038L32.8261 9.28367C32.7037 9.23748 32.6122 9.13552 32.5751 9.01023C32.4176 8.47957 32.2062 7.97214 31.9467 7.49461C31.8856 7.38201 31.8782 7.24802 31.931 7.13132L33.0055 4.7532C33.0761 4.59705 33.0426 4.41345 32.9214 4.29226L31.9698 3.3408C31.8487 3.21951 31.6651 3.18601 31.5089 3.25662L29.1308 4.33113C29.0141 4.38386 28.8801 4.37663 28.7675 4.3155C28.29 4.05593 27.7825 3.84451 27.2519 3.68708C27.1266 3.64988 27.0246 3.55837 26.9784 3.43611L26.0583 0.998902C25.9978 0.83855 25.8443 0.732399 25.6728 0.732399H24.3272C24.1558 0.732399 24.0023 0.83855 23.9417 0.998902L23.0216 3.43611C22.9754 3.55837 22.8734 3.64988 22.7481 3.68708C22.2174 3.84451 21.7101 4.05593 21.2324 4.3155C21.1199 4.37663 20.9859 4.38386 20.8692 4.33113L18.4911 3.25662C18.3349 3.18601 18.1513 3.21951 18.0301 3.3408L17.0786 4.29226C16.9574 4.41345 16.9239 4.59705 16.9945 4.7532L18.0691 7.13132C18.1218 7.24802 18.1145 7.38201 18.0533 7.49461C17.7939 7.97214 17.5823 8.47957 17.4249 9.01023C17.3877 9.13552 17.2963 9.23748 17.1739 9.28367L14.7368 10.2038C14.5764 10.2644 14.4703 10.4179 14.4703 10.5893V11.9349C14.4703 12.1063 14.5764 12.2598 14.7368 12.3204L17.1739 13.2406C17.2963 13.2868 17.3877 13.3887 17.4249 13.514C17.5823 14.0447 17.7939 14.5521 18.0533 15.0297C18.1145 15.1422 18.1218 15.2762 18.0691 15.3929L16.9945 17.771C16.9239 17.9272 16.9574 18.1108 17.0786 18.232L18.0301 19.1836C18.1513 19.3048 18.3349 19.3383 18.4911 19.2677L20.8692 18.193C20.9859 18.1403 21.1199 18.1476 21.2324 18.2088C21.7101 18.4682 22.2174 18.6798 22.7481 18.8372C22.8734 18.8744 22.9754 18.9659 23.0216 19.0883L23.9417 21.5254C24.0023 21.6857 24.1558 21.7919 24.3272 21.7919H25.6728C25.8443 21.7919 25.9978 21.6857 26.0583 21.5254L26.9784 19.0883C27.0246 18.9659 27.1266 18.8744 27.2519 18.8372C27.7825 18.6798 28.29 18.4682 28.7675 18.2088C28.8801 18.1476 29.0141 18.1403 29.1308 18.193L31.5089 19.2677C31.6651 19.3383 31.8487 19.3048 31.9698 19.1836L32.9214 18.232C33.0426 18.1108 33.0761 17.9272 33.0055 17.771L31.931 15.3929C31.8782 15.2762 31.8856 15.1422 31.9467 15.0297C32.2062 14.5521 32.4176 14.0447 32.5751 13.514C32.6122 13.3887 32.7037 13.2868 32.8261 13.2406L35.2632 12.3204C35.4236 12.2598 35.5297 12.1063 35.5297 11.9349Z" stroke="#9E7B4F" stroke-width="2" stroke-miterlimit="10" stroke-linecap="round" stroke-linejoin="round"/>
<path d="M49.2676 36.1836V34.1398C49.2676 33.0612 48.3932 32.1867 47.3145 32.1867H32.6738C31.5951 32.1867 30.7207 33.0612 30.7207 34.1398V47.3145C30.7207 48.3932 31.5951 49.2676 32.6738 49.2676H47.3145C48.3932 49.2676 49.2676 48.3932 49.2676 47.3145V40.0625" stroke="#9E7B4F" stroke-width="2" stroke-miterlimit="10" stroke-linecap="round" stroke-linejoin="round"/>
<path d="M2.68555 49.2675H17.3262C18.4049 49.2675 19.2793 48.3931 19.2793 47.3144V34.1398C19.2793 33.0612 18.4049 32.1867 17.3262 32.1867H2.68555C1.60684 32.1867 0.732422 33.0612 0.732422 34.1398V47.3144C0.732422 48.3931 1.60684 49.2675 2.68555 49.2675Z" stroke="#9E7B4F" stroke-width="2" stroke-miterlimit="10" stroke-linecap="round" stroke-linejoin="round"/>
<path d="M37.2343 44.6539L43.4989 41.1534C43.8323 40.9671 43.8323 40.4872 43.4989 40.3009L37.2343 36.8005C36.9088 36.6185 36.5078 36.8539 36.5078 37.2267V44.2276C36.5078 44.6005 36.9088 44.8357 37.2343 44.6539Z" stroke="#9E7B4F" stroke-width="2" stroke-miterlimit="10" stroke-linecap="round" stroke-linejoin="round"/>
<path d="M4.90527 37.2032H15.1064" stroke="#9E7B4F" stroke-width="2" stroke-miterlimit="10" stroke-linecap="round" stroke-linejoin="round"/>
<path d="M4.90527 40.7272H15.1064" stroke="#9E7B4F" stroke-width="2" stroke-miterlimit="10" stroke-linecap="round" stroke-linejoin="round"/>
<path d="M4.90527 44.2512H15.1064" stroke="#9E7B4F" stroke-width="2" stroke-miterlimit="10" stroke-linecap="round" stroke-linejoin="round"/>
</g>
</svg>
