<svg width="50" height="50" viewBox="0 0 50 50" fill="none" xmlns="http://www.w3.org/2000/svg">
<path d="M43.7021 6.29805C39.6407 2.23672 34.2409 0 28.4973 0C22.7536 0 17.3538 2.23672 13.2926 6.29805C12.9959 6.59473 12.7047 6.90322 12.4271 7.21494C12.1575 7.51758 12.1843 7.98154 12.487 8.25107C12.7897 8.5207 13.2537 8.49375 13.5231 8.19111C13.782 7.90039 14.0537 7.6127 14.3305 7.33584C18.1146 3.55176 23.1458 1.46768 28.4974 1.46768C33.8489 1.46768 38.8801 3.55166 42.6642 7.33584C50.4758 15.1475 50.4758 27.8579 42.6642 35.6695C38.8801 39.4536 33.8488 41.5377 28.4974 41.5377C23.1458 41.5377 18.1146 39.4537 14.3305 35.6695C11.0403 32.3794 8.98799 28.0209 8.55156 23.397C8.1207 18.8327 9.27197 14.2288 11.7932 10.4332C12.0174 10.0956 11.9255 9.64004 11.5879 9.41582C11.2504 9.1916 10.7948 9.2835 10.5705 9.62109C7.86396 13.6957 6.62793 18.6371 7.09033 23.535C7.44795 27.324 8.81738 30.9462 11.0159 34.0194L8.86084 36.1745C8.57422 35.8883 8.10977 35.8883 7.82334 36.1748L1.24121 42.7569C-0.413574 44.4116 -0.413574 47.1042 1.24121 48.7589C2.06846 49.5863 3.15527 50 4.24209 50C5.32891 50 6.41572 49.5863 7.24307 48.759L9.10332 46.8987C9.38994 46.6121 9.38994 46.1475 9.10332 45.8608C8.8167 45.5742 8.35205 45.5742 8.06543 45.8608L6.20518 47.7211C5.68076 48.2455 4.98359 48.5343 4.24199 48.5343C3.50039 48.5343 2.80322 48.2455 2.27881 47.7211C1.75439 47.1967 1.46563 46.4995 1.46563 45.7579C1.46563 45.0163 1.75439 44.3191 2.27881 43.7947L8.34199 37.7315L12.2683 41.6578L10.141 43.7851C9.85439 44.0717 9.85439 44.5363 10.141 44.8229C10.4276 45.1096 10.8923 45.1096 11.1789 44.8229L13.825 42.1769C14.1115 41.8903 14.1116 41.4259 13.8253 41.1394L15.9762 38.9885C19.6029 41.5972 23.9414 43.0056 28.4971 43.0056C34.2407 43.0056 39.6404 40.7688 43.7019 36.7075C47.7633 32.6462 50 27.2463 50 21.5027C50 15.7592 47.7633 10.3594 43.7021 6.29805ZM12.7876 40.1014L9.89854 37.2123L11.9179 35.193C12.3508 35.7176 12.8087 36.2236 13.2925 36.7074C13.7779 37.1929 14.283 37.6514 14.805 38.084L12.7876 40.1014Z" fill="#9E7B4F"/>
<path d="M36.0048 37.1479C37.7679 36.3018 39.3693 35.1654 40.7646 33.7702C47.5288 27.0059 47.5288 15.9998 40.7646 9.23551C34.0003 2.47125 22.9942 2.47135 16.23 9.23551C9.46582 15.9998 9.46582 27.0059 16.23 33.7702C19.5236 37.0638 23.9704 38.8494 28.5178 38.8493C30.0584 38.8493 31.611 38.6443 33.1336 38.2235C33.5242 38.1156 33.7534 37.7114 33.6455 37.3207C33.5374 36.9299 33.1332 36.7008 32.7427 36.8088C27.2337 38.3309 21.3044 36.7689 17.2679 32.7323C11.0759 26.5403 11.0759 16.4653 17.2679 10.2734C23.4598 4.0816 33.5346 4.08141 39.7268 10.2734C45.9187 16.4654 45.9187 26.5404 39.7269 32.7323C38.4489 34.01 36.9831 35.0505 35.3698 35.8247C35.0044 36.0001 34.8504 36.4383 35.0257 36.8038C35.2011 37.1693 35.6394 37.323 36.0048 37.1479Z" fill="#9E7B4F"/>
<path d="M29.3814 18.1586C29.7867 18.1586 30.1152 17.83 30.1152 17.4247C30.1152 17.0194 29.7867 16.6908 29.3814 16.6908H25.9447C25.5394 16.6908 25.2108 17.0194 25.2108 17.4247V25.5807C25.2108 25.986 25.5394 26.3146 25.9447 26.3146H29.3814C29.7867 26.3146 30.1152 25.986 30.1152 25.5807C30.1152 25.1755 29.7867 24.8469 29.3814 24.8469H26.6786V22.2366H29.1279C29.5333 22.2366 29.8618 21.908 29.8618 21.5027C29.8618 21.0974 29.5333 20.7688 29.1279 20.7688H26.6786V18.1586H29.3814Z" fill="#9E7B4F"/>
<path d="M20.6821 24.8845C19.7821 24.8845 18.9132 24.5185 18.3575 23.9054C18.0854 23.6051 17.6213 23.5823 17.3209 23.8545C17.0205 24.1267 16.9978 24.5908 17.27 24.8912C18.0992 25.8061 19.3748 26.3523 20.6822 26.3523C22.2481 26.3523 23.6123 25.3253 23.8555 23.9634C24.1359 22.3923 22.9006 21.3401 21.651 20.8792C20.5917 20.4884 19.6092 20.0619 19.3612 19.9529C19.0983 19.7602 18.9706 19.4523 19.0184 19.1193C19.0786 18.7002 19.4007 18.3636 19.88 18.2193C21.2016 17.8215 22.3948 18.7791 22.4175 18.7975C22.7276 19.0558 23.1887 19.0151 23.4488 18.7057C23.7096 18.3955 23.6695 17.9326 23.3593 17.6717C23.2866 17.6106 21.5543 16.1823 19.4567 16.8139C18.4316 17.1227 17.7068 17.9261 17.5655 18.9108C17.434 19.8275 17.831 20.7091 18.6016 21.2116C18.634 21.2327 18.6681 21.2512 18.7034 21.267C18.7507 21.2881 19.8755 21.7888 21.1431 22.2564C22.0531 22.592 22.515 23.1203 22.4106 23.7056C22.3083 24.2771 21.6679 24.8845 20.6821 24.8845Z" fill="#9E7B4F"/>
<path d="M40.5367 21.5027C40.5367 18.8287 38.3612 16.6532 35.6871 16.6532C33.0131 16.6532 30.8377 18.8287 30.8377 21.5027C30.8377 24.1767 33.0131 26.3521 35.6871 26.3521C38.3612 26.3522 40.5367 24.1767 40.5367 21.5027ZM32.3056 21.5027C32.3056 19.6381 33.8226 18.121 35.6872 18.121C37.552 18.121 39.0691 19.638 39.0691 21.5027C39.0691 23.3675 37.552 24.8844 35.6872 24.8844C33.8226 24.8844 32.3056 23.3675 32.3056 21.5027Z" fill="#9E7B4F"/>
</svg>
