<svg width="46" height="50" viewBox="0 0 46 50" fill="none" xmlns="http://www.w3.org/2000/svg">
<path d="M41.6693 6.50225H41.0761C42.2069 4.66117 41.7894 2.18944 39.9745 0.842886C38.0189 -0.607867 35.24 -0.140884 33.8753 1.89853L30.7947 6.50235H4.33062C2.15537 6.50235 0.385681 8.27204 0.385681 10.4473V35.6689C0.385681 37.8441 2.15537 39.6138 4.33062 39.6138H19.654L18.4962 44.4767H15.9973C14.3687 44.4767 13.0437 45.8016 13.0437 47.4302V48.0468H9.96323C9.42388 48.0468 8.98668 48.4841 8.98668 49.0234C8.98668 49.5626 9.42388 49.9999 9.96323 49.9999H36.0368C36.5762 49.9999 37.0134 49.5626 37.0134 49.0234C37.0134 48.4841 36.5762 48.0468 36.0368 48.0468H32.9563V47.4302C32.9563 45.8016 31.6314 44.4767 30.0028 44.4767H27.5039L26.3461 39.6138H41.6694C43.8447 39.6138 45.6144 37.8441 45.6144 35.6689V30.1192V10.4472C45.6144 8.27194 43.8447 6.50225 41.6693 6.50225ZM27.6772 23.6698C26.1504 24.7386 23.29 23.2858 20.5584 24.7434C19.8919 21.2811 20.3121 18.0248 23.7813 17.306C24.2296 17.2126 24.7124 17.1703 25.1233 17.1785C26.2975 18.0497 27.4852 18.9308 28.656 19.7996C29.1686 21.2906 28.9762 22.7605 27.6772 23.6698ZM28.6614 13.2024L31.4257 15.2533L29.2999 17.8452C28.4247 17.1959 27.6724 16.6377 26.7972 15.9883C26.9789 15.7167 28.4953 13.4506 28.6614 13.2024ZM35.4986 2.98474C36.2382 1.87919 37.7467 1.62197 38.8107 2.41151C39.8751 3.20114 40.0658 4.71927 39.2223 5.74767C37.7258 7.57215 34.1678 11.9101 32.6656 13.7416L29.7487 11.5773L35.4986 2.98474ZM31.0031 47.4302V48.0468H14.9968V47.4302C14.9968 46.8786 15.4456 46.4298 15.9973 46.4298H30.0027C30.5543 46.4298 31.0031 46.8786 31.0031 47.4302ZM25.4961 44.4767H20.5038L21.6616 39.6138H24.3383L25.4961 44.4767ZM43.6613 35.6689C43.6613 36.7672 42.7678 37.6607 41.6694 37.6607C40.1193 37.6607 6.07366 37.6607 4.33072 37.6607C3.2324 37.6607 2.33887 36.7672 2.33887 35.6689V31.0957H5.12944C5.66878 31.0957 6.10598 30.6584 6.10598 30.1192C6.10598 29.5799 5.66878 29.1426 5.12944 29.1426H2.33867V10.4472C2.33867 9.34887 3.23221 8.45533 4.33053 8.45533H29.4877C28.5522 9.85345 25.8229 13.9323 24.9583 15.2241C23.0446 15.2414 21.134 15.9081 19.8832 17.3682C18.1812 19.355 17.8822 22.4768 18.9945 26.6469C19.1846 27.3599 20.0744 27.6154 20.6127 27.1012C23.1378 24.6884 26.2826 27.3202 29.0989 25.0408C30.818 23.6492 31.2248 21.4369 30.5766 19.3682C31.4528 18.2999 38.6491 9.52621 39.5274 8.45533H41.6692C42.7676 8.45533 43.6611 9.34887 43.6611 10.4472V29.1425H12.9416C12.4022 29.1425 11.965 29.5798 11.965 30.1191C11.965 30.6583 12.4022 31.0956 12.9416 31.0956H43.6613V35.6689Z" fill="#9E7B4F"/>
<path d="M8.84698 29.1614C8.37687 29.2575 8.06183 29.6639 8.06183 30.1196C8.06183 30.7304 8.62032 31.1982 9.22882 31.0766C9.76954 30.9668 10.0989 30.4457 9.99542 29.9281C9.88673 29.394 9.36857 29.0565 8.84698 29.1614Z" fill="#9E7B4F"/>
</svg>
