<svg width="50" height="48" viewBox="0 0 50 48" fill="none" xmlns="http://www.w3.org/2000/svg">
<path d="M22.1931 35.6934C21.1361 35.6934 20.2769 34.8349 20.2769 33.7779C20.2769 32.7209 21.1361 31.8624 22.1931 31.8624C23.2501 31.8624 24.1093 32.7209 24.1093 33.7779C24.1093 34.8349 23.2501 35.6934 22.1931 35.6934ZM22.1931 33.4755C22.0261 33.4755 21.8899 33.6109 21.8899 33.7779C21.8899 34.1118 22.4963 34.1118 22.4963 33.7779C22.4963 33.6109 22.3601 33.4755 22.1931 33.4755ZM29.3965 35.6934C28.3395 35.6934 27.4811 34.8349 27.4811 33.7779C27.4811 32.7209 28.3396 31.8624 29.3965 31.8624C30.4535 31.8624 31.312 32.7209 31.312 33.7779C31.312 34.8349 30.4535 35.6934 29.3965 35.6934ZM29.3965 33.4755C29.2295 33.4755 29.0941 33.6109 29.0941 33.7779C29.0941 34.1118 29.699 34.1118 29.699 33.7779C29.699 33.6109 29.5635 33.4755 29.3965 33.4755ZM35.4296 17.2996C35.072 16.8334 34.5285 16.5664 33.941 16.5664H15.616L15.1385 14.7809C14.8967 13.8744 14.0729 13.2419 13.1349 13.2419H11.933C11.4872 13.2419 11.1265 13.6026 11.1265 14.0484C11.1265 14.4942 11.4872 14.8549 11.933 14.8549H13.1349C13.3436 14.8549 13.5263 14.9959 13.5806 15.1975L17.4328 29.6004C17.7148 30.6558 18.6749 31.393 19.7673 31.393H32.6966C33.1424 31.393 33.5031 31.0323 33.5031 30.5865C33.5031 30.1407 33.1424 29.78 32.6966 29.78H19.7673C19.4042 29.78 19.0844 29.5343 18.9907 29.1846L18.6966 28.0851H21.3661H28.9759H30.8363C32.2965 28.0851 33.5803 27.099 33.9583 25.6876L35.7556 18.9276C35.9068 18.359 35.7871 17.7659 35.4296 17.2996ZM34.1505 18.2826C34.1804 18.3212 34.2261 18.4023 34.1962 18.5133L33.3967 21.5196H30.5638L31.0132 18.1794H33.941C34.0544 18.1794 34.1206 18.244 34.1505 18.2826ZM28.9373 21.5196H25.9736V18.1794H29.3871L28.9373 21.5196ZM24.3606 18.1794V21.5196H21.3998L20.9471 18.1794H24.3606ZM19.3192 18.1794L19.7718 21.5196H16.9447L16.0498 18.1794H19.3192ZM19.9903 23.1326L20.4427 26.4721H18.2716L17.3769 23.1326H19.9903ZM21.6184 23.1326H24.3606V26.4721H22.071L21.6184 23.1326ZM25.9736 26.4721V23.1326H28.72L28.2703 26.4721H25.9736ZM30.8363 26.4721H29.8975L30.3468 23.1326H32.9677L32.3989 25.2718C32.2098 25.979 31.5672 26.4721 30.8363 26.4721ZM13.6593 4.45494C13.6593 4.03732 13.3214 3.69938 12.9038 3.69938H4.60716C4.18954 3.69938 3.8516 4.03731 3.8516 4.45494C3.8516 4.87256 4.18953 5.21049 4.60716 5.21049H12.9038C13.3214 5.21049 13.6593 4.87256 13.6593 4.45494ZM36.4439 4.45484C36.4439 4.90027 36.0829 5.26135 35.6374 5.26135C35.192 5.26135 34.8309 4.90027 34.8309 4.45484C34.8309 4.00942 35.192 3.64834 35.6374 3.64834C36.0829 3.64834 36.4439 4.00943 36.4439 4.45484ZM38.9647 3.64834C38.5193 3.64834 38.1582 4.00943 38.1582 4.45485C38.1582 4.90027 38.5193 5.26136 38.9647 5.26136C39.4101 5.26136 39.7712 4.90027 39.7712 4.45485C39.7712 4.00943 39.4101 3.64834 38.9647 3.64834ZM42.2919 3.64834C41.8465 3.64834 41.4854 4.00943 41.4854 4.45485C41.4854 4.90027 41.8465 5.26136 42.2919 5.26136C42.7374 5.26136 43.0984 4.90027 43.0984 4.45485C43.0984 4.00943 42.7374 3.64834 42.2919 3.64834ZM49.4095 38.891L46.936 36.8056C46.9377 36.7559 46.9453 36.7071 46.9453 36.6572V5.14941C46.9453 2.72751 44.9687 0.750977 42.5469 0.750977H4.39844C1.97658 0.750977 0 2.72752 0 5.14941V36.6572C0 39.0791 1.97659 41.0556 4.39844 41.0556H38.2562L38.2571 44.0766C38.2571 44.7271 38.6225 45.3021 39.2116 45.5778C39.796 45.8503 40.4749 45.7652 40.9743 45.3509L42.4849 44.0955L43.3261 45.9023C43.586 46.4662 44.0522 46.8946 44.635 47.1073C44.895 47.2018 45.1659 47.2491 45.4337 47.2491C45.7676 47.2491 46.1016 47.1766 46.4135 47.0317C46.9758 46.7702 47.4043 46.3039 47.617 45.7211C47.8296 45.1367 47.8028 44.505 47.5397 43.9443L46.7002 42.136L48.6329 41.791C49.2725 41.676 49.7734 41.2144 49.942 40.586C50.1105 39.959 49.9057 39.3085 49.4095 38.891ZM1.60937 5.14941C1.60937 3.61815 2.85935 2.36816 4.39844 2.36816H42.5469C44.0859 2.36816 45.336 3.61815 45.336 5.14941V6.54002H1.60937V5.14941ZM38.2539 33.0486L38.2557 39.4385H4.39844C2.85935 39.4385 1.60937 38.1885 1.60937 36.6572V8.1572H45.336V35.4567L40.9774 31.7821C40.4781 31.36 39.8008 31.2749 39.2116 31.5474C38.6209 31.8215 38.2539 32.3964 38.2539 33.0486ZM48.3479 40.2031L45.3849 40.7324C45.1391 40.7765 44.9265 40.9325 44.8115 41.1546C44.6949 41.3767 44.6902 41.6398 44.7957 41.8666L46.078 44.6263C46.1583 44.7965 46.1662 44.9902 46.1016 45.1682C46.0354 45.3462 45.9047 45.4895 45.7345 45.5699C45.5613 45.6487 45.366 45.6581 45.1896 45.5919C45.01 45.5274 44.8682 45.3966 44.7879 45.2233L43.5057 42.4667C43.4001 42.2399 43.1953 42.0745 42.9512 42.0194C42.8929 42.0068 42.833 42.0005 42.7748 42.0005C42.5889 42.0005 42.4062 42.065 42.2596 42.1864L39.8701 44.0766L39.9378 33.0139L48.3699 40.1228L48.3479 40.2031Z" fill="#9E7B4F"/>
</svg>
