<svg width="129" height="29" viewBox="0 0 129 29" fill="none" xmlns="http://www.w3.org/2000/svg">
<g clip-path="url(#clip0_74_82)">
<path d="M9.77637 12.9087C8.48707 12.9087 7.29366 13.2086 6.20786 13.8083C5.1165 14.4029 4.25127 15.2439 3.60662 16.3259C2.96177 17.4076 2.63954 18.5542 2.63954 19.765C2.63954 20.9595 2.96197 22.1055 3.61218 23.1984C4.26259 24.2912 5.13357 25.1425 6.23049 25.748C7.32761 26.3586 8.50394 26.6638 9.7593 26.6638C11.0206 26.6638 12.2249 26.3639 13.3562 25.7587C14.4926 25.1532 15.3634 24.3388 15.9743 23.3054C16.585 22.277 16.8908 21.1145 16.8908 19.8233C16.8908 17.8576 16.2064 16.2131 14.8321 14.8904C13.4636 13.5674 11.7782 12.9087 9.77637 12.9087ZM19.0624 12.2067L19.0622 28.2705L16.755 27.2692V25.3356C15.7823 26.4551 14.6963 27.2961 13.4862 27.8532C12.2817 28.4101 10.9585 28.6886 9.5278 28.6886C6.98275 28.6886 4.80579 27.8153 3.00167 26.069C1.19776 24.3179 0.298584 22.1963 0.298584 19.6896C0.298584 17.2419 1.20888 15.1422 3.02987 13.4012C4.8451 11.6604 7.03377 10.7871 9.59531 10.7871C11.0714 10.7871 12.406 11.0818 13.6048 11.6711C14.798 12.2603 15.85 13.1494 16.7548 14.3439V11.2051L19.0624 12.2067Z" fill="#005730"/>
<path d="M39.1353 12.9081C37.8458 12.9081 36.6526 13.208 35.5666 13.8077C34.475 14.4024 33.61 15.2433 32.9652 16.3254C32.3205 17.407 31.9981 18.5536 31.9981 19.7644C31.9981 20.9589 32.3205 22.1049 32.9709 23.1978C33.6211 24.2906 34.4921 25.1419 35.5892 25.7474C36.6864 26.358 37.8627 26.6632 39.1178 26.6632C40.3792 26.6632 41.5835 26.3633 42.7148 25.7581C43.8516 25.1526 44.7224 24.3382 45.3331 23.3048C45.9438 22.2764 46.2491 21.1139 46.2491 19.8227C46.2491 17.857 45.5648 16.2125 44.1905 14.8898C42.8222 13.5668 41.1372 12.9081 39.1353 12.9081ZM48.4209 5.61777V28.2699L46.1135 27.2686V25.335C45.1409 26.4545 44.0549 27.2955 42.8448 27.8527C41.6405 28.4095 40.3172 28.688 38.8864 28.688C36.3417 28.688 34.1643 27.8147 32.3602 26.0684C30.5563 24.3173 29.6571 22.1957 29.6571 19.689C29.6571 17.2413 30.5674 15.1416 32.3884 13.4006C34.2038 11.6598 36.3923 10.7865 38.9543 10.7865C40.4302 10.7865 41.7648 11.0866 42.9637 11.6811C44.1569 12.2759 45.2086 13.1702 46.1135 14.3647V4.61621L48.4209 5.61777Z" fill="#005730"/>
<path d="M59.1938 11.2048L61.5687 12.2065V13.7008C62.2757 12.7154 63.022 11.9867 63.8082 11.5049C65.8134 10.2884 67.3001 11.0558 68.3207 11.3654L67.1107 13.2081C66.624 13.0099 66.2174 12.9081 65.8837 12.9081C65.109 12.9081 64.3621 13.2081 63.6438 13.8078C62.9257 14.408 62.3773 15.3447 61.9983 16.6097C61.7096 17.5786 61.5683 19.5446 61.5683 22.5015V28.2702L59.1934 27.2688V11.2048H59.1938Z" fill="#005730"/>
<path d="M76.3631 11.2051L78.6699 12.2066V28.2705L76.3631 27.2691V11.2051Z" fill="#005730"/>
<path d="M99.4479 12.6404L97.8961 14.0972C96.6086 12.9618 95.3447 12.3941 94.1159 12.3941C93.3341 12.3941 92.664 12.6297 92.1057 13.1011C91.5471 13.5671 91.2649 14.1189 91.2649 14.7455C91.2649 15.2972 91.494 15.8273 91.9529 16.3256C92.4115 16.8396 93.3811 17.4395 94.8513 18.1307C96.638 18.9717 97.855 19.7914 98.5016 20.5735C99.1306 21.3661 99.4483 22.2607 99.4483 23.2512C99.4483 24.6546 98.9072 25.8385 97.8256 26.8134C96.7444 27.7832 95.3917 28.2702 93.7695 28.2702C92.6879 28.2702 91.6588 28.0557 90.6713 27.6275C89.6899 27.1991 88.8787 26.6097 88.2321 25.8545L89.7487 24.2852C90.9775 25.5493 92.2882 26.1814 93.6696 26.1814C94.6335 26.1814 95.4567 25.8974 96.1388 25.3351C96.8147 24.7723 97.1557 24.1087 97.1557 23.3478C97.1557 22.721 96.9324 22.1639 96.4857 21.6712C96.0332 21.1892 95.0217 20.5839 93.4463 19.8552C91.7533 19.0625 90.6012 18.2808 89.9955 17.509C89.3842 16.7377 89.0786 15.8593 89.0786 14.8686C89.0786 13.5778 89.5662 12.5063 90.5365 11.6494C91.5125 10.7977 92.7409 10.3691 94.2281 10.3691C95.9558 10.3693 97.6962 11.1245 99.4479 12.6404Z" fill="#005730"/>
<path d="M109.98 17.2218C111.832 13.1211 116.503 9.58617 121.406 10.9138C127 12.4293 125.671 18.4693 124.593 22.9188L124.575 22.9928C124.156 24.7225 124.298 25.7664 124.758 26.2544C125.183 26.7055 126.008 26.8259 126.935 26.8259H127.594L128.652 28.6883H126.935C125.498 28.6883 124.154 28.4333 123.253 27.4765C122.386 26.5568 122.042 24.9854 122.624 22.585L122.641 22.5112C123.539 18.808 124.636 13.7218 120.85 12.6963C116.954 11.6416 113.269 14.7553 111.83 17.9422L109.98 17.2218Z" fill="#005730"/>
<path d="M111.83 2.16964V28.6881L109.512 27.6866V1.16846L111.83 2.16964Z" fill="#005730"/>
<path d="M111.831 15.0332H109.512V17.3402H111.831V15.0332Z" fill="#005730"/>
<path fill-rule="evenodd" clip-rule="evenodd" d="M80.4401 3.69187L80.4953 3.69732C80.5012 3.59258 80.5181 3.66855 80.5784 3.6048C80.5886 3.59408 80.5697 3.55309 80.6845 3.57847C80.7218 3.58656 80.668 3.5781 80.718 3.58694L80.805 3.60085C80.8518 3.61176 80.7788 3.61364 80.8492 3.60931C80.9066 3.60574 80.8691 3.60612 80.9167 3.57415L80.9052 3.39701L80.8483 3.37143C80.8385 3.29734 80.856 3.30204 80.8036 3.26594C80.7788 3.24882 80.7686 3.23321 80.775 3.17755C80.8389 3.16965 80.8072 3.18996 80.8693 3.19448C81.1548 3.21648 81.0297 3.22475 81.2126 3.27628C81.2461 3.28587 81.2378 3.29358 81.286 3.27477L81.343 3.23303C81.3454 3.23133 81.349 3.22757 81.3521 3.22475L81.3162 3.04366C81.3071 3.00492 81.3043 3.0021 81.3255 2.97032C81.3049 2.95847 81.2801 2.95622 81.2652 2.93008L81.2973 2.84226L81.4 2.82966C81.3962 2.73281 81.4141 2.73845 81.4155 2.66004C81.4183 2.54119 81.3811 2.60607 81.3718 2.49869C81.4371 2.44209 81.4077 2.51561 81.4661 2.4167C81.5346 2.46522 81.5892 2.44152 81.6081 2.37176C81.6261 2.3065 81.609 2.34355 81.6023 2.30763C81.6017 2.30594 81.6007 2.30124 81.6003 2.29954C81.5912 2.24031 81.5731 2.24557 81.5549 2.18953C81.531 2.11657 81.5775 2.1538 81.566 2.07595C81.5495 1.96575 81.5106 2.10096 81.5002 1.97911C81.4935 1.90389 81.5124 1.98738 81.5207 1.89373C81.4875 1.86778 81.4421 1.84747 81.401 1.82942C81.3849 1.7478 81.3855 1.68311 81.3359 1.63328L81.3037 1.68481C81.2789 1.70361 81.2769 1.68913 81.2439 1.70944C81.2477 1.79143 81.2507 2.0028 81.2114 2.07106C81.1897 2.10792 81.1975 2.09551 81.1723 2.11507C81.1349 2.10266 81.1437 2.09194 81.1167 2.0737C81.068 2.04041 81.1792 2.11037 81.0901 2.05884C80.8983 1.94808 81.0662 1.79877 81.0754 1.7683C81.0442 1.7117 81.0583 1.76304 81.0369 1.73915L81.0801 1.64174C81.105 1.60169 81.0672 1.48923 81.0333 1.46065C81.0071 1.43865 80.9547 1.42718 80.911 1.43C80.8761 1.51237 80.8774 1.5511 80.7659 1.56013C80.7621 1.55712 80.7571 1.54734 80.7563 1.55016C80.7549 1.55336 80.749 1.54302 80.747 1.54076C80.7452 1.53888 80.7406 1.53418 80.7389 1.53211C80.7323 1.52459 80.725 1.51349 80.7168 1.50522C80.6368 1.51989 80.7323 1.51913 80.6217 1.54227C80.6092 1.40123 80.6368 1.33052 80.5419 1.28802C80.5447 1.28407 80.5497 1.27448 80.5516 1.27749L80.5778 1.24985C80.5957 1.22615 80.6013 1.26075 80.588 1.21261L80.5792 1.19418C80.5548 1.13814 80.5503 1.1058 80.5121 1.05935C80.4172 0.943701 80.4339 1.0255 80.3867 0.974353L80.3475 1.03585L80.2153 1.04713C80.1675 1.1263 80.205 1.14191 80.0329 1.09715C79.9924 1.08662 80.0007 1.09696 79.9602 1.0806C79.9207 1.01196 79.9602 0.954232 79.9078 0.928657L79.911 1.07139C79.8716 1.07477 79.8294 1.08248 79.7893 1.07609C79.7061 1.06349 79.6882 0.968147 79.633 0.911168L79.5792 0.879011L79.5667 0.779157L79.4345 0.767309C79.3797 0.696226 79.3374 0.708638 79.2469 0.713903C79.2318 0.687388 79.2363 0.697543 79.2226 0.674977C79.1988 0.634922 79.1797 0.594679 79.122 0.607279C79.0751 0.627024 79.1132 0.593739 79.087 0.653163L79.063 0.716912C79.0622 0.719357 79.0608 0.724058 79.0588 0.727631C79.0235 0.703748 79.0156 0.711082 78.9816 0.686448C78.9921 0.622135 78.9927 0.674601 79.0054 0.608971L78.9443 0.577379C78.9191 0.567036 78.9074 0.564967 78.8835 0.558762L78.8738 0.452701L78.7888 0.435024C78.7342 0.425434 78.6745 0.400987 78.6183 0.415467C78.5549 0.43164 78.6155 0.438221 78.5287 0.450068C78.5025 0.447248 78.4714 0.377105 78.357 0.375977L78.2867 0.395346C78.2192 0.432956 78.2665 0.460411 78.2049 0.476395C78.1591 0.488243 78.011 0.462104 77.9526 0.455334L77.9063 0.453829C77.7675 0.450256 77.6931 0.427878 77.5501 0.442734C77.5253 0.49426 77.5295 0.462668 77.5156 0.532623C77.3381 0.547102 77.3701 0.500842 77.2831 0.557069C77.2077 0.605398 77.1948 0.568916 77.1151 0.565719C77.0766 0.564215 77.0889 0.56948 77.0504 0.561394C76.8759 0.526041 76.8277 0.621382 76.6631 0.598064C76.6037 0.589602 76.6428 0.57437 76.5386 0.582832L76.5285 0.603706C76.5007 0.649214 76.4782 0.640187 76.4272 0.651846L76.3913 0.66407C76.3881 0.665762 76.3849 0.668583 76.3822 0.670275L76.2273 0.753394L76.1993 0.697731C76.1501 0.709954 76.0641 0.769754 76.0149 0.759599L75.9942 0.751325C75.9914 0.750197 75.9871 0.747188 75.9827 0.745684C75.9887 0.835948 76.019 0.863779 75.9277 0.870361C75.827 0.877695 75.884 0.84535 75.7677 0.849676C75.7516 0.803791 75.753 0.809245 75.7321 0.775772C75.6762 0.764677 75.6541 0.767874 75.6349 0.747188L75.616 0.719357C75.5677 0.77107 75.5975 0.728383 75.5584 0.753206C75.5217 0.7769 75.5328 0.760916 75.5205 0.809997C75.3954 0.76054 75.5628 0.84535 75.3261 0.784046C75.3224 0.782918 75.3188 0.781601 75.3146 0.780661C75.3104 0.779533 75.2874 0.773327 75.2668 0.776712C75.2338 0.781601 75.2062 0.8068 75.1798 0.829742C75.2046 0.908159 75.2098 0.833315 75.2207 0.950659C75.2948 0.951411 75.3555 0.928092 75.3581 1.01309C75.3581 1.0146 75.3585 1.01911 75.3585 1.0208L75.3609 1.04995C75.3609 1.05145 75.3609 1.05559 75.3609 1.0571L75.3629 1.0806C75.3633 1.08286 75.3652 1.08718 75.3656 1.08963L75.3827 1.16861L75.2314 1.21807C75.1989 1.16428 75.2324 1.22032 75.2273 1.1671C75.2267 1.16616 75.2273 1.16203 75.2257 1.16033C75.1494 1.25173 75.0962 1.22239 75.0331 1.17312C75.0152 1.15902 75.0381 1.16504 75.0025 1.15037L74.9932 1.20942L74.9017 1.21525C74.8911 1.16353 74.8876 1.14059 74.9142 1.09903L74.9352 1.0744C74.9725 1.03265 74.9557 1.06988 74.9694 1.01215C74.9704 1.0082 74.9707 1.00388 74.9717 1.00012L74.9767 0.976233C74.9878 0.933922 74.9799 0.98714 74.9894 0.936179C74.9586 0.906091 74.9636 0.927904 74.9426 0.901953C74.9076 0.859642 74.9408 0.875062 74.9076 0.831623L74.8328 0.894996C74.7933 0.913048 74.7905 0.929973 74.7597 0.953855C74.7569 0.955924 74.7533 0.958369 74.75 0.960625L74.6866 0.990149C74.6829 0.991465 74.6793 0.99297 74.6755 0.994474C74.6577 1.00162 74.658 0.999176 74.643 1.00801C74.5864 1.03979 74.6318 1.05164 74.5433 1.07176C74.5391 1.12611 74.5413 1.16259 74.5068 1.20509L74.4113 1.31886C74.4091 1.32055 74.4035 1.32375 74.4017 1.32544C74.3994 1.32695 74.3944 1.32939 74.3916 1.33202C74.4252 1.36945 74.4206 1.36945 74.4273 1.4347C74.4242 1.43771 74.4182 1.43714 74.4172 1.44297C74.4085 1.48735 74.3994 1.44316 74.3735 1.4913C74.3718 1.49506 74.3668 1.50616 74.3652 1.5103C74.3487 1.55693 74.3487 1.49525 74.3543 1.58364C74.2356 1.54208 74.2457 1.5795 74.066 1.5355C73.852 1.48341 73.9709 1.48679 73.9191 1.47081C73.8705 1.45595 73.8331 1.50221 73.7988 1.52196C73.8037 1.5716 73.8377 1.60902 73.8736 1.63554L73.8971 1.65133C73.8437 1.68763 73.8903 1.7179 73.8401 1.74273L73.768 1.60301C73.7394 1.62783 73.7529 1.62802 73.7386 1.66356C73.7305 1.68424 73.7343 1.6786 73.7261 1.69327L73.6475 1.58288L73.5589 1.58947C73.4968 1.70342 73.5208 1.85255 73.5 1.9714L73.4591 2.13256C73.4289 2.1696 73.4367 2.1508 73.3958 2.17092L73.4229 2.26287C73.4253 2.26739 73.4303 2.28093 73.4327 2.28544C73.4541 2.33415 73.4313 2.29729 73.4599 2.33358C73.4736 2.35051 73.4801 2.35126 73.4934 2.37646L73.6092 2.53404C73.6427 2.56244 73.6014 2.50001 73.635 2.55586C73.6322 2.55887 73.6263 2.5583 73.6253 2.56394C73.6169 2.60719 73.6249 2.56056 73.6078 2.58012C73.5719 2.62036 73.6028 2.54627 73.5848 2.61415C73.5435 2.58068 73.5683 2.58049 73.531 2.53028C73.4716 2.53423 73.4351 2.53404 73.4162 2.5756C73.3963 2.61923 73.4116 2.59873 73.4065 2.64932L73.3898 2.71664C73.6257 2.72962 73.5016 2.82026 73.6826 2.85636C73.7517 2.87009 73.6534 2.86652 73.7444 2.86821L73.7249 2.89134C73.6876 2.94117 73.7231 2.94907 73.6437 2.96637C73.6745 3.03426 73.6409 3.07055 73.5955 3.12076L73.5496 3.17567C73.5472 3.17736 73.5433 3.17962 73.5409 3.18131C73.4623 3.24224 73.45 3.24506 73.34 3.25296L73.339 3.27139C73.3396 3.2727 73.3396 3.27835 73.34 3.27985C73.34 3.28136 73.3404 3.28606 73.3404 3.28775C73.3419 3.29715 73.3507 3.29489 73.3449 3.31126C73.2967 3.31069 73.2617 3.26556 73.2093 3.31502C73.2304 3.35714 73.2079 3.32893 73.2466 3.34529C73.2572 3.34981 73.2764 3.34717 73.2973 3.35319C73.3022 3.40716 73.3179 3.39494 73.2484 3.4113L73.2705 3.42521C73.2925 3.44176 73.2856 3.43349 73.2973 3.4459C73.3084 3.4585 73.3155 3.47354 73.3229 3.49705L73.3175 3.64937C73.305 3.72045 73.3088 3.78571 73.2601 3.84739C73.1589 3.81147 73.1448 3.85754 73.0896 3.7921C73.0511 3.7464 73.1021 3.76728 72.9977 3.72816C72.9711 3.71782 72.9792 3.72515 72.9568 3.70898C72.9121 3.6772 72.9008 3.61195 72.8613 3.5734C72.7753 3.49028 72.791 3.54857 72.763 3.48971C72.7489 3.45944 72.7767 3.49122 72.7497 3.45041C72.5931 3.45643 72.6379 3.46339 72.5337 3.50363C72.5434 3.54876 72.5383 3.5371 72.5665 3.56343L72.5474 3.57528C72.5452 3.57735 72.5337 3.58562 72.5315 3.58882C72.519 3.60518 72.5117 3.56324 72.5186 3.64016C72.5659 3.62398 72.5293 3.62568 72.5863 3.61026L72.6262 3.65802C72.6731 3.69074 72.7172 3.68153 72.7644 3.68942L72.9308 3.80902C72.9723 3.89534 72.9207 3.87165 73.0586 3.86525C73.0715 3.98692 73.0807 3.90662 73.1009 4.00234C73.1037 4.01475 73.1079 4.07982 73.1065 4.09242C73.0991 4.16143 73.1059 4.0958 73.086 4.1509L73.173 4.19284C73.1444 4.23571 73.1519 4.25245 73.1593 4.31469C73.2135 4.33632 73.2314 4.3476 73.2903 4.34478C73.3854 4.34045 73.3739 4.31996 73.441 4.36039C73.4692 4.29269 73.4116 4.31093 73.5091 4.29589C73.5109 4.2989 73.5125 4.30115 73.5133 4.30567L73.5095 4.35174C73.6133 4.36001 73.6 4.39499 73.6701 4.40157C73.7656 4.41079 73.7936 4.39198 73.8232 4.33274C74.0106 4.37938 73.9239 4.30661 74.0442 4.313C74.098 4.31582 74.1043 4.34572 74.1536 4.36753C74.1569 4.36885 74.1605 4.37035 74.1637 4.37167L74.2423 4.39123C74.3192 4.41041 74.3049 4.43975 74.3743 4.47115L74.4663 4.52268C74.5475 4.61501 74.5576 4.5223 74.5985 4.62328C74.508 4.6812 74.4905 4.63889 74.3962 4.67387L74.2022 4.74063C74.1002 4.67782 74.2568 4.73442 74.063 4.66164C73.9665 4.62554 74.0865 4.60579 73.9225 4.58548C73.8581 4.57759 73.8738 4.57289 73.8296 4.53603C73.7684 4.54976 73.7978 4.56047 73.7059 4.57984L73.71 4.69117L73.5679 4.68101C73.4396 4.65976 73.522 4.67951 73.4063 4.61068C73.3181 4.55822 73.3046 4.57044 73.2584 4.62535L73.2266 4.66672C73.2129 4.69813 73.2193 4.72333 73.199 4.74928C73.2945 4.80795 73.3425 4.8119 73.3251 4.95688C73.2447 4.96347 73.2625 4.88919 73.2063 4.88054C73.1446 4.88542 73.1682 4.88467 73.1194 4.87264L73.0271 4.86568C72.9977 4.91006 72.9929 4.95105 72.9905 5.00841L72.9786 5.11936C72.9745 5.13534 72.9713 5.14531 72.9689 5.16449C72.9387 5.15039 72.9749 5.14776 72.9431 5.15396L72.8678 5.21075C72.8375 5.22843 72.8571 5.2068 72.8337 5.23163C72.894 5.33581 72.9119 5.25795 72.9991 5.28616C73.0386 5.29895 73.0376 5.32527 73.0598 5.34709C73.1087 5.39542 73.0896 5.30421 73.1144 5.41291C73.1416 5.40426 73.1325 5.40369 73.1664 5.38357C73.1815 5.47327 73.2429 5.44732 73.3217 5.47421C73.3314 5.4776 73.3441 5.48343 73.3525 5.48756C73.3807 5.50148 73.3612 5.49001 73.3815 5.5043C73.386 5.56241 73.4233 5.72488 73.3441 5.75102C73.2625 5.75779 73.2095 5.73692 73.2046 5.80499C73.1899 6.01805 73.2881 5.93268 73.3209 6.09722L73.3374 6.22171C73.4122 6.22528 73.423 6.26233 73.4482 6.321C73.4785 6.39171 73.4924 6.3603 73.5192 6.41653C73.5192 6.41691 73.531 6.46618 73.5313 6.46825C73.6135 6.47107 73.5726 6.49758 73.6793 6.48968C73.7718 6.48291 73.7362 6.44511 73.791 6.4201L73.8218 6.50078C73.9157 6.51168 73.8857 6.53256 73.928 6.58314C74.0047 6.57957 74.0029 6.56415 74.0452 6.60364L74.0777 6.50247C74.0847 6.46843 74.0815 6.44963 74.1063 6.41559C74.127 6.3872 74.1597 6.38757 74.1974 6.39472C74.2461 6.40374 74.1929 6.39904 74.2538 6.40807C74.2832 6.41239 74.286 6.4092 74.3172 6.41559C74.3608 6.42443 74.3148 6.42349 74.3706 6.43082L74.3912 6.37215C74.3976 6.37572 74.4 6.37742 74.4017 6.38231C74.417 6.43703 74.4436 6.4092 74.5056 6.4374C74.5528 6.45922 74.5673 6.48272 74.5455 6.52579C74.608 6.5476 74.5854 6.58615 74.6328 6.61398C74.635 6.61549 74.6392 6.61681 74.642 6.61793L74.7279 6.66194L74.7367 6.76706C74.7804 6.79752 74.7956 6.82949 74.8268 6.86315C74.8457 6.88421 74.823 6.85318 74.8492 6.8859C74.8745 6.91731 74.858 6.90415 74.8741 6.92464C74.91 6.96959 74.852 6.90283 74.8965 6.94664L74.9559 7.04255C74.9572 7.04556 74.9596 7.04913 74.9612 7.05214L75.0021 7.11871C75.0307 7.15726 75.044 7.14955 75.0523 7.17983C75.0629 7.21969 75.0398 7.18265 75.0458 7.22947L75.0992 7.19656C75.1208 7.23117 75.1129 7.22703 75.1552 7.24828C75.1796 7.26031 75.2082 7.27122 75.2425 7.2746C75.2872 7.47845 75.3412 7.28777 75.4129 7.45908C75.4689 7.45965 75.6768 7.47187 75.7184 7.51155L75.7589 7.52847C75.7617 7.52208 75.7714 7.50121 75.7726 7.49669C75.7824 7.46472 75.7828 7.48879 75.781 7.43426C75.8401 7.45175 75.7971 7.44799 75.8338 7.44592L75.9589 7.43407C75.9622 7.43426 75.9763 7.44103 75.9823 7.44197C75.9817 7.37784 75.975 7.3549 76.0158 7.30676L76.0411 7.2842C76.1326 7.21894 76.1248 7.27197 76.157 7.29886C76.1592 7.30074 76.1624 7.30375 76.1648 7.30582C76.1648 7.30582 76.2011 7.32444 76.2043 7.32613C76.2084 7.36036 76.2184 7.43012 76.2174 7.46209C76.2152 7.55236 76.1646 7.54502 76.161 7.56044C76.1459 7.62325 76.1467 7.56251 76.1439 7.56307C76.1425 7.56326 76.1376 7.56345 76.1362 7.56364L76.0851 7.56796C76.0502 7.5642 76.1016 7.56702 76.0548 7.55931C76.0732 7.61742 76.0879 7.59561 76.0295 7.63096C76.0397 7.73815 76.0121 7.73777 76.0242 7.89611C76.0609 7.91868 76.0522 7.91022 76.1096 7.9057C76.1141 7.9294 76.1169 7.95328 76.1242 7.97378L76.157 8.03207C76.2094 8.10447 76.3351 8.08473 76.4056 8.08905C76.4888 8.09432 76.4308 8.11801 76.5545 8.10316C76.57 8.06197 76.5457 7.99333 76.696 8.05558C76.7568 8.08078 76.7076 8.05426 76.7538 8.08773C76.9202 8.20809 76.8293 8.21561 76.9238 8.22708L76.9359 8.3636L77.021 8.41137C77.0316 8.42228 77.0195 8.41889 77.0453 8.44465C77.0949 8.39106 77.1183 8.41927 77.1956 8.39896C77.1956 8.31904 77.1942 8.26243 77.2311 8.19812L77.3455 8.23141C77.3492 8.23253 77.3528 8.23404 77.3566 8.23498C77.5098 8.27767 77.4954 8.21072 77.4975 8.14095C77.5005 8.04373 77.5017 8.11839 77.5174 8.04918C77.4342 7.97528 77.4723 7.95516 77.3979 7.89536C77.3947 7.89291 77.3891 7.88972 77.3854 7.88633C77.4213 7.85794 77.3979 7.88126 77.4088 7.84252C77.4102 7.838 77.413 7.82183 77.4141 7.81657L77.4235 7.78742C77.4249 7.78309 77.4267 7.77689 77.4294 7.77256C77.4886 7.78911 77.5253 7.81958 77.5662 7.85587C77.6047 7.88972 77.6232 7.93128 77.676 7.96061C77.6659 8.00123 77.6228 7.99409 77.6871 8.06949C77.7227 8.11124 77.7475 8.09939 77.7832 8.15205C77.8158 8.19925 77.792 8.19511 77.8543 8.20395L77.8833 8.10109C77.8839 8.09733 77.8853 8.09319 77.8857 8.08943L77.9 8.03113C77.9202 7.93711 77.8545 7.94745 77.8444 7.88652C77.8619 7.8051 77.8658 7.85305 77.8628 7.73928C78.0038 7.69377 77.9423 7.67007 78.1293 7.71897C78.144 7.72311 78.1946 7.74229 78.2083 7.75112L78.2381 7.89122C78.2528 7.95629 78.229 7.94444 78.3028 8.00725C78.3554 8.05182 78.4356 8.04486 78.4936 8.06404C78.5943 8.09789 78.6173 8.00875 78.6945 7.95798C78.7312 7.9341 78.7662 7.91492 78.7823 7.87355C78.7894 7.85455 78.8025 7.85418 78.788 7.81186C78.767 7.75131 78.794 7.79494 78.733 7.7688C78.7358 7.76598 78.7404 7.75902 78.7422 7.76166C78.7445 7.76485 78.7523 7.75489 78.7596 7.74586C78.7827 7.71934 78.7626 7.75583 78.7807 7.71483C78.7233 7.71464 78.7142 7.70486 78.6894 7.6665C78.7078 7.60764 78.7676 7.58884 78.8085 7.55348C78.8283 7.53656 78.8561 7.45476 78.9616 7.5454C79.1132 7.67572 79.0185 7.57737 79.0783 7.67045L79.1077 7.74793C79.1972 7.75112 79.1611 7.76034 79.2588 7.75112C79.3056 7.74661 79.2461 7.74492 79.2818 7.7515C79.2846 7.75188 79.3003 7.75883 79.3042 7.75978C79.3076 7.70881 79.307 7.73345 79.3167 7.70261L79.337 7.65146C79.3596 7.58658 79.3386 7.57361 79.3555 7.51456C79.4446 7.45965 79.4299 7.53205 79.4994 7.44385C79.5641 7.36205 79.5742 7.42166 79.6979 7.32199C79.7378 7.28984 79.7063 7.31052 79.7503 7.23004C79.8037 7.133 79.852 7.11533 79.9527 7.13977C80.0047 7.15237 80.0247 7.14541 80.0869 7.14034C80.1284 7.12943 80.1292 7.05966 80.1526 7.02111C80.1861 6.96526 80.2105 6.98275 80.2165 6.89756L80.3201 6.86898C80.3319 6.8686 80.3164 6.90264 80.398 6.81821L80.4601 6.76762L80.4164 6.63523C80.4057 6.59311 80.4109 6.61756 80.4039 6.59875C80.3757 6.52316 80.4006 6.62263 80.3938 6.57506L80.4033 6.52805C80.4043 6.52522 80.4071 6.52015 80.4075 6.51545C80.3871 6.50435 80.4051 6.51244 80.3726 6.4989C80.3422 6.4863 80.3674 6.49909 80.3481 6.49006L80.336 6.37027C80.4409 6.25199 80.4367 6.33398 80.4782 6.22867L80.5681 6.30314C80.5866 6.26477 80.6009 6.26477 80.608 6.22397C80.6213 6.14912 80.6058 6.09797 80.6519 6.03817C80.697 5.97931 80.6966 5.97424 80.7869 5.96427C80.7903 5.89243 80.7764 5.88548 80.7915 5.81759C80.8095 5.73917 80.8679 5.66452 80.9477 5.63857C81.0557 5.60378 80.9795 5.65323 81.0823 5.65305L81.0917 5.76099C81.2185 5.77152 81.1822 5.84674 81.2926 5.76437C81.2755 5.68464 81.293 5.76418 81.2701 5.71191L81.2283 5.61337C81.2052 5.56448 81.2423 5.58478 81.1913 5.5562C81.2451 5.48418 81.2245 5.52085 81.2424 5.41497C81.2429 5.41103 81.2443 5.40708 81.2453 5.4035C81.2461 5.3988 81.2521 5.37473 81.2531 5.37003C81.2682 5.30797 81.2384 5.35781 81.2755 5.2982C81.2717 5.29594 81.2648 5.28917 81.264 5.29255L81.2346 5.27431C81.214 5.25494 81.2221 5.27206 81.2148 5.24272C81.2755 5.1848 81.2602 5.25908 81.2993 5.15622C81.3402 5.05016 81.349 5.08984 81.372 5.03398C81.3452 5.01725 81.3224 5.01725 81.2962 5.0464C81.2771 5.01781 81.2932 4.95049 81.2938 4.94936C81.2948 4.94541 81.3011 4.92962 81.3029 4.92473C81.2382 4.92642 81.2106 4.89972 81.1564 4.87602C81.1496 4.8418 81.1671 4.91307 81.1627 4.85665L81.1564 4.83559C81.155 4.8339 81.1522 4.83033 81.1504 4.82845C81.1256 4.79309 81.128 4.85139 81.1115 4.74025C81.0273 4.73348 81.0234 4.71449 80.942 4.71844C80.9614 4.76075 80.9727 4.77147 80.9789 4.83183L80.9426 4.8559C80.9402 4.85759 80.936 4.86004 80.9332 4.86173C80.8987 4.88543 80.9255 4.85327 80.8957 4.89163L80.9205 4.94184C80.9856 5.09228 81.0349 5.0494 81.0164 5.30139C80.9878 5.29049 80.9843 5.26529 80.9543 5.2478C80.8224 5.17032 80.8123 5.16976 80.7893 5.00578C80.7125 4.96159 80.7508 4.97042 80.7107 4.91476C80.587 4.92473 80.6261 4.97569 80.5306 4.93018C80.5141 4.9849 80.5558 4.97964 80.589 5.00935C80.5369 5.04809 80.5747 5.14644 80.5155 5.16618C80.4548 5.18668 80.3884 5.18142 80.345 5.15321C80.3422 5.15152 80.339 5.1487 80.3362 5.14644L80.3201 5.13121C80.2201 5.03662 80.258 5.14193 80.1806 5.01668L80.1436 4.97682C80.1244 4.94692 80.145 4.97607 80.1432 4.93281C80.0726 4.92905 80.0873 4.92322 80.044 4.88731L80.0007 4.85026C80.0301 4.82506 80.0297 4.83634 80.0205 4.76714C80.0104 4.69117 79.9671 4.68835 79.9618 4.61501L79.9427 4.54618C79.9759 4.52832 79.9989 4.48018 80.0217 4.47171C80.068 4.46776 80.0751 4.46852 80.1147 4.45592C80.1579 4.44238 80.1156 4.41229 80.1841 4.45723L80.208 4.39762C80.261 4.3933 80.2828 4.40063 80.3237 4.41737C80.3366 4.39367 80.3418 4.38841 80.3545 4.36622C80.3821 4.3177 80.3384 4.34685 80.4037 4.30736C80.4863 4.25677 80.5977 4.28874 80.6775 4.29683L80.8498 4.32315C80.9914 4.36189 80.9463 4.29175 80.99 4.18889C81.0746 4.1887 81.1339 4.25583 81.1417 4.10125C80.9354 3.95194 80.9809 4.08527 80.9553 4.12946C80.8637 4.12382 80.8858 4.07662 80.8014 4.05311C80.7323 4.03393 80.6958 4.00648 80.6156 4.01024C80.6019 3.91847 80.6156 3.97075 80.533 3.8613L80.4806 3.82294C80.476 3.76653 80.481 3.72271 80.4401 3.69187ZM74.7573 4.69794C74.768 4.65882 74.7579 4.67575 74.7899 4.65224C74.8258 4.62516 74.7982 4.64604 74.8328 4.63156L74.8365 4.68402L74.7573 4.69794ZM76.072 4.75736L76.0679 4.71223C76.1282 4.70753 76.2053 4.68496 76.2084 4.72784C76.2118 4.77241 76.1268 4.75285 76.072 4.75736ZM76.2283 4.71768C76.2569 4.69831 76.2487 4.70114 76.289 4.69437C76.289 4.741 76.2914 4.72276 76.2793 4.75548L76.2283 4.71768ZM75.8741 4.86399C75.8999 4.70922 76.1304 4.83691 75.8741 4.86399V4.86399ZM75.1957 4.7474C75.13 4.75266 75.0625 4.72765 74.9964 4.70414C74.9517 4.68854 74.9702 4.71486 74.9511 4.66785C74.9898 4.63776 75.0105 4.64604 75.0674 4.64171C75.1069 4.6278 75.0716 4.59263 75.1212 4.57853C75.2251 4.57006 75.2271 4.58699 75.2439 4.68929L75.2701 4.68722C75.2707 4.66334 75.2694 4.66766 75.2751 4.64491C75.2757 4.64209 75.2807 4.64021 75.2811 4.63381C75.2811 4.62742 75.286 4.62704 75.2884 4.62385C75.3339 4.63814 75.3118 4.59263 75.3317 4.68214C75.4568 4.62986 75.4534 4.57326 75.5618 4.70997C75.5926 4.74871 75.5705 4.72934 75.6019 4.74495C75.6573 4.77278 75.667 4.73517 75.6785 4.83503C75.7641 4.82807 75.7439 4.82431 75.7989 4.85515C75.7572 4.93263 75.7026 4.91777 75.6758 4.87565L75.6632 4.83634C75.48 4.83578 75.5479 4.93789 75.4032 4.8512C75.3083 4.7946 75.3613 4.83239 75.2781 4.83559C75.2151 4.83728 75.2026 4.81961 75.1957 4.7474ZM73.2822 5.07554C73.2977 5.04339 73.286 5.03944 73.3322 5.03173L73.4104 5.0133C73.4349 5.03568 73.4255 5.02797 73.4523 5.04658C73.4073 5.18386 73.4541 5.11165 73.4261 5.18405C73.3447 5.18292 73.3654 5.14493 73.3227 5.11109C73.2975 5.09115 73.2993 5.10845 73.2822 5.07554ZM75.9426 4.96403C75.9684 4.94842 75.9601 4.95105 76 4.94428L76.0041 4.98923C75.9352 4.98885 75.9797 5.00747 75.9426 4.96403ZM76.4778 4.93545L76.5922 4.94128C76.5767 4.9661 76.5743 4.9661 76.5537 4.99054C76.4904 5.06388 76.5322 5.07517 76.5221 5.16919L76.4508 5.17277L76.4028 5.06238C76.2892 5.09472 76.2257 5.0526 76.1233 4.99468L76.1151 4.90479C76.1753 4.85609 76.1963 4.83973 76.316 4.84462C76.343 4.84537 76.3895 4.85552 76.4088 4.86549L76.4497 4.89953C76.452 4.90197 76.4546 4.90555 76.4566 4.90818L76.4778 4.93545ZM77.9327 5.02816C77.9037 4.97456 77.9016 5.02703 77.87 4.97024L77.9599 4.96384L77.9969 5.00822C78.0139 5.01932 78.001 5.0212 78.035 5.01537C78.0519 5.01273 78.2154 4.91232 78.363 5.00803L78.3818 5.19101C78.3433 5.17841 78.3707 5.18631 78.3433 5.16393C78.2635 5.0998 78.3866 5.18029 78.3171 5.14023C78.2597 5.18649 78.3282 5.19063 78.248 5.20248C78.1714 5.21376 78.2426 5.18574 78.161 5.18254C78.1523 5.19533 78.1408 5.21301 78.1344 5.22392C78.112 5.26247 78.1134 5.26397 78.0715 5.28428L77.9889 5.31324C77.9057 5.17747 77.9222 5.26397 77.8615 5.20962C77.9027 5.17916 77.9041 5.18499 77.9107 5.13328C77.9186 5.06708 77.8956 5.12914 77.9327 5.02816ZM76.8958 5.10413C76.8962 4.94165 76.9464 4.98998 77.0028 4.89539L77.0171 4.91288C77.0199 4.91589 77.0276 4.92698 77.0308 4.93018C77.0693 4.97531 77.0739 4.96459 77.0878 4.97456C77.1717 5.03643 77.134 5.1156 77.1336 5.1171C77.2071 5.1218 77.1846 5.10093 77.1948 5.17897L77.1737 5.1927C77.1177 5.22486 77.1144 5.20549 77.0891 5.2698C77.0353 5.25532 77.0609 5.25908 77.004 5.24554C76.7987 5.1959 76.9428 5.22486 76.8156 5.14287C76.842 5.11015 76.836 5.11861 76.8958 5.10413ZM79.2729 4.88599C79.34 4.90987 79.2844 4.8717 79.3151 4.93996C79.335 4.98302 79.3253 4.95745 79.3473 5.00333C79.3439 5.00653 79.339 5.00935 79.3358 5.01104C79.3328 5.01255 79.3279 5.01593 79.3241 5.018C79.1702 5.10131 79.3642 5.06069 79.2181 5.09642C79.1734 5.08119 79.2048 5.09661 79.1758 5.05072C79.1228 4.96685 79.0862 5.04057 79.0936 4.96986C79.0944 4.96121 79.1202 4.92811 79.1206 4.9268C79.1579 4.85421 79.1023 4.85101 79.1813 4.8055L79.2044 4.94842C79.2742 4.9078 79.1609 4.90874 79.2729 4.88599ZM77.3673 5.0652C77.4543 4.98396 77.412 5.01687 77.489 5.00239C77.5621 4.98848 77.5253 5.0195 77.5551 4.96779C77.597 5.00183 77.5513 4.99957 77.6728 5.04828L77.683 5.13929L77.6319 5.18273C77.596 5.22109 77.6163 5.20887 77.5984 5.2352L77.5851 5.25288C77.5833 5.25532 77.5801 5.25852 77.5777 5.26077C77.5462 5.28992 77.5231 5.29293 77.4858 5.29782C77.4697 5.27018 77.5009 5.21169 77.4072 5.17239C77.3556 5.15058 77.3703 5.16412 77.2793 5.1628L77.3673 5.0652ZM79.5766 4.73592L79.6038 4.77053C79.6797 4.74758 79.6074 4.74382 79.7045 4.73367L79.7738 4.80005C79.8323 4.85496 79.7845 4.8465 79.8768 4.87094L79.9076 4.94729C79.9022 4.97907 79.9104 4.93751 79.9022 4.96986C79.9012 4.97362 79.9002 4.97757 79.8994 4.98114C79.8617 5.12143 79.7212 5.08288 79.6499 5.0684L79.586 5.06614C79.549 5.05053 79.5796 5.06351 79.5574 5.04376C79.5542 5.04075 79.5449 5.03098 79.5419 5.02778C79.4857 4.97099 79.4789 4.96328 79.4885 4.91006L79.5395 4.71825C79.5758 4.7222 79.555 4.71825 79.5766 4.73592ZM75.074 6.18993C75.0736 6.18861 75.0732 6.18335 75.0726 6.18166L75.068 6.16417C75.0466 6.12167 75.0603 6.16699 75.0281 6.12524C75.0784 6.0912 75.0575 6.12637 75.0948 6.08086C75.1234 6.11227 75.1425 6.13784 75.1459 6.18993L75.076 6.1982C75.0746 6.19557 75.074 6.19106 75.074 6.18993ZM77.2853 7.58282L77.2343 7.52998C77.2928 7.49143 77.3065 7.53261 77.2853 7.58282ZM76.5211 7.67196C76.5473 7.79701 76.5124 7.72179 76.5914 7.76335L76.6001 7.89028C76.509 7.91116 76.533 7.89968 76.459 7.93485C76.4544 7.81525 76.458 7.80848 76.35 7.79701C76.2366 7.78554 76.3063 7.75376 76.1598 7.7562L76.153 7.67233C76.2021 7.66406 76.188 7.66406 76.2118 7.69208C76.243 7.65973 76.2275 7.66725 76.2444 7.63265C76.3313 7.70618 76.243 7.59091 76.3744 7.63397C76.459 7.66199 76.4171 7.66631 76.5211 7.67196Z" fill="#F89C1C"/>
</g>
<defs>
<clipPath id="clip0_74_82">
<rect width="129" height="29" fill="white"/>
</clipPath>
</defs>
</svg>
