<svg width="54" height="46" viewBox="0 0 54 46" fill="none" xmlns="http://www.w3.org/2000/svg">
<path d="M13.296 39.2478C12.8346 39.2478 12.4704 39.6114 12.4704 40.0734C12.4704 40.5348 12.8346 40.899 13.296 40.899C13.7574 40.899 14.1336 40.5348 14.1336 40.0734C14.1336 39.612 13.7574 39.2478 13.296 39.2478Z" fill="#4976FF"/>
<path d="M53.1744 0C49.5072 0 46.2888 2.5014 45.366 6.048L44.9166 7.74781H36.0648H27.3336H18.1776H9.44637H3.75117C2.58536 7.74781 1.49216 8.28181 0.788363 9.20521C0.0719624 10.128 -0.171038 11.3178 0.120562 12.459L4.41957 28.9254C4.84437 30.5526 6.33777 31.7184 8.03817 31.7184H12.8472H19.3554H26.1678H32.6652H38.6754L37.8258 34.9722C37.6182 34.9488 37.4124 34.9242 37.206 34.9242C34.6434 34.9242 32.5308 36.8178 32.13 39.2472H18.3714C17.9706 36.8178 15.858 34.9242 13.296 34.9242C10.4664 34.9242 8.15937 37.2558 8.15937 40.0728C8.15937 42.9144 10.4664 45.2214 13.296 45.2214C15.858 45.2214 17.9712 43.3272 18.3714 40.8984H32.1294C32.5302 43.3272 34.6428 45.2214 37.2054 45.2214C40.035 45.2214 42.3426 42.9144 42.3426 40.0728C42.3426 38.0328 41.1282 36.2598 39.3918 35.4342L40.521 31.1118L40.6062 30.7962L46.9452 6.46021C47.685 3.6432 50.2476 1.6518 53.1744 1.6518C53.6364 1.6518 54 1.2876 54 0.826201C54 0.3894 53.6358 0 53.1744 0ZM13.296 43.5948C11.3772 43.5948 9.79857 42.0162 9.79857 40.0734C9.79857 38.1552 11.3772 36.576 13.296 36.576C15.2022 36.576 16.7568 38.106 16.7928 40.0008C16.7928 40.0008 16.7808 40.0488 16.7808 40.0734C16.7808 40.0974 16.7928 40.122 16.7928 40.146C16.7568 42.0408 15.2022 43.5948 13.296 43.5948ZM40.7034 40.0734C40.7034 42.0162 39.1368 43.5948 37.206 43.5948C35.2752 43.5948 33.696 42.0162 33.696 40.0734C33.696 38.1552 35.2752 36.576 37.206 36.576C39.1368 36.576 40.7034 38.1552 40.7034 40.0734ZM41.043 22.6356H34.7532L35.64 16.8312H42.5496L41.2266 21.9072L41.043 22.6356ZM2.96156 16.8312H9.87117L10.77 22.6356H4.46757L2.96156 16.8312ZM11.535 16.8312H17.7882L18.1038 22.6356H12.4206L11.535 16.8312ZM19.428 16.8312H26.0826L25.779 22.6356H19.7316L19.428 16.8312ZM27.7218 16.8312H33.9756L33.0894 22.6356H27.4062L27.7218 16.8312ZM42.9738 15.204H35.8818L36.7686 9.39961H44.4918L42.9738 15.204ZM34.2312 15.204H27.795L28.1106 9.39961H35.1054L34.2312 15.204ZM26.4708 9.39961L26.1672 15.204H19.3434L19.0398 9.39961H26.4708ZM17.4 9.39961L17.7036 15.204H11.28L10.4052 9.39961H17.4ZM2.07536 10.2252C2.47616 9.69061 3.09536 9.39901 3.75117 9.39901H8.74197L9.62817 15.2034H2.53676L1.71116 12.0462C1.54136 11.415 1.67456 10.7352 2.07536 10.2252ZM5.99757 28.5132L4.90437 24.2868H11.0124L11.8992 30.0912H8.03757C7.07877 30.0912 6.24057 29.436 5.99757 28.5132ZM12.6642 24.2874H18.177L18.4926 30.0918H13.5504L12.6642 24.2874ZM20.1204 30.0912L19.8168 24.2868H25.6818L25.3902 30.0912H20.1204ZM27.018 30.0912L27.3336 24.2868H32.8464L31.9596 30.0912H27.018ZM33.6114 30.0912L34.4976 24.2868H40.6176L39.1008 30.0912H33.6114Z" fill="#4976FF"/>
<path d="M36.3678 40.0734C36.3678 40.5348 36.7446 40.899 37.2054 40.899C37.6548 40.899 38.0316 40.5348 38.0316 40.0734C38.0316 39.6114 37.6548 39.2478 37.2054 39.2478C36.7446 39.2478 36.3678 39.612 36.3678 40.0734Z" fill="#4976FF"/>
</svg>
