<svg width="50" height="44" viewBox="0 0 50 44" fill="none" xmlns="http://www.w3.org/2000/svg">
<path d="M46.875 2.59375H3.125C2.9178 2.59375 2.71909 2.67606 2.57257 2.82257C2.42606 2.96909 2.34375 3.1678 2.34375 3.375V34.625C2.34375 34.8322 2.42606 35.0309 2.57257 35.1774C2.71909 35.3239 2.9178 35.4062 3.125 35.4062H22.6562V37.0391H9.375C9.1678 37.0391 8.96909 37.1214 8.82257 37.2679C8.67606 37.4144 8.59375 37.6131 8.59375 37.8203V40.875C8.59375 41.0822 8.67606 41.2809 8.82257 41.4274C8.96909 41.5739 9.1678 41.6562 9.375 41.6562H40.625C40.8322 41.6562 41.0309 41.5739 41.1774 41.4274C41.3239 41.2809 41.4062 41.0822 41.4062 40.875V37.8203C41.4062 37.6131 41.3239 37.4144 41.1774 37.2679C41.0309 37.1214 40.8322 37.0391 40.625 37.0391H27.3438V35.4062H46.875C47.0822 35.4062 47.2809 35.3239 47.4274 35.1774C47.5739 35.0309 47.6562 34.8322 47.6562 34.625V3.375C47.6562 3.1678 47.5739 2.96909 47.4274 2.82257C47.2809 2.67606 47.0822 2.59375 46.875 2.59375ZM3.90625 4.15625H46.0938V29.5938H3.90625V4.15625ZM39.8438 40.0938H10.1562V38.6016H39.8438V40.0938ZM25.7812 37.0391H24.2188V35.4062H25.7812V37.0391ZM46.0938 33.8438H3.90625V31.1563H46.0938V33.8438Z" fill="#F5A61C"/>
<path d="M34.375 21.4062C33.8019 21.4068 33.2441 21.5917 32.7841 21.9335C32.3241 22.2754 31.9862 22.7561 31.8203 23.3047H21.875C21.7002 22.7286 21.3371 22.2279 20.8437 21.8828L21.3516 20.3203H32.6562C32.8326 20.3263 33.0059 20.2725 33.1477 20.1675C33.2896 20.0625 33.3917 19.9126 33.4375 19.7422L35.625 11.8359C35.6583 11.7174 35.6632 11.5927 35.6391 11.4719C35.6151 11.3512 35.5629 11.2378 35.4867 11.1411C35.4106 11.0444 35.3126 10.967 35.2009 10.9153C35.0891 10.8637 34.9668 10.8391 34.8437 10.8437H21.5625C21.3553 10.8437 21.1566 10.926 21.0101 11.0725C20.8636 11.2191 20.7812 11.4178 20.7812 11.625C20.7812 11.8322 20.8636 12.0309 21.0101 12.1774C21.1566 12.3239 21.3553 12.4062 21.5625 12.4062H33.8125L32.0312 18.7343H21.4062L18.5234 8.28903C18.4777 8.11859 18.3755 7.96868 18.2337 7.8637C18.0918 7.75872 17.9186 7.70487 17.7422 7.71091H13.7656C13.5584 7.71091 13.3597 7.79322 13.2132 7.93973C13.0667 8.08624 12.9844 8.28496 12.9844 8.49216C12.9844 8.69936 13.0667 8.89807 13.2132 9.04459C13.3597 9.1911 13.5584 9.27341 13.7656 9.27341H17.1875L20 19.4922L19.3828 21.4062C18.8815 21.3911 18.3859 21.5165 17.9521 21.7683C17.5184 22.0202 17.1637 22.3884 16.9284 22.8313C16.693 23.2742 16.5863 23.7742 16.6202 24.2746C16.6542 24.775 16.8276 25.2559 17.1207 25.6629C17.4138 26.07 17.8149 26.3868 18.2787 26.5777C18.7426 26.7686 19.2505 26.8259 19.7452 26.7431C20.2399 26.6603 20.7016 26.4407 21.0779 26.1092C21.4543 25.7777 21.7304 25.3474 21.875 24.8672H31.7812C31.9256 25.3406 32.1982 25.7649 32.569 26.0928C32.9397 26.4208 33.394 26.6396 33.8816 26.7251C34.3691 26.8106 34.8708 26.7594 35.331 26.5772C35.7912 26.395 36.192 26.0889 36.4888 25.6928C36.7856 25.2967 36.967 24.8261 37.0127 24.3333C37.0584 23.8404 36.9667 23.3445 36.7478 22.9006C36.5289 22.4566 36.1913 22.082 35.7725 21.8182C35.3537 21.5545 34.8699 21.4119 34.375 21.4062ZM19.3437 25.25C19.1794 25.2526 19.0165 25.2191 18.8665 25.152C18.7165 25.0849 18.583 24.9858 18.4755 24.8615C18.3679 24.7373 18.2889 24.591 18.2439 24.4329C18.1989 24.2748 18.1891 24.1089 18.2152 23.9466C18.2413 23.7843 18.3026 23.6298 18.3948 23.4938C18.4871 23.3577 18.608 23.2436 18.749 23.1593C18.8901 23.075 19.048 23.0227 19.2114 23.006C19.3749 22.9892 19.5401 23.0085 19.6953 23.0625C19.9214 23.1338 20.119 23.2751 20.2594 23.4661C20.3999 23.6572 20.4759 23.8879 20.4766 24.125C20.4745 24.4241 20.3542 24.7102 20.142 24.9209C19.9298 25.1317 19.6428 25.25 19.3437 25.25ZM34.375 25.25C34.2199 25.2629 34.0638 25.2436 33.9166 25.1931C33.7694 25.1426 33.6342 25.0622 33.5197 24.9568C33.4051 24.8515 33.3137 24.7235 33.2512 24.581C33.1886 24.4384 33.1563 24.2845 33.1563 24.1289C33.1563 23.9732 33.1886 23.8193 33.2512 23.6768C33.3137 23.5343 33.4051 23.4063 33.5197 23.3009C33.6342 23.1956 33.7694 23.1151 33.9166 23.0646C34.0638 23.0142 34.2199 22.9948 34.375 23.0078C34.6562 23.0313 34.9183 23.1596 35.1093 23.3672C35.3003 23.5749 35.4063 23.8467 35.4063 24.1289C35.4063 24.411 35.3003 24.6829 35.1093 24.8905C34.9183 25.0982 34.6562 25.2265 34.375 25.25Z" fill="#FFECCC"/>
</svg>
