<svg width="50" height="51" viewBox="0 0 50 51" fill="none" xmlns="http://www.w3.org/2000/svg">
<path d="M43.502 28.1114V14.2631C43.502 11.0372 40.8752 8.41037 37.6262 8.41037C34.3773 8.41037 31.7505 11.0372 31.7505 14.2631V28.8027C31.7505 30.5078 30.3449 31.9364 28.6398 31.9364C26.9117 31.9364 25.5291 30.5078 25.5291 28.8027V22.8117C25.5291 20.6688 23.801 18.9406 21.6811 18.9406C19.5612 18.9406 17.81 20.6688 17.81 22.8117V38.5725C17.81 41.6602 15.2984 44.1717 12.2108 44.1717C9.12313 44.1717 6.61154 41.6602 6.61154 38.5725V35.8305C6.98022 35.6462 7.37193 35.3236 7.74061 34.7014C8.15537 33.9871 8.47796 32.9502 8.70838 31.4986C9.14618 28.987 9.23835 23.1112 9.30747 19.2171C9.33051 17.8116 9.35356 16.7055 9.3766 16.0604C9.44573 14.4013 9.49181 13.3414 9.51485 13.1801C10.6209 12.3967 11.3352 11.4059 11.5886 10.2307C11.9804 8.52559 11.4043 6.49788 9.88353 4.23975C8.36275 1.95858 6.42721 0.276505 6.35808 0.207379C6.05853 -0.0691264 5.64378 -0.0691264 5.36727 0.207379C5.18293 0.345632 1.3349 3.75587 0.274962 7.37348C-0.439344 9.76986 0.25192 11.7515 2.18746 13.1801C2.18746 13.1801 2.23354 14.2861 2.32571 16.0373V16.0604C2.34875 16.6825 2.37179 17.8116 2.39484 19.2171C2.44092 23.1112 2.55613 28.987 2.99393 31.4986C3.22435 32.9502 3.54694 33.9871 3.9617 34.7014C4.33038 35.3236 4.72209 35.6462 5.09076 35.8305V38.5725C5.09076 42.4897 8.29362 45.6925 12.2108 45.6925C16.1279 45.6925 19.3308 42.4897 19.3308 38.5725V22.8117C19.3308 21.4983 20.3677 20.4614 21.6811 20.4614C22.9714 20.4614 24.0083 21.4983 24.0083 22.8117V28.8027C24.0083 31.3603 26.0821 33.4341 28.6398 33.4341C31.1975 33.4341 33.2713 31.3603 33.2713 28.8027V14.2631C33.2713 11.8667 35.2299 9.93115 37.6262 9.93115C40.0226 9.93115 41.9812 11.8897 41.9812 14.2631V28.1114C38.3405 28.4801 35.4603 31.5907 35.4603 35.3466V42.7431C35.4603 46.7525 38.7323 50.0244 42.7416 50.0244C46.7509 50.0244 49.9999 46.7294 49.9999 42.7431V35.3466C50.0229 31.5907 47.1657 28.4801 43.502 28.1114ZM7.44106 14.77C7.30281 14.747 7.1876 14.7239 7.04935 14.7239C7.0263 14.7009 7.00326 14.7009 6.95718 14.7009C6.95718 14.7009 6.93413 14.7009 6.91109 14.7009C6.7498 14.6778 6.61154 14.6548 6.47329 14.6548H6.45025C6.21983 14.6548 6.01245 14.6317 5.85115 14.6317C5.7129 14.6317 5.52856 14.6317 5.34423 14.6548C5.2751 14.6548 5.20598 14.6548 5.11381 14.6548C5.02164 14.6778 4.90643 14.6778 4.79122 14.6778C4.67601 14.7009 4.5608 14.7239 4.44559 14.747C4.37646 14.747 4.30733 14.77 4.26125 14.77C4.09995 14.793 3.9617 14.8161 3.84649 14.8622C3.84649 14.8622 3.80041 14.8622 3.77736 14.8622C3.75432 14.1248 3.73128 13.5949 3.70824 13.3183C4.42254 12.9036 7.27977 12.9036 7.99407 13.3183C7.99407 13.5949 7.97103 14.1248 7.92495 14.8391C7.9019 14.8391 7.87886 14.8391 7.83278 14.8391C7.69452 14.8161 7.57931 14.793 7.44106 14.77ZM1.72662 7.81128C2.46396 5.34577 4.81426 2.81114 5.85115 1.79729C6.49633 2.41942 7.67148 3.64066 8.63925 5.09231C9.88353 6.95872 10.4135 8.6408 10.1139 9.90811C9.92961 10.7146 9.44573 11.3828 8.61621 11.9819C7.76365 11.5671 6.54242 11.498 5.85115 11.498C5.18293 11.498 3.93866 11.5671 3.0861 11.9819C1.63445 10.945 1.19665 9.60856 1.72662 7.81128ZM3.89257 19.1941C3.86953 18.042 3.86953 17.0742 3.84649 16.429C4.09995 16.3369 4.49167 16.2217 5.02164 16.1756C5.09076 16.1756 5.15989 16.1756 5.22902 16.1756C5.62073 16.1525 6.01245 16.1525 6.40417 16.1525C6.54242 16.1756 6.65763 16.1756 6.79588 16.1986C7.32585 16.2447 7.67148 16.3369 7.85582 16.429C7.83278 17.0742 7.83278 18.042 7.80973 19.1941C7.71757 23.0421 7.6254 28.8257 7.21064 31.2451C7.00326 32.4894 6.72676 33.388 6.42721 33.9641C6.26591 34.1945 6.08158 34.4941 5.85115 34.4941C5.64378 34.4941 5.41335 34.1945 5.2751 33.9641C4.95251 33.388 4.69905 32.4894 4.46863 31.2451C4.07691 28.8257 3.9617 23.0421 3.89257 19.1941ZM42.7416 29.5861C45.8753 29.5861 48.456 32.1207 48.5021 35.2544C45.2532 38.273 40.23 38.273 36.9811 35.2544C37.0271 32.1438 39.5848 29.5861 42.7416 29.5861ZM42.7416 48.5037C39.5618 48.5037 36.9811 45.946 36.9811 42.7431V37.213C38.7092 38.4343 40.7369 39.0564 42.7416 39.0564C44.7463 39.0564 46.774 38.4343 48.5021 37.213V42.7431C48.5021 45.946 45.9214 48.5037 42.7416 48.5037Z" fill="#4976FF"/>
</svg>
