<svg width="46" height="46" viewBox="0 0 46 46" fill="none" xmlns="http://www.w3.org/2000/svg">
<path d="M46 40.5602C46 40.4984 45.9586 40.4156 45.9382 40.3333C45.9382 40.3124 45.9382 40.3124 45.9172 40.2919C45.9172 40.271 45.9172 40.2505 45.9172 40.2505L42.4422 34.0247V14.1476C42.4422 12.5345 41.1184 11.2107 39.5053 11.2107H38.5127V6.49469V0.703289C38.5127 0.309733 38.182 0 37.8094 0H8.19056C7.797 0 7.48727 0.309733 7.48727 0.703289V6.49469V11.2107H6.49469C4.86067 11.2107 3.53689 12.5345 3.53689 14.1476V34.0247L0.0828001 40.25C0.0828001 40.25 0.0827999 40.2704 0.0618444 40.2914C0.0618444 40.3118 0.0618444 40.3118 0.0618444 40.3328C0.0204444 40.4156 0 40.4984 0 40.5602V40.5812V42.6701C0 44.2004 1.24098 45.4623 2.7922 45.4623H43.2078C44.7381 45.4623 46 44.2004 46 42.6701V40.5812V40.5602ZM8.87289 7.19798H37.1056V29.4323H8.87289V7.19798ZM8.87289 1.38562H37.1056V5.81184H8.87289V1.38562ZM4.92251 14.1476C4.92251 13.2996 5.6258 12.5963 6.49469 12.5963H7.48727V30.1356C7.48727 30.5292 7.797 30.8389 8.19056 30.8389H37.8089C38.1815 30.8389 38.5122 30.5292 38.5122 30.1356V12.5963H39.5048C40.3732 12.5963 41.056 13.2996 41.056 14.1476V33.5074H4.92251V14.1476ZM4.65367 34.893H41.3463L44.0976 39.8779H1.88242L4.65367 34.893ZM44.5934 42.6701C44.5934 43.4352 43.9729 44.0557 43.2078 44.0557H2.7922C2.00611 44.0557 1.38562 43.4352 1.38562 42.6701V41.2845H44.5934V42.6701Z" fill="#5E5F5F"/>
<path d="M34.3965 3.10251C34.2514 3.22671 34.1895 3.41276 34.1895 3.5988C34.1895 3.78485 34.2514 3.95045 34.3756 4.0956C34.5202 4.21929 34.7062 4.28165 34.8928 4.28165C35.0794 4.28165 35.2654 4.21929 35.3686 4.0956C35.5133 3.95045 35.5757 3.78536 35.5757 3.5988C35.5757 3.41225 35.5133 3.2262 35.3686 3.10251C35.1202 2.83367 34.6444 2.83367 34.3965 3.10251Z" fill="#5E5F5F"/>
<path d="M31.6869 2.89539C31.2939 2.89539 30.9836 3.20563 30.9836 3.59867C30.9836 3.99172 31.2939 4.28152 31.6869 4.28152C32.0805 4.28152 32.3902 3.99172 32.3902 3.59867C32.3902 3.20614 32.0805 2.89539 31.6869 2.89539Z" fill="#5E5F5F"/>
<path d="M28.0051 3.10251C27.8604 3.22671 27.7776 3.41276 27.7776 3.5988C27.7776 3.7644 27.8604 3.95045 28.0051 4.0956C28.1083 4.21929 28.2944 4.28165 28.4809 4.28165C28.6675 4.28165 28.8535 4.21929 28.9777 4.0956C29.1014 3.95045 29.1842 3.78536 29.1842 3.5988C29.1842 3.41225 29.1014 3.2262 28.9777 3.10251C28.7288 2.83367 28.253 2.83367 28.0051 3.10251Z" fill="#5E5F5F"/>
<path d="M25.2961 12.7205C24.9445 12.5963 24.5305 12.7824 24.4068 13.134L20.2699 24.1791C20.1457 24.5308 20.3317 24.9443 20.6839 25.0685C20.7661 25.1094 20.8489 25.1094 20.9317 25.1094C21.221 25.1094 21.4904 24.9443 21.5936 24.6545L25.7096 13.6094C25.8338 13.2582 25.6687 12.8652 25.2961 12.7205Z" fill="#5E5F5F"/>
<path d="M17.6642 14.6439C17.4158 14.3541 16.9814 14.3132 16.6711 14.5611L12.1003 18.3668C11.9347 18.491 11.8314 18.6975 11.8314 18.9045C11.8314 19.111 11.9347 19.2976 12.1003 19.4422L16.6711 23.2479C16.8163 23.3512 16.9609 23.3926 17.126 23.3926C17.3121 23.3926 17.5191 23.3098 17.6642 23.1447C17.8917 22.8554 17.8707 22.421 17.5605 22.1726L13.6305 18.9045L17.5605 15.6365C17.8707 15.3886 17.8912 14.9337 17.6642 14.6439Z" fill="#5E5F5F"/>
<path d="M29.3293 14.5615C29.0191 14.3131 28.5846 14.3545 28.3367 14.6443C28.0888 14.9341 28.1302 15.389 28.4195 15.6369L32.349 18.905L28.4195 22.173C28.1302 22.4214 28.0888 22.8559 28.3367 23.1451C28.4814 23.3102 28.6674 23.393 28.8744 23.393C29.04 23.393 29.1847 23.3516 29.3298 23.2484L33.8802 19.4427C34.0453 19.298 34.1491 19.112 34.1491 18.905C34.1491 18.698 34.0453 18.491 33.8802 18.3673L29.3293 14.5615Z" fill="#5E5F5F"/>
</svg>
