<svg width="50" height="50" viewBox="0 0 50 50" fill="none" xmlns="http://www.w3.org/2000/svg">
<path d="M46.0938 1.5625H3.90625C3.28487 1.56321 2.68914 1.81037 2.24975 2.24975C1.81037 2.68914 1.56321 3.28487 1.5625 3.90625V37.5C1.56321 38.1214 1.81037 38.7171 2.24975 39.1565C2.68914 39.5959 3.28487 39.843 3.90625 39.8438H19.2896L17.372 46.875H15.625V48.4375H34.375V46.875H32.628L30.7104 39.8438H46.0938C46.7151 39.843 47.3109 39.5959 47.7502 39.1565C48.1896 38.7171 48.4368 38.1214 48.4375 37.5V3.90625C48.4368 3.28487 48.1896 2.68914 47.7502 2.24975C47.3109 1.81037 46.7151 1.56321 46.0938 1.5625ZM31.0084 46.875H18.9916L20.9092 39.8438H29.0908L31.0084 46.875ZM46.875 37.5C46.8748 37.7071 46.7924 37.9057 46.6459 38.0522C46.4995 38.1986 46.3009 38.281 46.0938 38.2812H3.90625C3.69912 38.281 3.50055 38.1986 3.35408 38.0522C3.20762 37.9057 3.12524 37.7071 3.125 37.5V34.375H46.875V37.5ZM17.2423 26.985L18.3912 25.836L20.7421 26.7712L23.1888 25.7574L24.1875 23.4375H25.8125L26.8112 25.7574L29.2579 26.7712L31.6088 25.836L32.7578 26.985L31.8225 29.3358L32.8364 31.7826L35.1562 32.7813V32.8125H31.1994C31.0095 31.3022 30.2749 29.9133 29.1334 28.9063C27.9919 27.8994 26.5221 27.3437 25 27.3437C23.4779 27.3437 22.0081 27.8994 20.8666 28.9063C19.7251 29.9133 18.9905 31.3022 18.8006 32.8125H14.8438V32.7813L17.1636 31.7826L18.1775 29.3358L17.2423 26.985ZM29.6211 32.8125H20.3789C20.5633 31.7203 21.1286 30.7287 21.9745 30.0136C22.8205 29.2986 23.8923 28.9062 25 28.9062C26.1077 28.9062 27.1795 29.2986 28.0255 30.0136C28.8714 30.7287 29.4367 31.7203 29.6211 32.8125ZM46.875 32.8125H36.7188V31.7529L34.037 30.5984L33.5089 29.3238L34.5897 26.6071L31.9866 24.0042L29.2699 25.0849L27.9954 24.5567L26.8409 21.875H23.1591L22.0046 24.5567L20.7301 25.0849L18.0135 24.0042L15.4104 26.6071L16.4911 29.3238L15.963 30.5984L13.2812 31.7529V32.8125H3.125V3.90625C3.12524 3.69912 3.20762 3.50055 3.35408 3.35408C3.50055 3.20762 3.69912 3.12524 3.90625 3.125H46.0938C46.3009 3.12524 46.4995 3.20762 46.6459 3.35408C46.7924 3.50055 46.8748 3.69912 46.875 3.90625V32.8125Z" fill="#F5A61C"/>
<path d="M42.9688 13.2813C42.9688 11.5816 42.4647 9.92006 41.5204 8.50682C40.5762 7.09359 39.234 5.9921 37.6637 5.34166C36.0934 4.69122 34.3655 4.52104 32.6984 4.85263C31.0314 5.18422 29.5002 6.0027 28.2983 7.20456C27.0964 8.40641 26.278 9.93767 25.9464 11.6047C25.6148 13.2717 25.785 14.9996 26.4354 16.5699C27.0859 18.1402 28.1873 19.4824 29.6006 20.4267C31.0138 21.371 32.6753 21.875 34.375 21.875H35.1563V14.0625H42.9688V13.2813ZM33.5938 20.2694C32.3438 20.1306 31.1541 19.6588 30.1487 18.9033C29.1434 18.1477 28.3592 17.1362 27.8781 15.9743C27.397 14.8123 27.2367 13.5425 27.4137 12.2975C27.5908 11.0524 28.0988 9.87768 28.8848 8.89593L33.5938 13.6049V20.2694ZM34.6986 12.5L29.9897 7.79105C30.9714 7.00509 32.1462 6.49707 33.3912 6.31999C34.6363 6.14292 35.9061 6.3033 37.068 6.78438C38.23 7.26546 39.2415 8.04961 39.997 9.05498C40.7525 10.0604 41.2243 11.2501 41.3631 12.5H34.6986Z" fill="#FFECCC"/>
<path d="M36.7188 23.4375H37.5977C39.4359 23.4354 41.1983 22.7042 42.4981 21.4044C43.798 20.1045 44.5292 18.3422 44.5312 16.5039V15.625H36.7188V23.4375ZM38.2812 17.1875H42.9255C42.7724 18.3656 42.2339 19.46 41.3938 20.3C40.5537 21.1401 39.4594 21.6786 38.2812 21.8317V17.1875Z" fill="#FFECCC"/>
<path d="M21.875 4.6875H7.8125C7.19112 4.68821 6.59539 4.93537 6.156 5.37475C5.71662 5.81414 5.46946 6.40987 5.46875 7.03125V17.9688C5.46946 18.5901 5.71662 19.1859 6.156 19.6252C6.59539 20.0646 7.19112 20.3118 7.8125 20.3125H21.875C22.4964 20.3118 23.0921 20.0646 23.5315 19.6252C23.9709 19.1859 24.218 18.5901 24.2188 17.9688V7.03125C24.218 6.40987 23.9709 5.81414 23.5315 5.37475C23.0921 4.93537 22.4964 4.68821 21.875 4.6875ZM22.6562 17.9688C22.656 18.1759 22.5736 18.3745 22.4272 18.5209C22.2807 18.6674 22.0821 18.7498 21.875 18.75H7.8125C7.60537 18.7498 7.4068 18.6674 7.26033 18.5209C7.11387 18.3745 7.03149 18.1759 7.03125 17.9688V9.375H22.6562V17.9688ZM22.6562 7.8125H7.03125V7.03125C7.03149 6.82412 7.11387 6.62555 7.26033 6.47908C7.4068 6.33262 7.60537 6.25024 7.8125 6.25H21.875C22.0821 6.25024 22.2807 6.33262 22.4272 6.47908C22.5736 6.62555 22.656 6.82412 22.6562 7.03125V7.8125Z" fill="#FFECCC"/>
<path d="M5.46875 22.6562H14.8438V24.2188H5.46875V22.6562Z" fill="#FFECCC"/>
<path d="M5.46875 25.7812H12.5V27.3438H5.46875V25.7812Z" fill="#FFECCC"/>
<path d="M5.46875 28.9062H12.5V30.4688H5.46875V28.9062Z" fill="#FFECCC"/>
<path d="M36.7188 25.7812H44.5312V27.3438H36.7188V25.7812Z" fill="#FFECCC"/>
<path d="M36.7188 28.9062H44.5312V30.4688H36.7188V28.9062Z" fill="#FFECCC"/>
<path d="M12.2712 15.8538L10.4798 14.0625L12.2712 12.2711L11.1663 11.1663L8.27022 14.0625L11.1663 16.9586L12.2712 15.8538Z" fill="#FFECCC"/>
<path d="M13.326 16.1177L14.8868 12.2135L16.3368 12.7931L14.776 16.6974L13.326 16.1177Z" fill="#FFECCC"/>
<path d="M18.5212 16.9586L21.4173 14.0625L18.5212 11.1663L17.4163 12.2711L19.2077 14.0625L17.4163 15.8538L18.5212 16.9586Z" fill="#FFECCC"/>
</svg>
