<svg width="50" height="50" viewBox="0 0 50 50" fill="none" xmlns="http://www.w3.org/2000/svg">
<path d="M46.0938 11.7188H44.5312V10.9375H45.3125C45.9341 10.9375 46.5302 10.6906 46.9698 10.251C47.4093 9.8115 47.6562 9.21536 47.6562 8.59376C47.6562 7.97216 47.4093 7.37602 46.9698 6.93648C46.5302 6.49694 45.9341 6.25001 45.3125 6.25001H44.5312V2.34376C44.5324 2.22145 44.5038 2.10068 44.448 1.99182C44.3923 1.88297 44.3109 1.78927 44.2109 1.71876C44.1142 1.64549 44.0015 1.596 43.8821 1.57429C43.7627 1.55257 43.6398 1.55924 43.5234 1.59376L33.4766 4.68751H28.125C27.9178 4.68751 27.7191 4.76982 27.5726 4.91633C27.4261 5.06285 27.3438 5.26156 27.3438 5.46876V6.25001H25.7812C25.574 6.25001 25.3753 6.33232 25.2288 6.47883C25.0823 6.62535 25 6.82406 25 7.03126V10.1563C25 10.3635 25.0823 10.5622 25.2288 10.7087C25.3753 10.8552 25.574 10.9375 25.7812 10.9375H27.3438V11.7188H22.6562V4.68751C22.6562 4.48031 22.5739 4.2816 22.4274 4.13508C22.2809 3.98857 22.0822 3.90626 21.875 3.90626H6.25C6.0428 3.90626 5.84409 3.98857 5.69757 4.13508C5.55106 4.2816 5.46875 4.48031 5.46875 4.68751V11.7188H3.90625C3.28522 11.7206 2.69015 11.9681 2.25102 12.4073C1.81188 12.8464 1.56435 13.4415 1.5625 14.0625V39.0625C1.56435 39.6835 1.81188 40.2786 2.25102 40.7177C2.69015 41.1569 3.28522 41.4044 3.90625 41.4063H21.875V43.75H17.1875C16.9803 43.75 16.7816 43.8323 16.6351 43.9788C16.4886 44.1253 16.4062 44.3241 16.4062 44.5313V47.6563C16.4062 47.8635 16.4886 48.0622 16.6351 48.2087C16.7816 48.3552 16.9803 48.4375 17.1875 48.4375H32.8125C33.0197 48.4375 33.2184 48.3552 33.3649 48.2087C33.5114 48.0622 33.5938 47.8635 33.5938 47.6563V44.5313C33.5938 44.3241 33.5114 44.1253 33.3649 43.9788C33.2184 43.8323 33.0197 43.75 32.8125 43.75H28.125V41.4063H46.0938C46.7148 41.4044 47.3098 41.1569 47.749 40.7177C48.1881 40.2786 48.4356 39.6835 48.4375 39.0625V14.0625C48.4356 13.4415 48.1881 12.8464 47.749 12.4073C47.3098 11.9681 46.7148 11.7206 46.0938 11.7188ZM44.5312 7.81251H45.3125C45.5197 7.81251 45.7184 7.89482 45.8649 8.04133C46.0114 8.18785 46.0938 8.38656 46.0938 8.59376C46.0938 8.80096 46.0114 8.99967 45.8649 9.14619C45.7184 9.2927 45.5197 9.37501 45.3125 9.37501H44.5312V7.81251ZM34.375 6.04689L42.9688 3.39845V13.7891L34.375 11.1406V6.04689ZM28.9062 6.25001H32.8125V10.9375H28.9062V6.25001ZM31.1328 12.5L30.5703 16.4063H29.6875V12.5H31.1328ZM26.5625 9.37501V7.81251H27.3438V9.37501H26.5625ZM7.03125 5.46876H21.0938V16.4063H7.03125V5.46876ZM32.0312 45.3125V46.875H17.9688V45.3125H32.0312ZM23.4375 43.75V41.4063H26.5625V43.75H23.4375ZM46.875 39.0625C46.875 39.2697 46.7927 39.4684 46.6462 39.6149C46.4997 39.7615 46.3009 39.8438 46.0938 39.8438H3.90625C3.69905 39.8438 3.50034 39.7615 3.35382 39.6149C3.20731 39.4684 3.125 39.2697 3.125 39.0625V38.2813H46.875V39.0625ZM46.875 36.7188H3.125V14.0625C3.125 13.8553 3.20731 13.6566 3.35382 13.5101C3.50034 13.3636 3.69905 13.2813 3.90625 13.2813H5.46875V17.1875C5.46875 17.3947 5.55106 17.5934 5.69757 17.7399C5.84409 17.8865 6.0428 17.9688 6.25 17.9688H21.875C22.0822 17.9688 22.2809 17.8865 22.4274 17.7399C22.5739 17.5934 22.6562 17.3947 22.6562 17.1875V13.2813H28.125V17.1875C28.125 17.3947 28.2073 17.5934 28.3538 17.7399C28.5003 17.8865 28.699 17.9688 28.9062 17.9688H31.25C31.4382 17.9687 31.6201 17.9007 31.7622 17.7773C31.9043 17.6539 31.9971 17.4833 32.0234 17.2969L32.7109 12.5H33.4766L43.5234 15.5938C43.5968 15.6161 43.6733 15.6267 43.75 15.625C43.9563 15.622 44.1532 15.5387 44.2991 15.3928C44.4449 15.247 44.5282 15.05 44.5312 14.8438V13.2813H46.0938C46.3009 13.2813 46.4997 13.3636 46.6462 13.5101C46.7927 13.6566 46.875 13.8553 46.875 14.0625V36.7188Z" fill="#F5A61C"/>
<path d="M5.46875 35.1562H25.7812C25.9885 35.1562 26.1872 35.0739 26.3337 34.9274C26.4802 34.7809 26.5625 34.5822 26.5625 34.375V21.875C26.5625 21.6678 26.4802 21.4691 26.3337 21.3226C26.1872 21.1761 25.9885 21.0938 25.7812 21.0938H5.46875C5.26155 21.0938 5.06284 21.1761 4.91632 21.3226C4.76981 21.4691 4.6875 21.6678 4.6875 21.875V34.375C4.6875 34.5822 4.76981 34.7809 4.91632 34.9274C5.06284 35.0739 5.26155 35.1562 5.46875 35.1562ZM6.25 33.5938V23.2727L15.2156 28.7906C15.3387 28.8664 15.4805 28.9065 15.625 28.9065C15.7695 28.9065 15.9113 28.8664 16.0344 28.7906L25 23.2727V33.5938H6.25ZM8.22891 22.6562H23.0211L15.625 27.2078L8.22891 22.6562Z" fill="#FFECCC"/>
<path d="M28.9062 30.4688H30.4688V32.8125C30.4688 33.0197 30.5511 33.2184 30.6976 33.3649C30.8441 33.5114 31.0428 33.5938 31.25 33.5938H44.5312C44.7385 33.5938 44.9372 33.5114 45.0837 33.3649C45.2302 33.2184 45.3125 33.0197 45.3125 32.8125V23.4375C45.3125 23.2303 45.2302 23.0316 45.0837 22.8851C44.9372 22.7386 44.7385 22.6562 44.5312 22.6562H43.75V20.3125C43.75 20.1053 43.6677 19.9066 43.5212 19.7601C43.3747 19.6136 43.176 19.5312 42.9688 19.5312H28.9062C28.699 19.5312 28.5003 19.6136 28.3538 19.7601C28.2073 19.9066 28.125 20.1053 28.125 20.3125V29.6875C28.125 29.8947 28.2073 30.0934 28.3538 30.2399C28.5003 30.3864 28.699 30.4688 28.9062 30.4688ZM43.75 32.0312H32.0312V24.2188H43.75V32.0312ZM29.6875 21.0938H42.1875V22.6562H31.25C31.0428 22.6562 30.8441 22.7386 30.6976 22.8851C30.5511 23.0316 30.4688 23.2303 30.4688 23.4375V28.9062H29.6875V21.0938Z" fill="#FFECCC"/>
<path d="M33.5938 25.7812H35.1562V27.3438H33.5938V25.7812Z" fill="#FFECCC"/>
<path d="M36.7188 25.7812H42.1875V27.3438H36.7188V25.7812Z" fill="#FFECCC"/>
<path d="M33.5938 28.9062H36.7188V30.4688H33.5938V28.9062Z" fill="#FFECCC"/>
<path d="M38.2812 28.9062H42.1875V30.4688H38.2812V28.9062Z" fill="#FFECCC"/>
<path d="M12.0891 13.9461C12.2023 14.0161 12.3316 14.0561 12.4647 14.0621C12.5977 14.0681 12.7301 14.04 12.8492 13.9805L17.5367 11.6367C17.6667 11.5719 17.7761 11.4722 17.8525 11.3487C17.929 11.2251 17.9695 11.0828 17.9695 10.9375C17.9695 10.7922 17.929 10.6499 17.8525 10.5263C17.7761 10.4028 17.6667 10.3031 17.5367 10.2383L12.8492 7.89453C12.7301 7.835 12.5977 7.80691 12.4647 7.81293C12.3316 7.81896 12.2023 7.8589 12.089 7.92896C11.9758 7.99902 11.8823 8.09687 11.8175 8.21322C11.7527 8.32957 11.7187 8.46056 11.7188 8.59375V13.2812C11.7187 13.4144 11.7527 13.5454 11.8175 13.6618C11.8823 13.7782 11.9758 13.876 12.0891 13.9461ZM13.2813 9.85781L15.4406 10.9375L13.2813 12.0172V9.85781Z" fill="#F5A61C"/>
</svg>
