<svg width="50" height="50" viewBox="0 0 50 50" fill="none" xmlns="http://www.w3.org/2000/svg">
<path d="M46.2018 0H3.7877C1.69705 0 0.000526178 1.70862 0.000526178 3.79875V8.34105V29.9475C0.000526178 30.3506 0.336778 30.6889 0.753541 30.6889C1.17925 30.6889 1.51813 30.3506 1.51813 29.9475V9.10564H48.4719V46.2244C48.4719 47.4605 47.461 48.4945 46.2018 48.4945H3.7877C2.52847 48.4945 1.51761 47.461 1.51761 46.2244V45.8424C1.51761 45.4372 1.17925 45.0778 0.753015 45.0778C0.336252 45.0778 0 45.4372 0 45.8424V46.2244C0 48.2919 1.69652 50 3.78718 50H46.2012C48.2919 50 49.9905 48.2919 49.9905 46.2244V8.34105V3.79875C49.9911 1.70862 48.2919 0 46.2018 0ZM48.4713 7.59961H1.51761V3.79875C1.51761 2.53952 2.52847 1.52866 3.7877 1.52866H46.2018C47.461 1.52866 48.4719 2.53952 48.4719 3.79875V7.59961H48.4713Z" fill="#4976FF"/>
<path d="M44.728 4.02449C44.5828 4.15814 44.5049 4.36074 44.5049 4.54018C44.5049 4.76592 44.5833 4.94536 44.728 5.08113C44.8638 5.23794 45.0548 5.30424 45.2574 5.30424C45.46 5.30424 45.651 5.23741 45.7846 5.08113C45.932 4.94536 46.022 4.74277 46.022 4.54018C46.022 4.36074 45.932 4.15814 45.7846 4.02449C45.5152 3.73191 44.9995 3.73191 44.728 4.02449Z" fill="#4976FF"/>
<path d="M41.086 3.79871C40.6714 3.79871 40.333 4.13706 40.333 4.54014C40.333 4.96848 40.6714 5.30474 41.086 5.30474C41.5144 5.30474 41.8506 4.96848 41.8506 4.54014C41.8506 4.13706 41.5144 3.79871 41.086 3.79871Z" fill="#4976FF"/>
<path d="M36.3878 4.02449C36.2542 4.15814 36.1758 4.36074 36.1758 4.54018C36.1758 4.74277 36.2542 4.94536 36.3878 5.08113C36.5236 5.23794 36.7262 5.30424 36.9288 5.30424C37.1314 5.30424 37.3224 5.23741 37.4676 5.08113C37.6034 4.94536 37.6818 4.74277 37.6818 4.54018C37.6818 4.36074 37.6034 4.15814 37.4676 4.02449C37.1751 3.73191 36.6688 3.73191 36.3878 4.02449Z" fill="#4976FF"/>
<path d="M0.472992 42.7619C0.562975 42.8055 0.664009 42.8055 0.753992 42.8055C0.956585 42.8055 1.1476 42.7387 1.29284 42.5824L13.4553 30.42C14.0399 29.8354 15.0071 29.8354 15.6033 30.42L21.8537 36.6914C22.4267 37.2534 23.1913 37.5686 24.0017 37.5686C24.81 37.5686 25.574 37.2534 26.136 36.6914L39.4477 23.3824L41.9641 25.9008C42.1782 26.1034 42.505 26.1703 42.7976 26.0577C43.0786 25.924 43.258 25.6525 43.258 25.3599V15.8512C43.258 15.4228 42.9197 15.0845 42.505 15.0845H33.0058C32.7016 15.0845 32.4211 15.2871 32.2964 15.5586C32.1838 15.8512 32.2528 16.1643 32.4643 16.3895L34.9712 18.8853L25.0678 28.8008C24.4948 29.3628 23.4955 29.3628 22.9219 28.8008L16.6715 22.5273C15.4907 21.3575 13.5679 21.3575 12.3892 22.5273L0.224092 34.7129C0.0793828 34.8465 0.000976562 35.0286 0.000976562 35.2286V42.0641C0.000976562 42.3567 0.191993 42.6256 0.472992 42.7619ZM1.51806 35.5443L13.4553 23.6071C14.0399 23.0224 15.0071 23.0224 15.6033 23.6071L21.8537 29.8554C22.4267 30.44 23.1913 30.7557 24.0017 30.7557C24.81 30.7557 25.574 30.4405 26.136 29.8554L36.5788 19.4242C36.8714 19.1316 36.8714 18.6596 36.5788 18.3444L34.827 16.6152H41.7404V23.5171L39.986 21.7627C39.6935 21.4701 39.2104 21.4701 38.9178 21.7627L25.0678 35.6106C24.4948 36.1747 23.4955 36.1747 22.9219 35.6106L16.6715 29.3628C15.4907 28.1704 13.5679 28.1704 12.3892 29.3628L1.51806 40.2202V35.5443Z" fill="#4976FF"/>
</svg>
