<svg width="151" height="23" viewBox="0 0 151 23" fill="none" xmlns="http://www.w3.org/2000/svg">
<path d="M14.1893 17.6747C14.6145 16.8872 14.7059 15.4823 14.722 13.6586H9.19043V13.6709C7.34968 13.6709 6.0741 13.9802 5.32436 14.6363C4.67 15.2081 4.34762 16.1969 4.34762 17.5972C4.34762 18.3062 4.27423 18.5555 4.30458 18.5801C4.43681 18.6749 5.0952 18.6872 6.15678 18.6872H10.9996C12.9252 18.6872 13.8422 18.3355 14.1893 17.6747ZM2.17675 0.00628662L11.5524 0.0241359C14.5965 0.0241359 16.5141 1.07848 17.7079 2.92559C18.763 4.56927 19.0674 6.68381 19.0674 9.18549V12.5153C19.0674 15.4949 19.0216 17.8298 18.0077 19.7C16.851 21.8684 14.8133 23 10.9996 23H6.15678C4.238 23 2.90822 22.8754 1.79213 22.0832C0.510975 21.1843 0 19.8551 0 17.5978C0 14.9053 0.810747 12.8502 2.47622 11.396C4.04692 10.0263 6.27756 9.35229 9.19043 9.35229V9.35876H14.7288V9.18549C14.7288 7.42917 14.573 6.04031 14.0574 5.23585C13.6855 4.65267 12.9187 4.32553 11.5527 4.31815L2.17706 4.30676V0.00628662H2.17675Z" fill="#F5A61C"/>
<path d="M96.9886 17.6747C97.4132 16.8872 97.4983 15.4823 97.516 13.6586H91.9944V13.6709C90.161 13.6709 88.8777 13.9802 88.1348 14.6363C87.4696 15.2081 87.1398 16.1969 87.1398 17.5971C87.1398 18.3062 87.0673 18.5555 87.098 18.5801C87.2358 18.6749 87.888 18.6872 88.9499 18.6872H93.7936C95.7238 18.6872 96.6346 18.3354 96.9886 17.6747ZM84.9702 0.0062561L94.3445 0.0241054C97.402 0.0241054 99.3084 1.07845 100.507 2.92556C101.555 4.56924 101.873 6.68378 101.873 9.18546V12.5153C101.873 15.4949 101.814 17.8298 100.807 19.7C99.6429 21.8684 97.6058 23 93.7936 23H88.9499C87.032 23 85.7007 22.8753 84.5865 22.0832C83.3146 21.1843 82.7931 19.8551 82.7931 17.5978C82.7931 14.9053 83.6144 12.8501 85.2808 11.396C86.8635 10.0262 89.0942 9.35226 91.994 9.35226V9.35872H97.5206V9.18546C97.5206 7.42914 97.372 6.04028 96.8492 5.23582C96.4785 4.65264 95.7115 4.3255 94.3445 4.31812L84.9702 4.30673V0.0062561Z" fill="#F5A61C"/>
<path d="M21.7662 18.6152L28.167 18.6275C30.398 18.6275 32.2861 18.4837 33.6115 17.8409C34.6359 17.3408 35.3436 16.4477 35.6245 14.8566L35.6901 14.5295C35.8651 13.5992 35.4445 13.6475 32.0408 13.6527C29.9303 13.6586 33.3471 13.6586 30.6618 13.6586V13.6527L28.8876 13.6472C28.5203 13.6472 28.1562 13.6527 27.8034 13.6582C26.7542 13.6706 25.8305 13.6819 25.0027 13.5401C22.3174 13.0628 20.9818 11.6277 21.778 7.21277C22.3533 4.04388 23.8516 2.19678 26.0404 1.13689C27.9276 0.219189 30.2784 0.00530342 32.9745 0.0166901L38.9703 0.0283846V4.3304L32.9745 4.31716C30.7467 4.30578 28.8582 4.46181 27.5331 5.09885C26.5022 5.59894 25.8001 6.49879 25.5136 8.07662C25.3446 9.00017 25.4053 9.26206 25.5784 9.28668C26.1054 9.38116 26.8797 9.36885 27.7607 9.35746C28.1088 9.351 28.4798 9.34577 28.8879 9.34577L30.6621 9.35746V9.34577C34.3309 9.34577 30.7875 9.35746 32.0411 9.35069C37.5082 9.33346 40.6122 8.88076 39.4249 15.3859L39.3651 15.7195C38.7894 18.8995 37.2902 20.7469 35.1101 21.801C33.2161 22.7122 30.8597 22.9335 28.1676 22.9221L21.7662 22.9101V18.6152Z" fill="#F5A61C"/>
<path d="M63.6784 18.6635L70.0795 18.6749C72.3101 18.6872 74.1803 18.5265 75.4862 17.8769C76.5175 17.3645 77.213 16.4529 77.5063 14.8566C77.6389 14.1239 77.4719 13.8688 77.057 13.7894C76.2245 13.6475 74.9957 13.6475 73.5089 13.653C73.1968 13.653 72.8973 13.653 72.5684 13.653L70.7871 13.6475C70.4279 13.6475 70.0572 13.653 69.7076 13.6586C68.6528 13.6709 67.7296 13.6823 66.8913 13.5404C64.2058 13.0631 62.863 11.6225 63.6613 7.21311C64.2364 4.04422 65.7282 2.18573 67.9105 1.12615C69.8036 0.208142 72.1541 -0.0054354 74.8579 0.000104072L80.8518 0.0117985V4.31781L74.8579 4.30089C72.6273 4.29504 70.7456 4.45014 69.4202 5.09303C68.3902 5.59312 67.677 6.49975 67.3946 8.07757C67.227 8.99558 67.2868 9.25625 67.4732 9.28764C68 9.38211 68.7792 9.3698 69.6605 9.35842C70.0197 9.35196 70.3864 9.34672 70.7874 9.34672L72.5687 9.35165C72.8979 9.35165 73.1971 9.35165 73.5092 9.35165C75.1636 9.35165 76.5178 9.34672 77.6392 9.54245C80.7022 10.0906 81.9843 11.5862 81.2423 15.7205C80.6666 18.8894 79.1913 20.7479 77.0102 21.8207C75.1273 22.7492 72.7768 22.987 70.0798 22.976L63.6787 22.9637V18.6635H63.6784Z" fill="#F5A61C"/>
<path d="M145.068 9.58435H150.056V11.5382H145.068V17.5849C145.068 18.241 145.117 18.7759 145.218 19.2107C145.32 19.6274 145.476 19.9736 145.68 20.2118C145.878 20.4559 146.129 20.6294 146.435 20.7242C146.735 20.8319 147.095 20.8793 147.496 20.8793C148.21 20.8793 148.78 20.8027 149.204 20.6411C149.636 20.4796 149.936 20.3669 150.109 20.3017L150.559 22.2368C150.332 22.3559 149.912 22.5052 149.325 22.6784C148.737 22.8569 148.054 22.9459 147.299 22.9459C146.399 22.9459 145.667 22.8326 145.08 22.6061C144.505 22.3814 144.033 22.0346 143.678 21.5881C143.318 21.1289 143.073 20.5697 142.929 19.9142C142.791 19.2464 142.714 18.4838 142.714 17.6086V5.93908L145.069 5.53469V9.58435H145.068ZM138.451 3.14011C139.146 3.14011 139.747 3.18719 140.243 3.2949C140.741 3.39031 141.087 3.48478 141.292 3.56818L140.868 5.58178C140.657 5.48145 140.37 5.39067 139.996 5.29065C139.632 5.20017 139.176 5.1537 138.631 5.1537C137.54 5.1537 136.767 5.45037 136.329 6.04679C135.892 6.64166 135.669 7.44581 135.669 8.44722V9.58435H140.742V11.5382H135.669V22.6661H133.319V8.40445C133.319 6.72568 133.728 5.42668 134.555 4.50897C135.387 3.59188 136.689 3.14011 138.451 3.14011ZM127.77 16.1252C127.77 14.6477 127.441 13.4811 126.772 12.6175C126.103 11.7531 125.197 11.3247 124.053 11.3247C122.902 11.3247 121.99 11.7531 121.331 12.6175C120.66 13.4814 120.325 14.648 120.325 16.1252C120.325 17.6024 120.66 18.7703 121.331 19.6277C121.99 20.4974 122.902 20.9323 124.053 20.9323C125.197 20.9323 126.103 20.4974 126.772 19.6277C127.441 18.7703 127.77 17.6027 127.77 16.1252ZM130.227 16.1252C130.227 17.1623 130.071 18.104 129.771 18.9433C129.466 19.7828 129.04 20.4974 128.488 21.1052C127.949 21.7139 127.289 22.178 126.535 22.5052C125.773 22.8323 124.94 22.9994 124.053 22.9994C123.153 22.9994 122.327 22.8323 121.565 22.5052C120.803 22.178 120.155 21.7139 119.605 21.1052C119.059 20.4971 118.633 19.7825 118.329 18.9433C118.022 18.1037 117.866 17.1623 117.866 16.1252C117.866 15.1014 118.022 14.171 118.329 13.3195C118.633 12.4686 119.059 11.7487 119.605 11.1453C120.155 10.5384 120.803 10.0731 121.565 9.74592C122.327 9.41817 123.153 9.25629 124.053 9.25629C124.939 9.25629 125.773 9.41817 126.535 9.74592C127.289 10.0731 127.949 10.5384 128.488 11.1453C129.039 11.7484 129.466 12.4686 129.771 13.3195C130.071 14.1713 130.227 15.1014 130.227 16.1252ZM110.601 20.9861C111.56 20.9861 112.279 20.8556 112.748 20.6042C113.204 20.3555 113.442 19.9502 113.442 19.3954C113.442 18.8297 113.209 18.377 112.759 18.0379C112.304 17.704 111.549 17.3221 110.505 16.9063C109.997 16.7084 109.51 16.5004 109.043 16.2926C108.581 16.0781 108.18 15.8273 107.845 15.5534C107.509 15.2678 107.232 14.9219 107.029 14.5176C106.825 14.1132 106.729 13.6242 106.729 13.0284C106.729 11.8722 107.161 10.9554 108.024 10.2765C108.881 9.59574 110.05 9.25629 111.542 9.25629C111.914 9.25629 112.287 9.27445 112.658 9.32246C113.03 9.35846 113.372 9.4114 113.687 9.47725C114.017 9.53111 114.294 9.59081 114.54 9.65606C114.785 9.72776 114.972 9.78623 115.108 9.83486L114.677 11.8485C114.425 11.717 114.03 11.5752 113.491 11.4382C112.951 11.289 112.304 11.217 111.542 11.217C110.877 11.217 110.313 11.3474 109.816 11.6115C109.331 11.8666 109.08 12.2778 109.08 12.8249C109.08 13.1105 109.139 13.3675 109.248 13.5878C109.356 13.8023 109.529 14.0045 109.75 14.171C109.984 14.3498 110.26 14.5172 110.601 14.6653C110.937 14.8145 111.345 14.9755 111.812 15.1481C112.448 15.3811 113 15.6134 113.491 15.8384C113.975 16.0661 114.402 16.328 114.737 16.625C115.086 16.9352 115.349 17.2925 115.541 17.7224C115.721 18.1508 115.817 18.6746 115.817 19.2944C115.817 20.4968 115.36 21.4148 114.462 22.034C113.564 22.6532 112.273 22.9699 110.601 22.9699C109.439 22.9699 108.527 22.8741 107.868 22.6778C107.209 22.4876 106.765 22.3384 106.525 22.2362L106.957 20.23C107.226 20.3303 107.652 20.474 108.252 20.6762C108.838 20.8796 109.625 20.9861 110.601 20.9861Z" fill="white"/>
<path d="M47.2776 5.32019C46.8524 6.11788 46.7623 7.53044 46.7393 9.35877H52.5536V9.34708C54.3507 9.34708 55.5501 9.03717 56.2215 8.41706C56.8446 7.84527 57.1208 6.83277 57.1208 5.40913C57.1208 4.70039 57.1927 4.4505 57.1626 4.42711C57.0369 4.33171 56.377 4.31847 55.3172 4.31847H50.4676C48.5426 4.31816 47.6306 4.67054 47.2776 5.32019ZM60.3155 22.9997L49.9219 22.9763C46.8644 22.9763 44.9528 21.9278 43.7531 20.0739C42.7104 18.4367 42.3926 16.3231 42.3926 13.8205V10.491C42.3926 7.51197 42.4459 5.17617 43.4589 3.30629C44.6155 1.13759 46.6601 0.000457764 50.467 0.000457764H55.3166C57.2273 0.000457764 58.5652 0.132174 59.6732 0.923086C60.9568 1.82325 61.4721 3.15149 61.4721 5.40882C61.4721 8.06531 60.7531 10.1149 59.1755 11.5687C57.6652 12.9687 55.4897 13.6589 52.553 13.6589V13.6531L46.7387 13.6589V13.8205C46.7387 15.5777 46.8939 16.9602 47.4095 17.7692C47.7861 18.3533 48.5538 18.6749 49.9216 18.6749L60.3152 18.6872V22.9997H60.3155Z" fill="#F5A61C"/>
</svg>
