<svg width="50" height="50" viewBox="0 0 50 50" fill="none" xmlns="http://www.w3.org/2000/svg">
<g clip-path="url(#clip0_3719_1309)">
<path d="M44.8491 27.1033L43.4547 26.5633L44.1741 31.0616L47.7052 28.1827L46.2658 27.6427C49.1675 17.9261 46.648 7.48997 39.5408 0.224416C39.2486 -0.0678066 38.7758 -0.0678066 38.4836 0.224416C38.1691 0.516638 38.1469 0.989416 38.4613 1.28108C45.1186 8.11997 47.548 17.9716 44.8491 27.1033Z" fill="#FFECCC"/>
<path d="M30.7239 43.5227C22.0194 47.5489 11.9433 46.5594 4.22885 40.9583L5.19552 39.8116L0.742188 39.0244L2.29385 43.2755L3.23885 42.1283C8.09663 45.6594 13.8322 47.4816 19.6127 47.4816C23.5939 47.4816 27.5977 46.6272 31.3539 44.8955C31.7133 44.7155 31.8939 44.2655 31.7133 43.8833C31.5561 43.5 31.1061 43.3427 30.7239 43.5227Z" fill="#FFECCC"/>
<path d="M48.4478 40.4189L40.0128 31.9839C39.7211 31.6917 39.2483 31.6917 38.9561 31.9839L38.0117 32.9061L35.8522 30.7467C41.1378 23.0317 40.1928 12.3928 33.5356 5.75833C29.8244 2.04722 24.8761 0 19.6356 0C14.395 0 9.44667 2.04722 5.75833 5.75833C2.02444 9.46944 0 14.4178 0 19.6583C0 24.8994 2.02444 29.8472 5.75778 33.5589C9.51389 37.3378 14.5972 39.2717 19.6806 39.2717C23.5267 39.2717 27.3956 38.1472 30.7239 35.8756L32.8833 38.035L31.9617 38.9572C31.8267 39.1144 31.7594 39.2944 31.7594 39.4972C31.7594 39.7 31.8267 39.8794 31.9617 40.0372L40.4189 48.4722C41.43 49.505 42.78 50 44.1294 50C45.4789 50 46.8283 49.505 47.8633 48.4711L48.4483 47.8861C49.4372 46.8967 50 45.5467 50 44.1528C50 42.7578 49.4372 41.4306 48.4478 40.4189ZM33.9628 36.9778L31.3539 34.3461C31.0844 34.0989 30.6794 34.0761 30.3644 34.2789C23.2344 39.5422 13.0906 38.755 6.815 32.4794C3.37389 29.0611 1.48444 24.495 1.48444 19.6589C1.48444 14.8233 3.37333 10.2572 6.815 6.81611C10.2339 3.39722 14.7772 1.50778 19.6356 1.50778C24.4711 1.50778 29.0372 3.39667 32.4561 6.81611C38.7311 13.1139 39.5183 23.2356 34.2778 30.3883C34.0528 30.68 34.0756 31.1078 34.345 31.3778L36.9539 33.9867L35.4467 35.4711L33.9628 36.9778ZM36.5267 36.55L38.5739 34.5256V34.5028L39.4739 33.6033L41.8806 36.01L35.9872 41.9033L33.5806 39.4967L36.5267 36.55ZM47.3683 46.8067L46.7833 47.3917C45.3211 48.8761 42.9372 48.8761 41.475 47.3917L37.0439 42.9828L42.9589 37.09L47.3678 41.4989C48.0878 42.2183 48.4694 43.1406 48.4694 44.1528C48.47 45.1422 48.0883 46.0867 47.3683 46.8067Z" fill="#FFECCC"/>
<path d="M9.49137 9.51438C3.91303 15.0922 3.91303 24.2022 9.49137 29.8027C11.313 31.6016 13.4947 32.8388 15.7891 33.4688C15.8564 33.4916 15.9464 33.5138 16.0364 33.5138C17.2058 33.8283 18.4203 33.9866 19.6353 33.9866C20.8503 33.9866 22.0641 33.8288 23.2564 33.5138C23.3241 33.5138 23.4141 33.4916 23.4814 33.4688C25.798 32.8388 27.9803 31.6022 29.7791 29.8027C35.3797 24.2022 35.3797 15.0922 29.7791 9.51438C24.2014 3.91383 15.0691 3.91383 9.49137 9.51438ZM16.8686 32.1644V24.8316C16.8686 24.5616 16.7114 24.3138 16.5086 24.1788C14.6869 23.0544 13.6069 21.1422 13.6069 19.0283C13.6069 17.1388 14.5069 15.3616 15.9691 14.2149V20.1077C15.9691 20.3772 16.1264 20.6249 16.3286 20.7599C18.3753 21.9744 20.8947 21.9744 22.9408 20.7599C23.143 20.6249 23.3008 20.3777 23.3008 20.1077V14.2155C24.7625 15.3622 25.6847 17.1394 25.6847 19.0288C25.6847 21.1427 24.5825 23.0544 22.7603 24.1794C22.5586 24.3144 22.4008 24.5616 22.4008 24.8322V32.1644C20.5797 32.5688 18.6908 32.5688 16.8686 32.1644ZM28.6991 28.7227C27.3047 30.1172 25.6853 31.1066 23.9086 31.7366V25.2366C25.978 23.8194 27.1925 21.5249 27.1925 19.0288C27.1925 16.1266 25.5053 13.4505 22.8514 12.1905C22.6269 12.0783 22.3564 12.101 22.1319 12.2355C21.9069 12.3705 21.7947 12.6177 21.7947 12.8883V19.6583C20.4447 20.311 18.848 20.311 17.4764 19.6583V12.8883C17.4764 12.6183 17.3641 12.3705 17.1391 12.2355C16.9147 12.101 16.6441 12.0783 16.4197 12.1905C13.7658 13.4505 12.0786 16.1266 12.0786 19.0288C12.0786 21.5249 13.2936 23.8194 15.3625 25.2366V31.7366C13.608 31.1066 11.9664 30.1172 10.5719 28.7227C5.55526 23.7294 5.55526 15.5872 10.5708 10.5938C13.0669 8.07494 16.3508 6.81494 19.6347 6.81494C22.9186 6.81494 26.2025 8.07494 28.6986 10.5938C33.7153 15.5872 33.7153 23.7294 28.6991 28.7227Z" fill="#FFECCC"/>
</g>
<defs>
<clipPath id="clip0_3719_1309">
<rect width="50" height="50" fill="white"/>
</clipPath>
</defs>
</svg>
