<svg width="46" height="44" viewBox="0 0 46 44" fill="none" xmlns="http://www.w3.org/2000/svg">
<path d="M45.1438 0H31.258C30.8654 0 30.5573 0.310146 30.5573 0.700757C30.5573 1.07252 30.8654 1.38063 31.258 1.38063H44.4538V5.11359H29.8137C29.4741 2.22755 27.0311 0 24.0625 0H21.7739C18.8033 0 16.3603 2.22755 16.0206 5.11359H1.38063V1.38063H14.5764C14.969 1.38063 15.2771 1.07252 15.2771 0.700757C15.2771 0.310146 14.969 0 14.5764 0H0.690572C0.310146 0 0 0.310656 0 0.701266V5.79398V13.403C0 15.2379 0.650339 16.9287 1.73152 18.2482V36.3716C1.73152 39.0509 3.91884 41.2362 6.59812 41.2362H7.48476C7.80356 42.8027 9.20558 44 10.8862 44H11.5768C13.2573 44 14.6594 42.8027 14.9802 41.2362H18.5568H18.5675H27.2684C27.2791 41.2362 27.2791 41.2362 27.2791 41.2362H30.8557C31.1766 42.8027 32.5786 44 34.2592 44H34.9497C36.6303 44 38.0324 42.8027 38.3512 41.2362H39.8352C42.187 41.2362 44.1044 39.3193 44.1044 36.9481V18.2482C45.1856 16.9287 45.8359 15.2374 45.8359 13.403V5.79347V0.700757C45.8344 0.310655 45.5263 0 45.1438 0ZM11.5762 42.6189H10.8857C9.97968 42.6189 9.20507 42.0403 8.91785 41.2362H13.5456C13.2568 42.0403 12.4843 42.6189 11.5762 42.6189ZM34.9487 42.6189H34.2582C33.3501 42.6189 32.5776 42.0403 32.2883 41.2362H36.916C36.6293 42.0403 35.8542 42.6189 34.9487 42.6189ZM21.7739 1.38114H24.0625C26.2585 1.38114 28.0822 3.01132 28.4224 5.1141H17.412C17.7517 3.01081 19.5784 1.38114 21.7739 1.38114ZM3.12489 36.3716V19.5468C4.39144 20.4946 5.94778 21.0522 7.63907 21.0522H13.9999C13.8965 21.5885 13.8354 22.1436 13.8354 22.7221C13.8354 25.7732 15.3408 28.5767 17.8657 30.268V39.8342H6.59761C4.68071 39.8342 3.12489 38.2676 3.12489 36.3716ZM20.0301 21.0522H25.8048V23.649C23.9892 24.5968 21.8462 24.5968 20.0301 23.649V21.0522ZM26.8559 24.6604C27.0606 24.5357 27.1956 24.3101 27.1956 24.0631V16.3293C29.2984 17.7522 30.6077 20.1656 30.6077 22.7221C30.6077 25.4223 29.2271 27.876 26.9068 29.278C26.7021 29.4028 26.5773 29.6284 26.5773 29.8754V39.8342H23.6088V29.607C23.6088 29.2373 23.2986 28.9062 22.9182 28.9062C22.5363 28.9062 22.2256 29.2378 22.2256 29.607V39.8342H19.2571V29.8754C19.2571 29.6284 19.1348 29.4023 18.9276 29.278C16.6073 27.876 15.2267 25.4228 15.2267 22.7221C15.2267 20.1656 16.5355 17.7522 18.6388 16.3293V24.0625C18.6388 24.3095 18.7738 24.5357 18.9785 24.6599C21.4128 26.1022 24.4323 26.1022 26.8559 24.6604ZM39.8342 39.8342H27.9687V30.268C30.4936 28.5767 31.999 25.7732 31.999 22.7221C31.999 22.1436 31.9379 21.5885 31.8345 21.0522H38.1958C39.8871 21.0522 41.443 20.4951 42.7121 19.5468V36.9481C42.7115 38.5569 41.4216 39.8342 39.8342 39.8342ZM44.4538 13.403C44.4538 16.8467 41.6497 19.6502 38.1958 19.6502H31.4541C30.6495 17.4441 28.9903 15.5669 26.7922 14.5158C26.5768 14.4124 26.3298 14.4333 26.1231 14.558C25.9265 14.6802 25.8043 14.9084 25.8043 15.1554V19.6502H20.0301V15.1554C20.0301 14.9084 19.9079 14.6802 19.7113 14.558C19.5046 14.4333 19.2576 14.4124 19.0422 14.5158C16.8462 15.5674 15.1849 17.4441 14.3823 19.6502H7.63856C4.18468 19.6502 1.38063 16.8462 1.38063 13.403V6.49473H16.6705H29.1654H44.4533V13.403H44.4538Z" fill="#5E5F5F"/>
<path d="M41.9899 3.73293C42.1229 3.60816 42.1947 3.42279 42.1947 3.25778C42.1947 3.0719 42.1229 2.88601 41.9899 2.76379C41.7323 2.4954 41.2678 2.4954 41.0101 2.76379C40.8752 2.88601 40.8033 3.0719 40.8033 3.25778C40.8033 3.42228 40.8752 3.60816 41.0101 3.73293C41.1323 3.87655 41.308 3.93766 41.5041 3.93766C41.6793 3.93766 41.8652 3.87655 41.9899 3.73293Z" fill="#5E5F5F"/>
<path d="M38.7213 3.25789C38.7213 2.86524 38.4111 2.55713 38.0307 2.55713C37.6381 2.55713 37.33 2.86524 37.33 3.25789C37.33 3.62965 37.6381 3.93776 38.0307 3.93776C38.4111 3.93776 38.7213 3.62965 38.7213 3.25789Z" fill="#5E5F5F"/>
<path d="M35.0412 3.73293C35.1741 3.60816 35.2459 3.42279 35.2459 3.25778C35.2459 3.0719 35.1741 2.88601 35.0412 2.76379C34.7835 2.4954 34.3084 2.4954 34.0614 2.76379C33.9264 2.88601 33.8546 3.0719 33.8546 3.25778C33.8546 3.42228 33.9264 3.60816 34.0614 3.73293C34.1836 3.87655 34.3695 3.93766 34.5554 3.93766C34.7413 3.93766 34.9164 3.87655 35.0412 3.73293Z" fill="#5E5F5F"/>
</svg>
