<svg width="40" height="50" viewBox="0 0 40 50" fill="none" xmlns="http://www.w3.org/2000/svg">
<path d="M7.92795 45.2098C7.68137 45.569 7.75976 46.018 8.08472 46.2875C8.23214 46.3773 8.38891 46.4235 8.53634 46.4235C8.77149 46.4235 9.00872 46.3108 9.15355 46.1078C9.4022 45.7715 9.32174 45.2996 8.98536 45.0504C8.64639 44.8044 8.17452 44.8708 7.92795 45.2098Z" fill="#5E5F5F"/>
<path d="M8.47818 15.9681C8.63703 15.9681 8.7938 15.9245 8.9298 15.8113C9.26618 15.5647 9.34457 15.0903 9.08657 14.7539C8.84934 14.4154 8.36554 14.3485 8.02916 14.5971C7.69071 14.8437 7.62374 15.3156 7.87239 15.6545C8.01774 15.8549 8.25497 15.9681 8.47818 15.9681Z" fill="#5E5F5F"/>
<path d="M14.0218 47.6162C13.6304 47.4802 13.2016 47.706 13.0661 48.0886C12.9442 48.4914 13.1559 48.9202 13.5614 49.0557C13.6304 49.0765 13.7202 49.0765 13.7872 49.0765C14.1142 49.0765 14.4044 48.8969 14.5056 48.5813C14.6411 48.1784 14.4158 47.7502 14.0218 47.6162Z" fill="#5E5F5F"/>
<path d="M1.44864 35.5363C1.05723 35.6723 0.831425 36.1006 0.96743 36.5039C1.06658 36.8195 1.37025 37.022 1.68587 37.022C1.76425 37.022 1.84264 37.022 1.9231 36.9758C2.3145 36.8652 2.52889 36.4369 2.4069 36.0315C2.28232 35.6261 1.84264 35.4024 1.44864 35.5363Z" fill="#5E5F5F"/>
<path d="M1.50644 30.4526C1.50644 30.0264 1.1794 29.688 0.753218 29.688C0.336379 29.688 0 30.0264 0 30.4526C0 30.8809 0.336379 31.2173 0.764639 31.1965C1.1794 31.1965 1.51786 30.858 1.50644 30.4526Z" fill="#5E5F5F"/>
<path d="M3.92449 40.8907C3.57461 41.1373 3.50765 41.6092 3.75422 41.9482C3.91307 42.1485 4.1368 42.2612 4.36209 42.2612C4.51886 42.2612 4.67771 42.2176 4.81112 42.1044C5.16099 41.8786 5.22796 41.3834 4.98138 41.047C4.73325 40.7091 4.26087 40.6421 3.92449 40.8907Z" fill="#5E5F5F"/>
<path d="M4.31826 20.1298C4.55341 20.1298 4.79064 20.0171 4.93547 19.8142C5.18412 19.4778 5.10366 19.0059 4.76728 18.7567C4.42883 18.5102 3.95645 18.5771 3.70987 18.9363C3.46122 19.2748 3.54168 19.7472 3.87806 19.9938C4.01458 20.0836 4.17083 20.1298 4.31826 20.1298Z" fill="#5E5F5F"/>
<path d="M1.42816 25.3488C1.50654 25.3695 1.58493 25.3924 1.66331 25.3924C1.97893 25.3924 2.28312 25.1899 2.38435 24.8743C2.51776 24.4715 2.29454 24.0427 1.88912 23.9093C1.49512 23.7733 1.06686 23.9991 0.944875 24.4019C0.820291 24.7845 1.03416 25.2361 1.42816 25.3488Z" fill="#5E5F5F"/>
<path d="M34.2216 41.0246C33.9636 41.3839 34.042 41.8583 34.3898 42.1049C34.5258 42.1947 34.6706 42.2409 34.8294 42.2409C35.0646 42.2409 35.2899 42.1283 35.4467 41.9253C35.6839 41.5868 35.6148 41.1145 35.267 40.8679C34.94 40.6192 34.4588 40.6883 34.2216 41.0246Z" fill="#5E5F5F"/>
<path d="M34.7828 20.04C34.9396 20.04 35.0984 20.0171 35.2319 19.904C35.5589 19.6574 35.6373 19.1622 35.4021 18.8466H35.3907C35.1535 18.5102 34.6697 18.4204 34.3452 18.667C33.9954 18.9156 33.9284 19.4088 34.1656 19.7472C34.3224 19.9502 34.5482 20.04 34.7828 20.04Z" fill="#5E5F5F"/>
<path d="M19.6001 48.4915C19.1853 48.4915 18.8469 48.8299 18.8469 49.2561C18.8469 49.6615 19.1853 50 19.6001 50C20.0283 50 20.3533 49.6615 20.3533 49.2561C20.3533 48.8299 20.0169 48.4915 19.6001 48.4915Z" fill="#5E5F5F"/>
<path d="M38.415 29.5775C38.0003 29.5775 37.6618 29.9139 37.6618 30.3422C37.6618 30.3629 37.6618 30.3629 37.6618 30.3858C37.6618 30.4086 37.6618 30.4086 37.6618 30.4086C37.6618 30.8348 38.0003 31.1732 38.415 31.1732C38.8433 31.1732 39.1682 30.8348 39.1682 30.4086V30.3858C39.1682 30.3629 39.1682 30.3422 39.1682 30.3422C39.1682 29.9139 38.8319 29.5775 38.415 29.5775Z" fill="#5E5F5F"/>
<path d="M37.7402 35.5155C37.3373 35.3795 36.9086 35.6053 36.7726 35.9879C36.6506 36.3907 36.8624 36.8195 37.2678 36.955C37.3462 36.9758 37.4266 36.9758 37.4936 36.9758C37.8186 36.9758 38.1222 36.7754 38.2235 36.4598C38.36 36.0544 38.1342 35.6261 37.7402 35.5155Z" fill="#5E5F5F"/>
<path d="M37.4821 25.2798C37.5605 25.2798 37.6389 25.259 37.7193 25.2362C38.1107 25.1236 38.3365 24.6948 38.2005 24.292C38.1912 24.292 38.1912 24.292 38.1912 24.292C38.0666 23.8865 37.6383 23.6607 37.2443 23.7967C36.8415 23.9301 36.6271 24.3589 36.7605 24.7638C36.8628 25.0774 37.1665 25.2798 37.4821 25.2798Z" fill="#5E5F5F"/>
<path d="M25.19 47.5934C24.7846 47.7269 24.5728 48.1556 24.6947 48.5605C24.8074 48.8736 25.1002 49.0765 25.4272 49.0765C25.5056 49.0765 25.5725 49.0765 25.6504 49.0558C26.0558 48.8969 26.2702 48.4915 26.1456 48.0887C26.0216 47.6832 25.584 47.4803 25.19 47.5934Z" fill="#5E5F5F"/>
<path d="M30.2181 45.0276C29.8796 45.2762 29.8012 45.7486 30.0592 46.085C30.1952 46.2874 30.4298 46.4006 30.6671 46.4006C30.8238 46.4006 30.9713 46.357 31.1047 46.2672C31.4546 46.0185 31.5329 45.5233 31.2749 45.1869C31.0382 44.848 30.5544 44.781 30.2181 45.0276Z" fill="#5E5F5F"/>
<path d="M30.6005 15.8784C30.8471 15.8784 31.0729 15.7886 31.2177 15.5861C31.4664 15.2497 31.388 14.7779 31.0495 14.5287C30.7131 14.2821 30.2387 14.3491 29.9921 14.6876C29.7455 15.0239 29.8239 15.5192 30.1603 15.745C30.2963 15.855 30.4531 15.8784 30.6005 15.8784Z" fill="#5E5F5F"/>
<path d="M27.0582 20.7382C28.7323 5.68885 20.4225 0.359219 19.9942 0.0898048C19.9392 0.0669643 19.893 0.0436046 19.8489 0.0436046C19.8146 0.0207641 19.7705 0 19.7362 0C19.69 0 19.6464 0 19.5888 0C19.5452 0 19.4876 0 19.4435 0C19.4087 0 19.3765 0.0207641 19.3422 0.0207641C19.296 0.0436046 19.241 0.0436046 19.1855 0.0898048C18.7572 0.359219 10.436 5.68885 12.1215 20.7382C4.36196 27.0811 7.02703 35.4693 7.06129 35.5362C7.13968 35.8082 7.36549 36.0086 7.6349 36.0543C7.6811 36.0543 7.72471 36.0771 7.78025 36.0771C7.99464 36.0771 8.20851 35.9645 8.35594 35.7849C10.3576 33.4012 13.0336 32.9729 14.5057 32.9495L13.1353 35.6951C13.0107 35.9183 13.0227 36.2111 13.1561 36.4369C13.3035 36.6627 13.5387 36.7961 13.8102 36.7961H25.3701C25.6301 36.7961 25.8653 36.6627 26.0127 36.4369C26.1461 36.2111 26.1581 35.9188 26.0335 35.6951L24.663 32.9495C26.1347 32.9724 28.8226 33.4012 30.8128 35.7849C30.9603 35.9645 31.1747 36.0771 31.3979 36.0771C31.4441 36.0771 31.4877 36.0543 31.5339 36.0543C31.8147 36.0081 32.0291 35.8077 32.1189 35.5362C32.1412 35.4693 34.8177 27.0811 27.0582 20.7382ZM22.9308 31.4893H19.5888H16.2489C14.8323 27.4839 14.0334 23.9763 13.6622 20.8716C13.6622 20.8716 13.6622 20.8487 13.6508 20.828C13.0886 16.0143 13.5724 12.2809 14.4959 9.40199H24.6828C25.6062 12.2809 26.0901 16.0143 25.5164 20.828C25.5164 20.8487 25.5164 20.8716 25.5164 20.8716C25.1463 23.953 24.3355 27.4839 22.9308 31.4893ZM19.5888 1.66269C20.478 2.31676 22.6152 4.22861 24.133 7.89296H15.0467C16.5531 4.22861 18.7022 2.31676 19.5888 1.66269ZM8.20851 33.7832C7.86071 31.5101 7.80309 26.6985 12.3587 22.5135C12.7735 25.19 13.5174 28.1587 14.6298 31.4431C13.1353 31.4431 10.4682 31.7816 8.20851 33.7832ZM15.0352 35.2663L16.1825 33.0186H19.5888H22.9858L24.133 35.2663H15.0352ZM30.9712 33.7832C28.7001 31.8023 26.0444 31.4431 24.5385 31.4431C25.6623 28.1587 26.4041 25.19 26.8209 22.5135C31.3766 26.6985 31.319 31.5101 30.9712 33.7832Z" fill="#5E5F5F"/>
<path d="M19.5797 13.2018C17.7001 13.2018 16.1708 14.7539 16.1708 16.6222C16.1708 18.5106 17.7001 20.0171 19.5797 20.0171C21.4568 20.0171 22.9975 18.5106 22.9975 16.6222C22.9975 14.7539 21.4568 13.2018 19.5797 13.2018ZM19.5797 18.5106C18.5317 18.5106 17.6886 17.6562 17.6886 16.6222C17.6886 15.5647 18.5317 14.7311 19.5797 14.7311C20.6252 14.7311 21.4796 15.5647 21.4796 16.6222C21.4802 17.6562 20.6252 18.5106 19.5797 18.5106Z" fill="#5E5F5F"/>
<path d="M19.5887 45.2532C20.0056 45.2532 20.344 44.9169 20.344 44.4886V40.26C20.344 39.8338 20.0056 39.4954 19.5887 39.4954C19.174 39.4954 18.8241 39.8338 18.8241 40.26V44.4886C18.8241 44.9169 19.174 45.2532 19.5887 45.2532Z" fill="#5E5F5F"/>
<path d="M23.3801 40.8218C22.9633 40.8218 22.6155 41.1602 22.6155 41.5864V45.8384C22.6155 46.2438 22.9633 46.5802 23.3801 46.5802C23.797 46.5802 24.1333 46.2438 24.1333 45.8384V41.5864C24.1333 41.1608 23.797 40.8218 23.3801 40.8218Z" fill="#5E5F5F"/>
<path d="M15.8001 38.1458C15.3833 38.1458 15.0469 38.4842 15.0469 38.9104V43.139C15.0469 43.5673 15.3833 43.9036 15.8001 43.9036C16.2169 43.9036 16.5533 43.5673 16.5533 43.139V38.9104C16.5533 38.4842 16.2169 38.1458 15.8001 38.1458Z" fill="#5E5F5F"/>
</svg>
