<svg width="51" height="50" viewBox="0 0 51 50" fill="none" xmlns="http://www.w3.org/2000/svg">
<g clip-path="url(#clip0_3719_1331)">
<path d="M46.232 0H3.78857C1.69715 0 0 1.6882 0 3.77962V37.224C0 39.3176 1.69767 41.0268 3.78857 41.0268H19.4203V45.0528H18.3401C16.0255 45.0528 14.1462 46.9416 14.1462 49.2583C14.1462 49.6636 14.4847 50 14.9111 50H35.11C35.5358 50 35.8748 49.6636 35.8748 49.2583C35.8748 46.941 33.984 45.0528 31.6694 45.0528H30.6007V41.0268H46.2325C48.3123 41.0268 50.0095 39.3181 50.0095 37.224V3.77962C50.009 1.6882 48.3113 0 46.232 0ZM3.78857 1.50869H46.2314C47.4796 1.50869 48.5024 2.54256 48.5024 3.77962V8.79578L44.8475 14.282L41.3837 12.8423C41.0795 12.7318 40.732 12.7986 40.5178 13.0681L37.1898 16.9815C36.0428 11.7416 31.3767 7.80561 25.8099 7.80561C19.962 7.80561 15.1138 12.1243 14.2941 17.7463L11.7742 16.9378C11.4473 16.8478 11.0878 16.9815 10.9083 17.2531L6.4101 24.248L1.51817 20.7611V3.77962C1.51764 2.54256 2.54045 1.50869 3.78857 1.50869ZM1.51764 22.6288L6.17216 25.9336C6.30797 26.0462 6.46484 26.0905 6.61224 26.0905C6.66751 26.0905 6.71383 26.0699 6.75753 26.0699C6.96019 26.0236 7.1397 25.911 7.25288 25.7314L11.8637 18.5802L14.1578 19.2987C14.1578 19.345 14.1462 19.4114 14.1462 19.4577C14.1462 25.8904 19.3766 31.1071 25.8094 31.1071C27.7418 31.1071 29.5637 30.635 31.1851 29.8038L35.2226 33.8297H1.51764V22.6288ZM32.5116 28.9694C33.6013 28.2045 34.5478 27.2607 35.3216 26.1594L41.5632 32.4126C42.1597 32.9954 42.1597 33.9629 41.5632 34.5478L40.9 35.2226C40.3056 35.8075 39.3497 35.8075 38.7533 35.2226L32.5116 28.9694ZM25.8094 29.6006C20.2078 29.6006 15.6639 25.0566 15.6639 19.4572C15.6639 13.8788 20.2078 9.31167 25.8094 9.31167C31.3967 9.31167 35.9412 13.8788 35.9412 19.4572C35.9412 25.0561 31.3972 29.6006 25.8094 29.6006ZM31.6688 46.5589C32.8827 46.5589 33.9166 47.3901 34.244 48.4934H15.7655C16.1039 47.3901 17.1268 46.5589 18.3407 46.5589H31.6688ZM20.938 45.0523V41.0263H29.082V45.0523H20.938ZM48.5029 37.224C48.5029 38.4837 47.4801 39.5181 46.232 39.5181H3.78857C2.54045 39.5181 1.51764 38.4843 1.51764 37.224V35.3353H36.7287L37.6846 36.2797C38.2695 36.8877 39.0459 37.1803 39.8219 37.1803C40.6073 37.1803 41.3832 36.8877 41.9686 36.2797L42.6318 35.628C42.7219 35.5379 42.7908 35.4485 42.8693 35.3353H48.5029V37.224ZM43.4862 33.8292C43.5878 32.9517 43.3183 32.0073 42.6318 31.3325L36.1323 24.8329C36.975 23.2347 37.4588 21.3896 37.4588 19.4572C37.4588 19.2982 37.4356 19.1645 37.4356 19.0055L41.3163 14.4636L44.847 15.9034C45.1855 16.0371 45.5676 15.9239 45.7703 15.6317L48.5018 11.5157V33.8292H43.4862Z" fill="#FFECCC"/>
<path d="M25.819 15.0258C26.9777 15.0258 27.9126 15.8343 27.9126 16.8477C27.9126 17.253 28.2489 17.6126 28.6659 17.6126C29.0917 17.6126 29.4307 17.253 29.4307 16.8477C29.4307 15.2495 28.2052 13.8998 26.575 13.5866V12.8428C26.575 12.4169 26.2365 12.0779 25.8196 12.0779C25.4047 12.0779 25.0663 12.4164 25.0663 12.8428V13.5866C23.4354 13.8998 22.2105 15.2495 22.2105 16.8477C22.2105 18.4669 23.1549 20.1988 25.8196 20.1988C27.204 20.1988 27.9131 20.8047 27.9131 22.0207C27.9131 23.0319 26.9782 23.8658 25.8196 23.8658C24.6725 23.8658 23.7281 23.0319 23.7281 22.0207C23.7281 21.6154 23.3918 21.279 22.9748 21.279C22.549 21.279 22.21 21.6154 22.21 22.0207C22.21 23.64 23.4354 24.9665 25.0657 25.305V26.0467C25.0657 26.452 25.4042 26.7884 25.819 26.7884C26.2359 26.7884 26.5744 26.452 26.5744 26.0467V25.305C28.2052 24.9665 29.4302 23.64 29.4302 22.0207C29.4302 20.4015 28.4858 18.6928 25.819 18.6928C24.4372 18.6928 23.7276 18.0616 23.7276 16.8477C23.7276 15.8343 24.672 15.0258 25.819 15.0258Z" fill="#FFECCC"/>
</g>
<defs>
<clipPath id="clip0_3719_1331">
<rect width="51" height="50" fill="white"/>
</clipPath>
</defs>
</svg>
