<svg width="50" height="50" viewBox="0 0 50 50" fill="none" xmlns="http://www.w3.org/2000/svg">
<path d="M49.235 0H0.764444C0.337222 0 0 0.337222 0 0.742222V8.345V49.2583C0 49.6628 0.337222 50 0.764444 50H49.235C49.685 50 50 49.6628 50 49.2578V8.345V0.742222C50 0.337222 49.685 0 49.235 0ZM1.50667 1.50722H48.4928V7.58H1.50667V1.50722ZM48.4928 48.4933H1.50667V9.08667H48.4928V48.4933Z" fill="#4976FF"/>
<path d="M44.7361 4.02617C44.6017 4.1384 44.5117 4.34117 44.5117 4.54395C44.5117 4.74673 44.6017 4.94895 44.7361 5.08395C44.8711 5.2184 45.0733 5.3084 45.2767 5.3084C45.4783 5.3084 45.6817 5.2184 45.7939 5.08395C45.9511 4.94895 46.0189 4.74673 46.0189 4.54395C46.0189 4.34117 45.9511 4.16173 45.7939 4.02617C45.5239 3.73395 45.0067 3.73395 44.7361 4.02617Z" fill="#4976FF"/>
<path d="M41.1156 3.80164C40.6878 3.80164 40.3506 4.11608 40.3506 4.54386C40.3506 4.97108 40.6878 5.3083 41.1156 5.3083C41.5206 5.3083 41.8578 4.97108 41.8578 4.54386C41.8578 4.11608 41.52 3.80164 41.1156 3.80164Z" fill="#4976FF"/>
<path d="M36.3922 4.02617C36.2572 4.1384 36.19 4.34117 36.19 4.54395C36.19 4.74673 36.2572 4.94895 36.3922 5.08395C36.5494 5.2184 36.7294 5.3084 36.9322 5.3084C37.135 5.3084 37.3372 5.2184 37.4722 5.08395C37.6294 4.94895 37.6967 4.74673 37.6967 4.54395C37.6967 4.34117 37.6294 4.16173 37.4722 4.02617C37.2017 3.73395 36.6617 3.73395 36.3922 4.02617Z" fill="#4976FF"/>
<path d="M18.7133 28.4978L13.045 34.1434C13.045 34.1656 13.045 34.1656 13.045 34.1656L10.0761 37.135C9.87389 37.3373 9.78389 37.63 9.89611 37.8995C10.8406 40.8239 12.955 42.96 15.8794 43.9056C15.9694 43.95 16.0367 43.95 16.1267 43.95C16.3289 43.95 16.5089 43.86 16.6667 43.7256L19.6583 40.7339L25.2811 35.0884L33.9183 43.7256C34.0756 43.86 34.255 43.95 34.4578 43.95C34.6606 43.95 34.8628 43.86 34.9983 43.7256L37.4722 41.2739L39.9233 38.7995C40.0811 38.6423 40.1483 38.4628 40.1483 38.26C40.1483 38.08 40.0811 37.8778 39.9233 37.7195L31.2861 29.0828L37.1561 23.235C37.1789 23.2123 37.1789 23.19 37.2011 23.19C37.2239 23.1678 37.2461 23.145 37.2461 23.1C37.2911 23.0778 37.3139 23.0328 37.3361 22.965V22.9428L40.1256 14.6434C40.2156 14.3739 40.1256 14.0584 39.9228 13.8561C39.7433 13.6539 39.4278 13.5867 39.1583 13.6761L30.8589 16.4656C30.8589 16.4656 30.8589 16.4656 30.8367 16.4656C30.7694 16.4884 30.6794 16.5334 30.6344 16.5778C30.6117 16.6006 30.6117 16.6006 30.5894 16.6228H30.5667L24.6961 22.4923L22.8967 20.6706L16.0589 13.855C15.7894 13.5628 15.2944 13.5628 15.0022 13.855L12.5283 16.3289L10.0767 18.7811C9.78444 19.0956 9.78444 19.5678 10.0767 19.86L18.7133 28.4978ZM30.8139 18.5111C30.9711 18.8034 31.1061 19.0961 31.2867 19.3656C31.3089 19.4334 31.3767 19.5006 31.3989 19.5906C31.5561 19.7928 31.6911 19.9956 31.8494 20.1978C31.8939 20.2656 31.9617 20.3556 32.0067 20.4228C32.0511 20.4678 32.0967 20.535 32.1411 20.58L15.6994 37.0228C15.6994 37 15.6544 36.9773 15.6544 36.955C15.5872 36.865 15.5422 36.7978 15.4744 36.73C15.3622 36.5728 15.25 36.4156 15.16 36.2578C15.0928 36.145 15.0478 36.0556 14.98 35.9434C14.8906 35.7856 14.8006 35.6506 14.7328 35.4706C14.6878 35.3584 14.6206 35.2456 14.5983 35.1334C14.5533 35.0434 14.5083 34.9534 14.4856 34.8639L30.8139 18.5111ZM34.48 16.8467C34.9978 17.9261 35.8744 18.8034 36.9539 19.3206L36.1667 21.705C36.1217 21.6828 36.0772 21.66 36.0317 21.66C35.9644 21.615 35.8744 21.57 35.8072 21.525C35.605 21.4578 35.4472 21.3678 35.2894 21.2556C35.1994 21.2106 35.11 21.1656 35.02 21.1206C34.84 21.0084 34.6828 20.8956 34.5472 20.7834C34.48 20.7384 34.4128 20.6711 34.345 20.6261C34.12 20.4689 33.9178 20.2667 33.7378 20.0861H33.715C33.6928 20.0634 33.6928 20.0634 33.6928 20.0634C33.5128 19.8839 33.3333 19.6811 33.175 19.4561C33.1078 19.4111 33.0628 19.3211 33.0178 19.2539C32.9056 19.0967 32.7928 18.9395 32.7033 18.7817C32.6356 18.6917 32.5683 18.6017 32.5233 18.5117C32.4333 18.3545 32.3439 18.1745 32.2539 18.0167C32.2311 17.9267 32.1639 17.8367 32.1411 17.7467C32.1189 17.7017 32.1189 17.6795 32.0967 17.6345L34.48 16.8467ZM15.9244 42.3078C13.81 41.4984 12.28 39.9684 11.4706 37.8539L13.315 36.0323C13.4494 36.3245 13.6067 36.595 13.765 36.8645C13.81 36.9545 13.855 37.0223 13.8994 37.0895C14.0344 37.2917 14.1917 37.4945 14.3272 37.7189C14.3944 37.7867 14.4394 37.8539 14.4844 37.9217C14.8894 38.4389 15.3617 38.8884 15.8794 39.2934C15.9244 39.3611 16.0139 39.4061 16.0817 39.4511C16.2839 39.6084 16.4867 39.7434 16.7117 39.8784C16.7789 39.9239 16.8461 39.9911 16.9139 40.0361C17.1833 40.1934 17.4761 40.3506 17.7683 40.4861L15.9244 42.3078ZM31.5117 31.4445L29.5772 33.3561C29.285 33.6706 29.285 34.1434 29.5772 34.4356C29.7344 34.5928 29.9144 34.66 30.1172 34.66C30.32 34.66 30.4994 34.5928 30.635 34.4356L32.5689 32.5011L34.9306 34.8406L32.9967 36.775C32.7044 37.0895 32.7044 37.5617 32.9967 37.8539C33.1311 37.9889 33.3339 38.0789 33.5139 38.0789C33.7161 38.0789 33.9189 37.9889 34.0539 37.8539L35.9883 35.92L38.3272 38.2595L34.4583 42.1278L26.3606 34.0311L30.2289 30.1623L31.5117 31.4445ZM18.9156 39.3167C18.8261 39.2717 18.7583 39.2495 18.6683 39.2045C18.5339 39.1595 18.4211 39.1145 18.3317 39.0695C18.1517 38.9795 18.0167 38.8895 17.8589 38.8223C17.7467 38.755 17.6567 38.71 17.5444 38.6423C17.3867 38.5523 17.2294 38.44 17.0717 38.3278C17.0044 38.2606 16.9144 38.2156 16.8467 38.1478C16.8244 38.1256 16.8017 38.1028 16.7794 38.0806L33.1989 21.6611C33.2661 21.7061 33.3111 21.7511 33.3783 21.7961C33.4461 21.8411 33.5133 21.9084 33.5811 21.9534C33.7833 22.1106 33.9861 22.2456 34.2106 22.3806C34.2783 22.4261 34.3678 22.4706 34.4356 22.5156C34.705 22.6956 34.9756 22.8306 35.2678 22.9656L18.9156 39.3167ZM37.4267 17.8589C36.7967 17.5217 36.2794 16.9817 35.9422 16.3517L38.1911 15.5867L37.4267 17.8589ZM15.5422 15.4745L17.8589 17.8139L15.9472 19.725C15.655 20.04 15.655 20.5128 15.9472 20.8045C16.1044 20.9623 16.2844 21.0295 16.4872 21.0295C16.6672 21.0295 16.8694 20.9623 17.005 20.8045L18.9389 18.8706L21.2778 21.21L19.3661 23.1439C19.0517 23.4361 19.0517 23.9089 19.3661 24.2234C19.5011 24.3584 19.6811 24.4484 19.8839 24.4484C20.0867 24.4484 20.2661 24.3584 20.4239 24.2234L22.3578 22.2895L23.6406 23.5717L19.7717 27.4178L11.6733 19.3206L15.5422 15.4745Z" fill="#4976FF"/>
</svg>
