<svg width="71" height="81" viewBox="0 0 71 81" fill="none" xmlns="http://www.w3.org/2000/svg">
<path d="M68.0469 36.946L7.08496 0.659494C6.37337 0.235955 5.56227 0.00848538 4.73421 0.000232835C3.90615 -0.00801971 3.09069 0.203239 2.37079 0.612511C1.6509 1.02178 1.05228 1.61446 0.63584 2.33023C0.219402 3.04601 1.35903e-05 3.85932 0 4.68742V75.8089C0.000966694 76.6296 0.217228 77.4357 0.627185 78.1466C1.03714 78.8576 1.62645 79.4485 2.33625 79.8605C3.04606 80.2724 3.85152 80.4909 4.67219 80.4942C5.49287 80.4974 6.30003 80.2853 7.01309 79.879L67.9746 45.0445C68.686 44.6379 69.2783 44.0521 69.6927 43.3453C70.1071 42.6385 70.3289 41.8354 70.3362 41.0161C70.3434 40.1968 70.1358 39.39 69.734 38.6759C69.3323 37.9619 68.7503 37.3656 68.0463 36.9466L68.0469 36.946ZM6.25 73.1165V7.43586L62.5477 40.9464L6.25 73.1165Z" fill="white"/>
</svg>
