<svg width="112" height="38" viewBox="0 0 112 38" fill="none" xmlns="http://www.w3.org/2000/svg">
<g clip-path="url(#clip0_6423_2597)">
<path d="M112.007 33.77H96.7433V34.6301H112.007V33.77Z" fill="#404041"/>
<path d="M15.2636 33.77H0V34.6301H15.2636V33.77Z" fill="#404041"/>
<path d="M85.15 33.3048V33.0228C85.15 32.6351 85.0598 32.3672 84.8794 32.2261C84.699 32.0781 84.4007 32.0076 83.9844 32.0076H81.1745V34.32H83.9705C84.3937 34.32 84.6921 34.2495 84.8725 34.1015C85.0529 33.9534 85.143 33.6926 85.143 33.3048M84.1856 30.5764C84.9904 30.5764 85.6287 30.7879 86.1144 31.218C86.6 31.648 86.8359 32.2543 86.8359 33.0299V33.2555C86.8359 33.5868 86.7873 33.89 86.6972 34.1649C86.607 34.4399 86.4821 34.6725 86.3225 34.8629C86.1629 35.0462 85.9825 35.2083 85.7744 35.3352C85.5663 35.4621 85.3373 35.5538 85.0945 35.6102C84.8516 35.6666 84.6019 35.6948 84.3452 35.6948H81.1814V37.831H79.4955V30.5694H84.1787L84.1856 30.5764ZM72.0649 30.5764H73.7509V35.5961C73.7509 36.3434 73.404 36.9286 72.7171 37.3586C72.0302 37.7887 71.1144 38.0002 69.9697 38.0002C68.8249 38.0002 67.9091 37.7887 67.2222 37.3586C66.5354 36.9286 66.1885 36.3434 66.1885 35.5961V30.5764H67.8744V35.159C67.8744 35.6454 68.034 35.9979 68.3462 36.2165C68.6653 36.4351 69.1995 36.5479 69.9627 36.5479C70.4831 36.5479 70.8924 36.4985 71.2046 36.3998C71.5168 36.3011 71.7319 36.146 71.8707 35.9486C72.0025 35.7512 72.0719 35.4833 72.0719 35.159V30.5764H72.0649ZM57.4951 31.9582C57.1829 31.8948 56.7875 31.8595 56.2949 31.8595C55.8023 31.8595 55.4068 31.8948 55.0946 31.9582C54.7824 32.0217 54.5187 32.1415 54.3037 32.3178C54.0886 32.4941 53.936 32.7338 53.8458 33.0299C53.7556 33.333 53.7139 33.7208 53.7139 34.2002C53.7139 34.5879 53.7417 34.9122 53.8041 35.1801C53.8666 35.448 53.9568 35.6666 54.0817 35.8499C54.2065 36.0261 54.373 36.1672 54.5812 36.2729C54.7893 36.3716 55.0322 36.4421 55.3027 36.4844C55.5733 36.5267 55.9063 36.5479 56.2949 36.5479C56.7875 36.5479 57.1829 36.5126 57.4882 36.4492C57.7935 36.3857 58.0571 36.2659 58.2722 36.0896C58.4873 35.9133 58.6469 35.6807 58.737 35.3775C58.8272 35.0744 58.8758 34.6866 58.8758 34.2072C58.8758 33.7278 58.8272 33.333 58.737 33.0369C58.6469 32.7338 58.4942 32.5011 58.2791 32.3248C58.0641 32.1486 57.8004 32.0287 57.4951 31.9653V31.9582ZM54.9212 30.5059C55.3236 30.4425 55.7815 30.4072 56.2879 30.4072C56.7944 30.4072 57.2523 30.4425 57.6547 30.5059C58.0571 30.5694 58.4526 30.6892 58.8272 30.8655C59.2019 31.0417 59.521 31.2673 59.7708 31.5423C60.0206 31.8243 60.2218 32.1838 60.3744 32.6351C60.527 33.0863 60.5964 33.608 60.5964 34.2072C60.5964 34.8065 60.5201 35.3282 60.3744 35.7794C60.2218 36.2306 60.0206 36.5902 59.7708 36.8651C59.521 37.1401 59.2019 37.3657 58.8272 37.5419C58.4526 37.7182 58.0571 37.831 57.6547 37.9015C57.2523 37.9649 56.7944 38.0002 56.2879 38.0002C55.7815 38.0002 55.3236 37.9649 54.9212 37.9015C54.5188 37.838 54.1302 37.7182 53.7556 37.5419C53.3809 37.3657 53.0687 37.1471 52.8189 36.8651C52.5692 36.5902 52.368 36.2236 52.2153 35.7794C52.0627 35.3282 51.9933 34.8065 51.9933 34.2072C51.9933 33.608 52.0696 33.0863 52.2153 32.6351C52.368 32.1838 52.5692 31.8243 52.8189 31.5423C53.0687 31.2603 53.3809 31.0347 53.7556 30.8655C54.1302 30.6892 54.5188 30.5764 54.9212 30.5059ZM44.8472 33.1497V32.8889C44.8472 32.5716 44.757 32.346 44.5766 32.212C44.3962 32.0781 44.1048 32.0076 43.7024 32.0076H40.7399V34.031H43.6885C44.0909 34.031 44.3823 33.9605 44.5697 33.8265C44.757 33.6855 44.8472 33.467 44.8472 33.1497ZM44.0493 30.5764C45.7075 30.5764 46.5401 31.2955 46.5401 32.7408V32.9453C46.5401 33.3683 46.436 33.7208 46.2209 33.9957C46.0128 34.2777 45.7075 34.4822 45.3259 34.6161V34.6373C45.8254 34.7853 46.1446 35.0603 46.2972 35.4692C46.3597 35.6313 46.4291 35.9838 46.5192 36.5338C46.6025 37.0837 46.6927 37.5208 46.7898 37.838H45.0137C44.9859 37.7323 44.9374 37.4362 44.868 36.9497C44.7986 36.4633 44.7154 36.1249 44.6182 35.9415C44.5142 35.7512 44.3823 35.6102 44.2228 35.5185C44.0632 35.4339 43.8342 35.3916 43.5428 35.3916H40.7468V37.838H39.0748V30.5764H44.0563H44.0493ZM33.3926 33.5022V36.0614C33.0665 36.6959 32.5739 37.1824 31.9078 37.5067C31.2418 37.838 30.3607 38.0002 29.2506 38.0002C28.7302 38.0002 28.2793 37.9649 27.8838 37.9015C27.4883 37.838 27.1137 37.7182 26.7598 37.549C26.406 37.3798 26.1146 37.1542 25.8857 36.8722C25.6567 36.5902 25.4763 36.2306 25.3514 35.7864C25.2196 35.3423 25.1572 34.8135 25.1572 34.2072C25.1572 33.6009 25.2196 33.0722 25.3514 32.628C25.4833 32.1838 25.6636 31.8243 25.8926 31.5423C26.1215 31.2603 26.4268 31.0347 26.7876 30.8655C27.1553 30.6963 27.5438 30.5764 27.9601 30.513C28.3764 30.4495 28.8621 30.4143 29.4171 30.4143C30.208 30.4143 30.8879 30.4989 31.4638 30.6681C32.0397 30.8373 32.5808 31.1122 33.0804 31.4788L32.338 32.5857C31.9286 32.3249 31.4985 32.1274 31.0406 32.0005C30.5827 31.8736 30.0415 31.8102 29.4102 31.8102C28.8759 31.8102 28.4458 31.8454 28.1266 31.9159C27.8075 31.9864 27.5577 32.1133 27.3634 32.3037C27.1692 32.4941 27.0374 32.7338 26.9749 33.0228C26.9125 33.3119 26.8778 33.7067 26.8778 34.2002C26.8778 34.6937 26.9125 35.0885 26.9749 35.3846C27.0374 35.6807 27.1622 35.9204 27.3496 36.1108C27.53 36.3011 27.7728 36.428 28.0711 36.4985C28.3695 36.569 28.7649 36.6043 29.2575 36.6043C30.0068 36.6043 30.5688 36.5267 30.9573 36.3646C31.3389 36.2024 31.6511 35.9556 31.8801 35.6172V34.8488H29.5559V33.5022H33.3926Z" fill="#404041"/>
<path fill-rule="evenodd" clip-rule="evenodd" d="M15.2081 7.79758V7.04322C15.2081 5.99981 14.9652 5.2807 14.4796 4.89294C13.9939 4.50519 13.1891 4.30779 12.0721 4.30779H4.50969V10.5401H12.0444C13.1822 10.5401 13.9939 10.3427 14.4796 9.95491C14.9652 9.56716 15.2081 8.84805 15.2081 7.80463M12.6202 0.444336C14.7849 0.444336 16.5124 1.02244 17.8168 2.17866C19.1211 3.33487 19.7663 4.96345 19.7663 7.07142V7.68478C19.7663 8.58014 19.6415 9.39795 19.3917 10.1453C19.1419 10.8926 18.8089 11.513 18.3857 12.0206C17.9625 12.5211 17.4699 12.9442 16.9009 13.2896C16.332 13.6351 15.7215 13.8818 15.0693 14.0299C14.4171 14.1779 13.7442 14.2555 13.0504 14.2555H4.53745V20.0083H0V0.444336H12.6202Z" fill="#16325F"/>
<path fill-rule="evenodd" clip-rule="evenodd" d="M34.7871 12.6057L31.0198 4.58274L30.9643 4.27254H30.77L30.6867 4.58274L25.5873 15.4822L34.7802 12.5987L34.7871 12.6057ZM38.1104 20.0083L34.7802 12.6057L23.6169 20.0083H18.7465L28.2376 0.444336H33.4897L42.9462 20.0013H38.1035L38.1104 20.0083Z" fill="#16325F"/>
<path fill-rule="evenodd" clip-rule="evenodd" d="M60.6311 7.37458V6.67662C60.6311 5.81651 60.3883 5.2102 59.9026 4.84359C59.417 4.47699 58.633 4.30074 57.5506 4.30074H49.5789V9.75046H57.5229C58.6052 9.75046 59.3961 9.56716 59.8887 9.1935C60.3813 8.81985 60.6311 8.21354 60.6311 7.37458ZM58.4873 0.444336C62.9623 0.444336 65.1963 2.39016 65.1963 6.28181V6.83877C65.1963 7.97383 64.9119 8.91855 64.3429 9.67291C63.774 10.4273 62.9692 10.9842 61.9216 11.3367V11.3931C63.2606 11.7809 64.1279 12.5282 64.5372 13.628C64.7037 14.0581 64.898 15.0098 65.1269 16.4903C65.3559 17.9709 65.5987 19.1412 65.8554 19.9942H61.0682C60.9919 19.7122 60.8601 18.9156 60.6727 17.6043C60.4785 16.2929 60.2565 15.3835 59.9998 14.8829C59.7222 14.3612 59.3684 13.9876 58.9382 13.7479C58.5081 13.5152 57.8975 13.3954 57.1066 13.3954H49.572V19.9872H45.0623V0.444336H58.4803H58.4873Z" fill="#16325F"/>
<path fill-rule="evenodd" clip-rule="evenodd" d="M86.1768 1.59343L84.9418 5.08323C82.2846 4.18787 79.6412 3.74371 77.0256 3.74371C75.631 3.74371 74.5903 3.87767 73.9035 4.14557C73.2166 4.41347 72.8628 4.89288 72.842 5.58379C72.842 5.82349 72.8905 6.04909 72.9807 6.25355C73.0709 6.458 73.2444 6.6413 73.5011 6.7964C73.7578 6.95151 73.9937 7.08546 74.2157 7.19121C74.4377 7.29696 74.7916 7.40271 75.2772 7.51551C75.7629 7.62831 76.1583 7.71291 76.4705 7.78342C76.7828 7.84687 77.2754 7.93852 77.9553 8.05132C78.3924 8.14297 78.7323 8.20642 78.9752 8.24872C79.9257 8.41792 80.7235 8.57303 81.3688 8.72108C82.0071 8.86913 82.68 9.05948 83.3738 9.27804C84.0676 9.50364 84.6366 9.75039 85.0806 10.0324C85.5177 10.3144 85.927 10.6458 86.3017 11.0406C86.6763 11.4283 86.9539 11.9007 87.1273 12.4365C87.3008 12.9793 87.3909 13.5856 87.3909 14.2554C87.3909 16.2858 86.6 17.8298 85.0112 18.8803C83.4224 19.9307 81.119 20.4595 78.094 20.4595C75.7837 20.4595 73.7231 20.1845 71.9053 19.6346C70.0876 19.0847 68.5682 18.422 67.3401 17.6394L69.3452 14.2554C70.4622 14.9463 71.836 15.5244 73.4733 16.0038C75.1038 16.4762 76.755 16.7159 78.4201 16.7159C79.0237 16.7159 79.5857 16.6736 80.0991 16.589C80.6125 16.5044 81.0704 16.3775 81.4728 16.2083C81.8752 16.0391 82.1944 15.8205 82.4233 15.5385C82.6523 15.2565 82.7702 14.9322 82.7702 14.5586C82.7702 14.3541 82.7356 14.1637 82.6731 14.0016C82.6107 13.8324 82.5066 13.6773 82.354 13.5433C82.2083 13.4023 82.0556 13.2825 81.903 13.1767C81.7504 13.071 81.5283 12.9723 81.2439 12.8665C80.9594 12.7608 80.7097 12.6832 80.4876 12.6127C80.2656 12.5493 79.9604 12.4788 79.5649 12.4012C79.1694 12.3237 78.8433 12.2673 78.5728 12.2179C78.3091 12.1686 77.9345 12.1122 77.4557 12.0346C76.977 11.9571 76.6024 11.8936 76.3249 11.8372C75.2633 11.6539 74.3614 11.4636 73.6329 11.2803C72.8975 11.097 72.1759 10.8502 71.4613 10.54C70.7467 10.2298 70.1708 9.88434 69.7407 9.48954C69.3105 9.10178 68.9636 8.60828 68.6931 8.02312C68.4294 7.43796 68.2837 6.7541 68.2698 5.97154C68.2352 4.63202 68.589 3.51106 69.3314 2.6016C70.0737 1.69919 71.1214 1.03648 72.4812 0.620522C73.841 0.211617 75.4992 0.000114197 77.4627 0.000114197C80.668 -0.0210361 83.5751 0.514771 86.1768 1.59343Z" fill="#16325F"/>
<path fill-rule="evenodd" clip-rule="evenodd" d="M107.463 0.444336H112V20.0083H106.748L95.2517 6.56382L94.8423 6.14786H94.6758L94.8701 6.87402V20.0083H90.3326V0.444336H95.6125L107.109 13.9171L107.49 14.3612H107.685L107.463 13.6069V0.444336Z" fill="#16325F"/>
<path fill-rule="evenodd" clip-rule="evenodd" d="M34.7524 12.6266L23.6239 20.0081H18.7534L21.2649 14.8333L34.7455 12.6055L34.7524 12.6266Z" fill="#F47421"/>
</g>
<defs>
<clipPath id="clip0_6423_2597">
<rect width="112" height="38" fill="white"/>
</clipPath>
</defs>
</svg>
