<svg width="46" height="45" viewBox="0 0 46 45" fill="none" xmlns="http://www.w3.org/2000/svg">
<path d="M45.317 0H0.703445C0.310313 0 0 0.310313 0 0.703445V7.65661V41.5513C0 41.945 0.310313 42.2548 0.703445 42.2548H32.5497L34.0195 43.724C34.6396 44.3452 35.4473 44.6964 36.3159 44.6964C37.1844 44.6964 38.0121 44.3447 38.6333 43.724L39.3781 42.9792C39.5846 42.7726 39.7717 42.5027 39.9164 42.2548H45.317C45.7106 42.2548 46 41.945 46 41.5513V7.65661V0.703445C46 0.310825 45.7106 0 45.317 0ZM1.38644 1.38644H44.634V6.97362H1.38644V1.38644ZM38.3848 42.0063L37.6399 42.7512C36.937 43.4546 35.7157 43.4546 35.0117 42.7512L27.8525 35.5915C28.5146 35.136 29.1357 34.6396 29.694 34.0603C30.2742 33.4806 30.7911 32.86 31.2256 32.198L38.3848 39.3572C38.7575 39.7089 38.9441 40.1848 38.9441 40.6817C38.9441 41.1786 38.757 41.6546 38.3848 42.0063ZM21.7066 36.3987C21.3339 36.4396 20.9203 36.4606 20.5477 36.4606C20.1336 36.4606 19.7614 36.4396 19.3473 36.3987C19.3269 36.3987 19.3059 36.3987 19.2645 36.3987C18.5196 36.2949 17.7748 36.1502 17.0708 35.9222L18.9746 30.9557C19.4715 31.0799 20.0088 31.1627 20.5471 31.1627C22.1401 31.1627 23.7541 30.5421 24.9754 29.3208C25.9896 28.307 26.6098 27.0034 26.7544 25.5756H32.0742C32.0533 25.7412 32.0533 25.9063 32.0533 26.0725C32.0533 26.1139 32.0323 26.1757 32.0114 26.2376C31.9914 26.5689 31.9296 26.9001 31.8876 27.2099C31.8667 27.2309 31.8667 27.2309 31.8667 27.2513C30.8534 32.0937 26.7974 35.8389 21.8104 36.3982C21.7894 36.3987 21.748 36.3987 21.7066 36.3987ZM10.3467 30.377C10.2434 30.1495 10.1396 29.9424 10.0364 29.7149C9.97451 29.5907 9.91214 29.4665 9.85028 29.3213C9.78842 29.1557 9.72605 28.9905 9.66419 28.8244C9.60233 28.6178 9.51952 28.4313 9.45766 28.2242C9.41625 28.1209 9.41625 27.9972 9.37484 27.8934C9.29202 27.6245 9.23016 27.3761 9.18875 27.1072C9.16779 27.0658 9.16779 27.0039 9.16779 26.9625C8.91934 25.597 8.91934 24.1896 9.16779 22.8241C9.16779 22.7618 9.16779 22.7204 9.18875 22.6585C9.23016 22.41 9.29202 22.1411 9.37484 21.8927C9.41625 21.769 9.41625 21.6652 9.45766 21.541C9.51952 21.3544 9.60233 21.1473 9.66419 20.9612C9.72656 20.7961 9.78842 20.6095 9.85028 20.4439C9.91265 20.3197 9.97451 20.1959 10.0364 20.0502C10.1401 19.8233 10.2434 19.6157 10.3467 19.4086C10.3881 19.3468 10.4295 19.264 10.4709 19.2021C12.1053 16.3464 14.8782 14.2361 18.1894 13.5531H18.2098C18.5201 13.4907 18.8514 13.4493 19.2031 13.3874C19.265 13.3874 19.3064 13.3874 19.3683 13.3665C19.5129 13.3665 19.6786 13.3665 19.8447 13.3455V18.6633C18.4373 18.808 17.1132 19.4291 16.099 20.4429C13.6574 22.9049 13.6574 26.8782 16.099 29.3198C16.5749 29.7962 17.1127 30.1684 17.6511 30.4583L15.7677 35.4243C13.5331 34.4105 11.6912 32.7138 10.4709 30.582C10.4295 30.5012 10.3881 30.4388 10.3467 30.377ZM21.8722 13.3885C22.203 13.4503 22.5343 13.4917 22.865 13.5541H22.8855C24.4376 13.8854 25.8864 14.527 27.169 15.4165L23.8578 19.5758C23.0716 19.0789 22.1611 18.7691 21.2301 18.6653V13.3471C21.3953 13.368 21.5399 13.368 21.7061 13.368C21.7685 13.3885 21.8308 13.3885 21.8722 13.3885ZM26.7555 24.1901C26.6108 22.7827 25.9907 21.4791 24.9764 20.4449H24.9554L28.2467 16.2856C30.0467 17.8995 31.3498 20.0722 31.8672 22.5348L31.8882 22.5552C31.9301 22.8865 31.9919 23.2178 32.0119 23.5485C32.0328 23.6104 32.0538 23.6518 32.0538 23.7142C32.0538 23.8793 32.0538 24.0449 32.0747 24.1901H26.7555ZM17.0713 28.328C15.1675 26.4451 15.1675 23.3415 17.0713 21.4372C18.0028 20.5272 19.2231 20.0093 20.5477 20.0093C21.8308 20.0093 23.0721 20.5272 23.9821 21.4372C24.9135 22.3686 25.4309 23.5894 25.4309 24.8931C25.4309 26.1972 24.9135 27.4175 23.9821 28.328C22.0793 30.2527 18.9751 30.2527 17.0713 28.328ZM44.634 40.8683H40.3295C40.3295 40.8065 40.3295 40.7446 40.3295 40.6822C40.3295 39.8132 39.9992 38.9855 39.3781 38.3649L31.9914 30.9777C32.5706 29.902 32.9837 28.7431 33.2327 27.5218L33.2536 27.5013C33.3155 27.1287 33.3773 26.756 33.4193 26.4042C33.4193 26.3214 33.4193 26.28 33.4392 26.1977C33.4811 25.7627 33.5021 25.3281 33.5021 24.8936C33.5021 24.459 33.4811 24.004 33.4392 23.5695C33.4193 23.5071 33.4193 23.4453 33.4193 23.3829C33.3773 23.0102 33.3155 22.6381 33.2536 22.2863C33.2536 22.2654 33.2327 22.2654 33.2327 22.2449C32.7153 19.7824 31.5155 17.5268 29.694 15.7268C29.3637 15.3751 28.991 15.0643 28.6184 14.7539C28.6184 14.733 28.5974 14.733 28.5974 14.733C28.5764 14.7125 28.5764 14.7125 28.5555 14.7125C26.963 13.4498 25.1415 12.6017 23.1759 12.1881H23.1549C22.7822 12.1053 22.41 12.0639 22.0374 12.0225C21.9755 12.0015 21.9131 12.0015 21.8513 11.9811C21.4167 11.9397 20.9822 11.9187 20.5477 11.9187C20.0922 11.9187 19.6581 11.9397 19.2231 11.9811C19.1612 12.002 19.0994 12.002 19.0165 12.0225C18.6439 12.0639 18.2921 12.1053 17.9404 12.1881C17.92 12.1881 17.8995 12.1881 17.8995 12.1881C15.4369 12.7055 13.1814 13.9053 11.3604 15.7268C10.7807 16.306 10.2633 16.9476 9.82932 17.6096C9.80836 17.6306 9.78791 17.6306 9.78791 17.6511C9.60182 17.92 9.43619 18.2098 9.291 18.4787C9.22914 18.582 9.16677 18.6648 9.12536 18.7476C9.00113 18.9751 8.87691 19.2241 8.79409 19.4511C8.71127 19.6167 8.62896 19.7614 8.54614 19.9275C8.48377 20.1136 8.42192 20.2793 8.36006 20.4653C8.27724 20.6928 8.19442 20.9209 8.13256 21.1483C8.09115 21.2516 8.0707 21.3758 8.0293 21.5001C7.96693 21.7894 7.88411 22.1002 7.8018 22.3896C7.8018 22.431 7.8018 22.4724 7.8018 22.5138C7.65712 23.2791 7.57431 24.0864 7.57431 24.8931C7.57431 25.7003 7.65712 26.4866 7.8018 27.2728C7.8018 27.3142 7.8018 27.3347 7.8018 27.3761C7.88462 27.6864 7.96744 27.9763 8.0293 28.2866C8.0707 28.3898 8.09115 28.5141 8.13256 28.6383C8.19442 28.8658 8.27724 29.0938 8.36006 29.3213C8.42192 29.4869 8.48429 29.673 8.54614 29.8596C8.62896 30.0043 8.71178 30.1699 8.77364 30.3356C8.87691 30.5631 9.00113 30.7911 9.12536 31.039C9.16677 31.1218 9.20818 31.2046 9.27055 31.2875C9.43567 31.5768 9.60131 31.8462 9.78791 32.1356C9.78791 32.156 9.78791 32.156 9.80836 32.156C10.2639 32.8186 10.7807 33.4806 11.3604 34.0603C12.6845 35.364 14.2161 36.3363 15.8715 36.9779C15.8924 36.9984 15.9129 36.9984 15.9129 36.9984C15.9339 36.9984 15.9543 36.9984 15.9543 37.0193C16.9476 37.392 18.0232 37.6609 19.0999 37.7642C19.1408 37.7642 19.1822 37.7846 19.2236 37.7846C19.6586 37.826 20.0927 37.8674 20.5482 37.8674C20.9827 37.8674 21.4173 37.826 21.8518 37.7846C21.8932 37.7846 21.9346 37.7642 21.9965 37.7642C23.6104 37.5985 25.1829 37.1016 26.6317 36.3363L31.1428 40.8678H1.38644V8.36006H44.634V40.8683Z" fill="#5E5F5F"/>
</svg>
