<svg width="50" height="50" viewBox="0 0 50 50" fill="none" xmlns="http://www.w3.org/2000/svg">
<path d="M44.8494 27.1034L43.455 26.5634L44.1744 31.0618L47.7055 28.1829L46.2661 27.6429C49.1678 17.9262 46.6483 7.49009 39.5411 0.224538C39.2489 -0.0676845 38.7761 -0.0676845 38.4839 0.224538C38.1694 0.51676 38.1472 0.989538 38.4616 1.2812C45.1189 8.12009 47.5483 17.9718 44.8494 27.1034Z" fill="#4976FF"/>
<path d="M30.7239 43.5227C22.0195 47.5489 11.9434 46.5594 4.22892 40.9583L5.19558 39.8116L0.742249 39.0244L2.29392 43.2755L3.23892 42.1283C8.09669 45.6594 13.8323 47.4816 19.6128 47.4816C23.5939 47.4816 27.5978 46.6272 31.3539 44.8955C31.7134 44.7155 31.8939 44.2655 31.7134 43.8833C31.5561 43.5 31.1061 43.3427 30.7239 43.5227Z" fill="#4976FF"/>
<path d="M48.4478 40.4189L40.0128 31.9839C39.7211 31.6917 39.2483 31.6917 38.9561 31.9839L38.0117 32.9061L35.8522 30.7467C41.1378 23.0317 40.1928 12.3928 33.5356 5.75833C29.8244 2.04722 24.8761 0 19.6356 0C14.395 0 9.44667 2.04722 5.75833 5.75833C2.02444 9.46944 0 14.4178 0 19.6583C0 24.8994 2.02444 29.8472 5.75778 33.5589C9.51389 37.3378 14.5972 39.2717 19.6806 39.2717C23.5267 39.2717 27.3956 38.1472 30.7239 35.8756L32.8833 38.035L31.9617 38.9572C31.8267 39.1144 31.7594 39.2944 31.7594 39.4972C31.7594 39.7 31.8267 39.8794 31.9617 40.0372L40.4189 48.4722C41.43 49.505 42.78 50 44.1294 50C45.4789 50 46.8283 49.505 47.8633 48.4711L48.4483 47.8861C49.4372 46.8967 50 45.5467 50 44.1528C50 42.7578 49.4372 41.4306 48.4478 40.4189ZM33.9628 36.9778L31.3539 34.3461C31.0844 34.0989 30.6794 34.0761 30.3644 34.2789C23.2344 39.5422 13.0906 38.755 6.815 32.4794C3.37389 29.0611 1.48444 24.495 1.48444 19.6589C1.48444 14.8233 3.37333 10.2572 6.815 6.81611C10.2339 3.39722 14.7772 1.50778 19.6356 1.50778C24.4711 1.50778 29.0372 3.39667 32.4561 6.81611C38.7311 13.1139 39.5183 23.2356 34.2778 30.3883C34.0528 30.68 34.0756 31.1078 34.345 31.3778L36.9539 33.9867L35.4467 35.4711L33.9628 36.9778ZM36.5267 36.55L38.5739 34.5256V34.5028L39.4739 33.6033L41.8806 36.01L35.9872 41.9033L33.5806 39.4967L36.5267 36.55ZM47.3683 46.8067L46.7833 47.3917C45.3211 48.8761 42.9372 48.8761 41.475 47.3917L37.0439 42.9828L42.9589 37.09L47.3678 41.4989C48.0878 42.2183 48.4694 43.1406 48.4694 44.1528C48.47 45.1422 48.0883 46.0867 47.3683 46.8067Z" fill="#4976FF"/>
<path d="M9.49167 9.51438C3.91334 15.0922 3.91334 24.2022 9.49167 29.8027C11.3133 31.6016 13.495 32.8388 15.7895 33.4688C15.8567 33.4916 15.9467 33.5138 16.0367 33.5138C17.2061 33.8283 18.4206 33.9866 19.6356 33.9866C20.8506 33.9866 22.0645 33.8288 23.2567 33.5138C23.3245 33.5138 23.4145 33.4916 23.4817 33.4688C25.7983 32.8388 27.9806 31.6022 29.7795 29.8027C35.38 24.2022 35.38 15.0922 29.7795 9.51438C24.2017 3.91383 15.0695 3.91383 9.49167 9.51438ZM16.8689 32.1644V24.8316C16.8689 24.5616 16.7117 24.3138 16.5089 24.1788C14.6872 23.0544 13.6072 21.1422 13.6072 19.0283C13.6072 17.1388 14.5072 15.3616 15.9695 14.2149V20.1077C15.9695 20.3772 16.1267 20.6249 16.3289 20.7599C18.3756 21.9744 20.895 21.9744 22.9411 20.7599C23.1433 20.6249 23.3011 20.3777 23.3011 20.1077V14.2155C24.7628 15.3622 25.685 17.1394 25.685 19.0288C25.685 21.1427 24.5828 23.0544 22.7606 24.1794C22.5589 24.3144 22.4011 24.5616 22.4011 24.8322V32.1644C20.58 32.5688 18.6911 32.5688 16.8689 32.1644ZM28.6995 28.7227C27.305 30.1172 25.6856 31.1066 23.9089 31.7366V25.2366C25.9783 23.8194 27.1928 21.5249 27.1928 19.0288C27.1928 16.1266 25.5056 13.4505 22.8517 12.1905C22.6272 12.0783 22.3567 12.101 22.1322 12.2355C21.9072 12.3705 21.795 12.6177 21.795 12.8883V19.6583C20.445 20.311 18.8483 20.311 17.4767 19.6583V12.8883C17.4767 12.6183 17.3645 12.3705 17.1395 12.2355C16.915 12.101 16.6445 12.0783 16.42 12.1905C13.7661 13.4505 12.0789 16.1266 12.0789 19.0288C12.0789 21.5249 13.2939 23.8194 15.3628 25.2366V31.7366C13.6083 31.1066 11.9667 30.1172 10.5722 28.7227C5.55556 23.7294 5.55556 15.5872 10.5711 10.5938C13.0672 8.07494 16.3511 6.81494 19.635 6.81494C22.9189 6.81494 26.2028 8.07494 28.6989 10.5938C33.7156 15.5872 33.7156 23.7294 28.6995 28.7227Z" fill="#4976FF"/>
</svg>
