<svg width="50" height="50" viewBox="0 0 50 50" fill="none" xmlns="http://www.w3.org/2000/svg">
<path d="M6.87862 32.6883H12.1734C12.5903 32.6883 12.9376 32.3519 12.9376 31.924C12.9376 31.5214 12.5903 31.183 12.1734 31.183H6.87862C6.4644 31.183 6.12598 31.5214 6.12598 31.924C6.12545 32.3525 6.46388 32.6883 6.87862 32.6883Z" fill="#4976FF"/>
<path d="M28.0909 37.1409H25.8209C25.404 37.1409 25.0566 37.4998 25.0566 37.9051C25.0566 38.3104 25.404 38.6693 25.8209 38.6693H28.0909C28.5077 38.6693 28.8435 38.3104 28.8435 37.9051C28.8435 37.4998 28.5077 37.1409 28.0909 37.1409Z" fill="#4976FF"/>
<path d="M18.2324 37.1409H6.87862C6.4644 37.1409 6.12598 37.4998 6.12598 37.9051C6.12598 38.3104 6.4644 38.6693 6.87862 38.6693H18.2329C18.6587 38.6693 18.9972 38.3104 18.9972 37.9051C18.9972 37.4998 18.6587 37.1409 18.2324 37.1409Z" fill="#4976FF"/>
<path d="M46.9642 12.4549H34.9604V3.01372C34.9604 1.34949 33.5998 0 31.9351 0H3.03424C1.36054 0 0 1.34896 0 3.01372V16.4123C0 18.0765 1.36054 19.426 3.03424 19.426H15.0286V25.2018H3.03424C1.36054 25.2018 0 26.574 0 28.2382V41.5931C0 43.2784 1.36054 44.6505 3.03424 44.6505H20.6823L28.0124 49.8442C28.1482 49.9342 28.305 50.0005 28.4614 50.0005C28.574 50.0005 28.6987 49.9547 28.7998 49.9105C29.0577 49.7747 29.214 49.5053 29.214 49.2358V44.6499H31.9351C33.5993 44.6499 34.9604 43.2778 34.9604 41.5925V31.903H46.9637C48.6279 31.903 50 30.5308 50 28.8666V15.4912C50.0005 13.827 48.6284 12.4549 46.9642 12.4549ZM1.51686 16.4123V3.01372C1.51686 2.18055 2.20265 1.50581 3.03372 1.50581H31.9351C32.7661 1.50581 33.4519 2.18055 33.4519 3.01372V16.4123C33.4519 17.2228 32.7661 17.9181 31.9351 17.9181H28.4614C28.0356 17.9181 27.6971 18.2565 27.6971 18.6618V22.5502L21.3571 18.0539C21.235 17.9639 21.076 17.9181 20.9197 17.9181H3.03424C2.20318 17.9176 1.51686 17.2223 1.51686 16.4123ZM33.4525 41.5931C33.4525 42.4473 32.7667 43.1215 31.9356 43.1215H28.4619C28.0361 43.1215 27.6977 43.4578 27.6977 43.8857V47.751L21.3576 43.2547C21.2355 43.1647 21.0765 43.121 20.9202 43.121H3.03424C2.20318 43.121 1.51738 42.4462 1.51738 41.5925V28.2382C1.51738 27.405 2.20318 26.7098 3.03424 26.7098H15.0286V28.8666C15.0286 30.5308 16.3891 31.903 18.0649 31.903H20.7839V36.4888C20.7839 36.7814 20.9429 37.0278 21.1892 37.1636C21.3018 37.2072 21.4265 37.2536 21.5365 37.2536C21.6955 37.2536 21.8518 37.1846 21.976 37.0946L29.315 31.9035H33.4519V41.5931H33.4525ZM48.4721 28.8666C48.4721 29.6998 47.7973 30.3745 46.9642 30.3745H29.0693C28.9129 30.3745 28.7656 30.4414 28.6408 30.5308L22.2913 35.0272V31.1387C22.2913 30.7335 21.9529 30.3745 21.536 30.3745H18.0644C17.2312 30.3745 16.5449 29.6998 16.5449 28.8666V19.4255H20.6818L28.0119 24.6397C28.1477 24.7297 28.3045 24.7755 28.4608 24.7755C28.5735 24.7755 28.6982 24.7524 28.7993 24.6855C29.0571 24.5497 29.2135 24.3034 29.2135 24.0108V19.4249H31.9345C33.5988 19.4249 34.9598 18.076 34.9598 16.4112V13.9823H46.9631C47.7963 13.9823 48.471 14.657 48.471 15.4902V28.8666H48.4721Z" fill="#4976FF"/>
<path d="M43.1194 18.4354H37.8151C37.3983 18.4354 37.0625 18.7717 37.0625 19.1996C37.0625 19.6049 37.3988 19.9639 37.8151 19.9639H43.1194C43.5363 19.9639 43.8747 19.6049 43.8747 19.1996C43.8747 18.7717 43.5363 18.4354 43.1194 18.4354Z" fill="#4976FF"/>
<path d="M24.1796 24.4166H21.9096C21.4927 24.4166 21.1543 24.7529 21.1543 25.1577C21.1543 25.5835 21.4927 25.9219 21.9096 25.9219H24.1796C24.5964 25.9219 24.9322 25.5835 24.9322 25.1577C24.9322 24.7529 24.5959 24.4166 24.1796 24.4166Z" fill="#4976FF"/>
<path d="M40.0856 24.4166H31.7565C31.3397 24.4166 31.0039 24.7529 31.0039 25.1577C31.0039 25.5835 31.3402 25.9219 31.7565 25.9219H40.0856C40.5024 25.9219 40.8498 25.5835 40.8498 25.1577C40.8498 24.7529 40.5024 24.4166 40.0856 24.4166Z" fill="#4976FF"/>
<path d="M18.2447 7.48632H28.0911C28.508 7.48632 28.8437 7.15 28.8437 6.7221C28.8437 6.31684 28.5074 5.95789 28.0911 5.95789H18.2447C17.8278 5.95789 17.4805 6.31684 17.4805 6.7221C17.4805 7.15053 17.8284 7.48632 18.2447 7.48632Z" fill="#4976FF"/>
<path d="M6.87862 7.48632H13.6908C14.1192 7.48632 14.455 7.15 14.455 6.7221C14.455 6.31684 14.1187 5.95789 13.6908 5.95789H6.87862C6.4644 5.95789 6.12598 6.31684 6.12598 6.7221C6.12545 7.15053 6.46388 7.48632 6.87862 7.48632Z" fill="#4976FF"/>
<path d="M23.5393 12.7033C23.5393 12.2749 23.2009 11.9391 22.784 11.9391H6.87862C6.4644 11.9391 6.12598 12.2754 6.12598 12.7033C6.12598 13.1291 6.4644 13.4444 6.87862 13.4444H22.784C23.2009 13.4444 23.5393 13.1291 23.5393 12.7033Z" fill="#4976FF"/>
</svg>
