<svg width="27" height="27" viewBox="0 0 27 27" fill="none" xmlns="http://www.w3.org/2000/svg">
<path fill-rule="evenodd" clip-rule="evenodd" d="M2.92708 2.5625C2.83039 2.5625 2.73766 2.60091 2.66928 2.66928C2.60091 2.73766 2.5625 2.83039 2.5625 2.92708V8.03125C2.5625 8.32133 2.44727 8.59953 2.24215 8.80465C2.03703 9.00977 1.75883 9.125 1.46875 9.125C1.17867 9.125 0.90047 9.00977 0.695352 8.80465C0.490234 8.59953 0.375 8.32133 0.375 8.03125V2.92708C0.375 1.51833 1.51833 0.375 2.92708 0.375H8.03125C8.32133 0.375 8.59953 0.490234 8.80465 0.695352C9.00977 0.90047 9.125 1.17867 9.125 1.46875C9.125 1.75883 9.00977 2.03703 8.80465 2.24215C8.59953 2.44727 8.32133 2.5625 8.03125 2.5625H2.92708ZM17.875 1.46875C17.875 1.17867 17.9902 0.90047 18.1954 0.695352C18.4005 0.490234 18.6787 0.375 18.9688 0.375H24.0729C25.4817 0.375 26.625 1.51833 26.625 2.92708V8.03125C26.625 8.32133 26.5098 8.59953 26.3046 8.80465C26.0995 9.00977 25.8213 9.125 25.5312 9.125C25.2412 9.125 24.963 9.00977 24.7579 8.80465C24.5527 8.59953 24.4375 8.32133 24.4375 8.03125V2.92708C24.4375 2.83039 24.3991 2.73766 24.3307 2.66928C24.2623 2.60091 24.1696 2.5625 24.0729 2.5625H18.9688C18.6787 2.5625 18.4005 2.44727 18.1954 2.24215C17.9902 2.03703 17.875 1.75883 17.875 1.46875ZM1.46875 17.875C1.75883 17.875 2.03703 17.9902 2.24215 18.1954C2.44727 18.4005 2.5625 18.6787 2.5625 18.9688V24.0729C2.5625 24.2742 2.72583 24.4375 2.92708 24.4375H8.03125C8.32133 24.4375 8.59953 24.5527 8.80465 24.7579C9.00977 24.963 9.125 25.2412 9.125 25.5312C9.125 25.8213 9.00977 26.0995 8.80465 26.3046C8.59953 26.5098 8.32133 26.625 8.03125 26.625H2.92708C2.25023 26.625 1.6011 26.3561 1.12249 25.8775C0.64388 25.3989 0.375 24.7498 0.375 24.0729V18.9688C0.375 18.6787 0.490234 18.4005 0.695352 18.1954C0.90047 17.9902 1.17867 17.875 1.46875 17.875ZM25.5312 17.875C25.8213 17.875 26.0995 17.9902 26.3046 18.1954C26.5098 18.4005 26.625 18.6787 26.625 18.9688V24.0729C26.625 24.7498 26.3561 25.3989 25.8775 25.8775C25.3989 26.3561 24.7498 26.625 24.0729 26.625H18.9688C18.6787 26.625 18.4005 26.5098 18.1954 26.3046C17.9902 26.0995 17.875 25.8213 17.875 25.5312C17.875 25.2412 17.9902 24.963 18.1954 24.7579C18.4005 24.5527 18.6787 24.4375 18.9688 24.4375H24.0729C24.1696 24.4375 24.2623 24.3991 24.3307 24.3307C24.3991 24.2623 24.4375 24.1696 24.4375 24.0729V18.9688C24.4375 18.6787 24.5527 18.4005 24.7579 18.1954C24.963 17.9902 25.2412 17.875 25.5312 17.875Z" fill="#4976FF"/>
</svg>
