<svg width="50" height="50" viewBox="0 0 50 50" fill="none" xmlns="http://www.w3.org/2000/svg">
<path d="M48.0488 2.84552H8.53658C7.47967 2.84552 6.58537 3.69918 6.58537 4.79674V9.43089H1.95122C0.853659 9.43089 0 10.2845 0 11.3821V45.2032C0 46.2602 0.853659 47.1545 1.95122 47.1545H41.4634C42.5203 47.1545 43.4146 46.3008 43.4146 45.2032V40.5691H48.0488C49.1057 40.5691 50 39.7154 50 38.6179V4.79674C50 3.69918 49.1463 2.84552 48.0488 2.84552ZM8.53658 4.47154H48.0488C48.2114 4.47154 48.374 4.59349 48.374 4.79674V10.4065H8.21138V4.79674C8.21138 4.59349 8.37398 4.47154 8.53658 4.47154ZM1.95122 11.0569H6.58537V16.9919H1.62602V11.3821C1.62602 11.2195 1.74797 11.0569 1.95122 11.0569ZM41.7886 45.2032C41.7886 45.3658 41.6667 45.5284 41.4634 45.5284H1.95122C1.78862 45.5284 1.62602 45.4065 1.62602 45.2032V18.6179H6.58537V38.6179C6.58537 39.6748 7.43902 40.5691 8.53658 40.5691H41.7886V45.2032ZM48.0488 38.9431H8.53658C8.37398 38.9431 8.21138 38.8211 8.21138 38.6179V12.0325H48.374V38.6179C48.374 38.7805 48.252 38.9431 48.0488 38.9431Z" fill="#F5A61C"/>
<path d="M15.0813 8.08943H12.0732C11.626 8.08943 11.2602 7.72357 11.2602 7.27642C11.2602 6.82926 11.626 6.46341 12.0732 6.46341H15.0813C15.5285 6.46341 15.8943 6.82926 15.8943 7.27642C15.8943 7.72357 15.5285 8.08943 15.0813 8.08943Z" fill="#FFECCC"/>
<path d="M21.9512 8.08943H18.9431C18.4959 8.08943 18.1301 7.72357 18.1301 7.27642C18.1301 6.82926 18.4959 6.46341 18.9431 6.46341H21.9512C22.3984 6.46341 22.7642 6.82926 22.7642 7.27642C22.7642 7.72357 22.3984 8.08943 21.9512 8.08943Z" fill="#FFECCC"/>
<path d="M15.813 25.5691L23.5366 29.5528V28.0081L17.6016 25.0406L23.5366 22.0732V20.5284L15.813 24.4715V25.5691Z" fill="#FFECCC"/>
<path d="M25.2439 30.0407H26.7073L31.2602 18.252H29.7561L25.2439 30.0407Z" fill="#FFECCC"/>
<path d="M32.9268 20.5284V22.0732L38.9024 25.0406L32.9268 28.0081V29.5528L40.6504 25.5691V24.4715L32.9268 20.5284Z" fill="#FFECCC"/>
</svg>
