<svg width="50" height="50" viewBox="0 0 50 50" fill="none" xmlns="http://www.w3.org/2000/svg">
<path d="M48.0488 2.84546H8.53658C7.47967 2.84546 6.58537 3.69912 6.58537 4.79668V9.43082H1.95122C0.853659 9.43082 0 10.2845 0 11.382V45.2032C0 46.2601 0.853659 47.1544 1.95122 47.1544H41.4634C42.5203 47.1544 43.4146 46.3007 43.4146 45.2032V40.569H48.0488C49.1057 40.569 50 39.7154 50 38.6178V4.79668C50 3.69912 49.1463 2.84546 48.0488 2.84546ZM8.53658 4.47148H48.0488C48.2114 4.47148 48.374 4.59343 48.374 4.79668V10.4064H8.21138V4.79668C8.21138 4.59343 8.37398 4.47148 8.53658 4.47148ZM1.95122 11.0568H6.58537V16.9918H1.62602V11.382C1.62602 11.2194 1.74797 11.0568 1.95122 11.0568ZM41.7886 45.2032C41.7886 45.3658 41.6667 45.5284 41.4634 45.5284H1.95122C1.78862 45.5284 1.62602 45.4064 1.62602 45.2032V18.6178H6.58537V38.6178C6.58537 39.6747 7.43902 40.569 8.53658 40.569H41.7886V45.2032ZM48.0488 38.943H8.53658C8.37398 38.943 8.21138 38.8211 8.21138 38.6178V12.0325H48.374V38.6178C48.374 38.7804 48.252 38.943 48.0488 38.943Z" fill="#F5A61C"/>
<path d="M15.0813 8.0894H12.0732C11.626 8.0894 11.2602 7.72354 11.2602 7.27639C11.2602 6.82923 11.626 6.46338 12.0732 6.46338H15.0813C15.5285 6.46338 15.8943 6.82923 15.8943 7.27639C15.8943 7.72354 15.5285 8.0894 15.0813 8.0894Z" fill="#FFECCC"/>
<path d="M21.9512 8.0894H18.9431C18.4959 8.0894 18.1301 7.72354 18.1301 7.27639C18.1301 6.82923 18.4959 6.46338 18.9431 6.46338H21.9512C22.3984 6.46338 22.7642 6.82923 22.7642 7.27639C22.7642 7.72354 22.3984 8.0894 21.9512 8.0894Z" fill="#FFECCC"/>
<path d="M15.813 25.5692L23.5366 29.553V28.0082L17.6016 25.0408L23.5366 22.0733V20.5286L15.813 24.4717V25.5692Z" fill="#FFECCC"/>
<path d="M25.2439 30.0406H26.7073L31.2602 18.252H29.7561L25.2439 30.0406Z" fill="#FFECCC"/>
<path d="M32.9268 20.5286V22.0733L38.9024 25.0408L32.9268 28.0082V29.553L40.6504 25.5692V24.4717L32.9268 20.5286Z" fill="#FFECCC"/>
</svg>
