<svg width="151" height="23" viewBox="0 0 151 23" fill="none" xmlns="http://www.w3.org/2000/svg">
<path d="M14.1893 17.6748C14.6145 16.8873 14.7059 15.4824 14.722 13.6587H9.19043V13.671C7.34968 13.671 6.0741 13.9803 5.32436 14.6364C4.67 15.2082 4.34762 16.197 4.34762 17.5972C4.34762 18.3063 4.27423 18.5556 4.30458 18.5802C4.43681 18.675 5.0952 18.6873 6.15678 18.6873H10.9996C12.9252 18.6873 13.8422 18.3355 14.1893 17.6748ZM2.17675 0.00634766L11.5524 0.0241969C14.5965 0.0241969 16.5141 1.07854 17.7079 2.92565C18.763 4.56933 19.0674 6.68387 19.0674 9.18555V12.5154C19.0674 15.495 19.0216 17.8299 18.0077 19.7001C16.851 21.8685 14.8133 23.0001 10.9996 23.0001H6.15678C4.238 23.0001 2.90822 22.8754 1.79213 22.0833C0.510975 21.1843 0 19.8552 0 17.5979C0 14.9054 0.810747 12.8502 2.47622 11.3961C4.04692 10.0263 6.27756 9.35235 9.19043 9.35235V9.35882H14.7288V9.18555C14.7288 7.42923 14.573 6.04037 14.0574 5.23591C13.6855 4.65273 12.9187 4.32559 11.5527 4.31821L2.17706 4.30682V0.00634766H2.17675Z" fill="white"/>
<path d="M96.9886 17.6748C97.4132 16.8873 97.4983 15.4824 97.516 13.6587H91.9944V13.671C90.161 13.671 88.8777 13.9803 88.1348 14.6364C87.4696 15.2082 87.1398 16.197 87.1398 17.5972C87.1398 18.3063 87.0673 18.5556 87.098 18.5802C87.2358 18.675 87.888 18.6873 88.9499 18.6873H93.7936C95.7238 18.6873 96.6346 18.3355 96.9886 17.6748ZM84.9702 0.00634766L94.3445 0.0241969C97.402 0.0241969 99.3084 1.07854 100.507 2.92565C101.555 4.56933 101.873 6.68387 101.873 9.18555V12.5154C101.873 15.495 101.814 17.8299 100.807 19.7001C99.6429 21.8685 97.6058 23.0001 93.7936 23.0001H88.9499C87.032 23.0001 85.7007 22.8754 84.5865 22.0833C83.3146 21.1843 82.7931 19.8552 82.7931 17.5979C82.7931 14.9054 83.6144 12.8502 85.2808 11.3961C86.8635 10.0263 89.0942 9.35235 91.994 9.35235V9.35882H97.5206V9.18555C97.5206 7.42923 97.372 6.04037 96.8492 5.23591C96.4785 4.65273 95.7115 4.32559 94.3445 4.31821L84.9702 4.30682V0.00634766Z" fill="white"/>
<path d="M21.7662 18.615L28.167 18.6273C30.398 18.6273 32.2861 18.4836 33.6115 17.8407C34.6359 17.3406 35.3436 16.4475 35.6245 14.8565L35.6901 14.5293C35.8651 13.599 35.4445 13.6473 32.0408 13.6526C29.9303 13.6584 33.3471 13.6584 30.6618 13.6584V13.6526L28.8876 13.647C28.5203 13.647 28.1562 13.6526 27.8034 13.6581C26.7542 13.6704 25.8305 13.6818 25.0027 13.5399C22.3174 13.0626 20.9818 11.6276 21.778 7.21262C22.3533 4.04373 23.8516 2.19663 26.0404 1.13674C27.9276 0.219036 30.2784 0.00515083 32.9745 0.0165375L38.9703 0.028232V4.33024L32.9745 4.31701C30.7467 4.30562 28.8582 4.46165 27.5331 5.09869C26.5022 5.59878 25.8001 6.49864 25.5136 8.07646C25.3446 9.00002 25.4053 9.26191 25.5784 9.28653C26.1054 9.38101 26.8797 9.3687 27.7607 9.35731C28.1088 9.35085 28.4798 9.34562 28.8879 9.34562L30.6621 9.35731V9.34562C34.3309 9.34562 30.7875 9.35731 32.0411 9.35054C37.5082 9.33331 40.6122 8.88061 39.4249 15.3858L39.3651 15.7194C38.7894 18.8994 37.2902 20.7468 35.1101 21.8008C33.2161 22.712 30.8597 22.9333 28.1676 22.9219L21.7662 22.9099V18.615Z" fill="white"/>
<path d="M63.6784 18.6635L70.0795 18.6749C72.3101 18.6872 74.1803 18.5265 75.4862 17.8769C76.5175 17.3645 77.213 16.4529 77.5063 14.8566C77.6389 14.1239 77.4719 13.8688 77.057 13.7894C76.2245 13.6475 74.9957 13.6475 73.5089 13.653C73.1968 13.653 72.8973 13.653 72.5684 13.653L70.7871 13.6475C70.4279 13.6475 70.0572 13.653 69.7076 13.6586C68.6528 13.6709 67.7296 13.6823 66.8913 13.5404C64.2058 13.0631 62.863 11.6225 63.6613 7.21311C64.2364 4.04422 65.7282 2.18573 67.9105 1.12615C69.8036 0.208142 72.1541 -0.0054354 74.8579 0.000104072L80.8518 0.0117985V4.31781L74.8579 4.30089C72.6273 4.29504 70.7456 4.45014 69.4202 5.09303C68.3902 5.59312 67.677 6.49975 67.3946 8.07757C67.227 8.99558 67.2868 9.25625 67.4732 9.28764C68 9.38211 68.7792 9.3698 69.6605 9.35842C70.0197 9.35196 70.3864 9.34672 70.7874 9.34672L72.5687 9.35165C72.8979 9.35165 73.1971 9.35165 73.5092 9.35165C75.1636 9.35165 76.5178 9.34672 77.6392 9.54245C80.7022 10.0906 81.9843 11.5862 81.2423 15.7205C80.6666 18.8894 79.1913 20.7479 77.0102 21.8207C75.1273 22.7492 72.7768 22.987 70.0798 22.976L63.6787 22.9637V18.6635H63.6784Z" fill="white"/>
<path d="M145.068 9.58438H150.056V11.5383H145.068V17.5849C145.068 18.241 145.117 18.7759 145.218 19.2107C145.32 19.6274 145.476 19.9736 145.68 20.2118C145.878 20.4559 146.129 20.6295 146.435 20.7242C146.735 20.832 147.095 20.8794 147.496 20.8794C148.21 20.8794 148.78 20.8027 149.204 20.6412C149.636 20.4796 149.936 20.367 150.109 20.3017L150.559 22.2368C150.332 22.3559 149.911 22.5052 149.325 22.6784C148.737 22.8569 148.054 22.9459 147.299 22.9459C146.399 22.9459 145.667 22.8326 145.08 22.6061C144.505 22.3815 144.032 22.0346 143.678 21.5881C143.318 21.1289 143.073 20.5698 142.929 19.9143C142.791 19.2464 142.714 18.4838 142.714 17.6086V5.93911L145.069 5.53472V9.58438H145.068ZM138.451 3.14014C139.146 3.14014 139.746 3.18722 140.243 3.29493C140.741 3.39034 141.087 3.48481 141.292 3.56821L140.868 5.58181C140.657 5.48148 140.37 5.3907 139.996 5.29068C139.632 5.2002 139.176 5.15373 138.631 5.15373C137.54 5.15373 136.767 5.4504 136.329 6.04682C135.892 6.6417 135.669 7.44584 135.669 8.44725V9.58438H140.741V11.5383H135.669V22.6661H133.319V8.40448C133.319 6.72571 133.727 5.42671 134.555 4.509C135.387 3.59191 136.689 3.14014 138.451 3.14014ZM127.77 16.1253C127.77 14.6478 127.441 13.4811 126.772 12.6175C126.103 11.7531 125.197 11.3247 124.053 11.3247C122.902 11.3247 121.99 11.7531 121.331 12.6175C120.66 13.4814 120.325 14.6481 120.325 16.1253C120.325 17.6025 120.66 18.7704 121.331 19.6277C121.99 20.4974 122.902 20.9323 124.053 20.9323C125.197 20.9323 126.103 20.4974 126.772 19.6277C127.441 18.7704 127.77 17.6028 127.77 16.1253ZM130.227 16.1253C130.227 17.1624 130.071 18.1041 129.771 18.9433C129.466 19.7828 129.04 20.4974 128.488 21.1052C127.949 21.714 127.289 22.1781 126.535 22.5052C125.773 22.8323 124.94 22.9994 124.053 22.9994C123.153 22.9994 122.327 22.8323 121.565 22.5052C120.803 22.1781 120.155 21.714 119.605 21.1052C119.058 20.4971 118.633 19.7825 118.329 18.9433C118.022 18.1038 117.866 17.1624 117.866 16.1253C117.866 15.1014 118.022 14.1711 118.329 13.3195C118.633 12.4686 119.058 11.7488 119.605 11.1453C120.155 10.5384 120.803 10.0731 121.565 9.74595C122.327 9.4182 123.153 9.25632 124.053 9.25632C124.939 9.25632 125.773 9.4182 126.535 9.74595C127.289 10.0731 127.949 10.5384 128.488 11.1453C129.039 11.7485 129.466 12.4686 129.771 13.3195C130.071 14.1714 130.227 15.1014 130.227 16.1253ZM110.601 20.9861C111.56 20.9861 112.279 20.8557 112.747 20.6042C113.204 20.3556 113.442 19.9503 113.442 19.3954C113.442 18.8298 113.209 18.3771 112.759 18.0379C112.304 17.704 111.549 17.3221 110.505 16.9063C109.997 16.7084 109.51 16.5004 109.043 16.2927C108.581 16.0782 108.18 15.8274 107.845 15.5535C107.509 15.2679 107.232 14.922 107.029 14.5176C106.825 14.1132 106.728 13.6242 106.728 13.0284C106.728 11.8722 107.161 10.9554 108.024 10.2765C108.881 9.59577 110.05 9.25632 111.542 9.25632C111.914 9.25632 112.287 9.27448 112.658 9.32249C113.03 9.3585 113.372 9.41143 113.687 9.47729C114.017 9.53114 114.294 9.59085 114.54 9.65609C114.785 9.72779 114.972 9.78627 115.108 9.83489L114.677 11.8485C114.425 11.7171 114.03 11.5752 113.491 11.4383C112.951 11.289 112.304 11.217 111.542 11.217C110.877 11.217 110.313 11.3475 109.816 11.6115C109.331 11.8666 109.08 12.2778 109.08 12.825C109.08 13.1106 109.139 13.3675 109.248 13.5879C109.356 13.8024 109.529 14.0046 109.75 14.1711C109.984 14.3499 110.26 14.5173 110.601 14.6653C110.937 14.8146 111.345 14.9755 111.812 15.1482C112.448 15.3811 113 15.6135 113.491 15.8384C113.975 16.0662 114.401 16.3281 114.737 16.625C115.086 16.9353 115.349 17.2926 115.541 17.7225C115.721 18.1509 115.817 18.6746 115.817 19.2945C115.817 20.4968 115.36 21.4148 114.462 22.034C113.563 22.6532 112.273 22.9699 110.601 22.9699C109.439 22.9699 108.527 22.8742 107.868 22.6778C107.209 22.4876 106.765 22.3384 106.525 22.2362L106.957 20.23C107.226 20.3303 107.652 20.4741 108.252 20.6762C108.838 20.8797 109.625 20.9861 110.601 20.9861Z" fill="white"/>
<path d="M47.2776 5.32022C46.8524 6.11791 46.7623 7.53047 46.7393 9.3588H52.5536V9.34711C54.3507 9.34711 55.5501 9.0372 56.2215 8.41709C56.8446 7.8453 57.1208 6.83281 57.1208 5.40916C57.1208 4.70042 57.1927 4.45053 57.1626 4.42714C57.0369 4.33174 56.377 4.3185 55.3172 4.3185H50.4676C48.5426 4.31819 47.6306 4.67057 47.2776 5.32022ZM60.3155 22.9997L49.9219 22.9763C46.8644 22.9763 44.9528 21.9279 43.7531 20.074C42.7104 18.4368 42.3926 16.3231 42.3926 13.8205V10.491C42.3926 7.51201 42.4459 5.1762 43.4589 3.30632C44.6155 1.13762 46.6601 0.000488281 50.467 0.000488281H55.3166C57.2273 0.000488281 58.5652 0.132204 59.6732 0.923117C60.9568 1.82328 61.4721 3.15152 61.4721 5.40885C61.4721 8.06534 60.7531 10.1149 59.1755 11.5687C57.6652 12.9687 55.4897 13.659 52.553 13.659V13.6531L46.7387 13.659V13.8205C46.7387 15.5778 46.8939 16.9602 47.4095 17.7693C47.7861 18.3534 48.5538 18.675 49.9216 18.675L60.3152 18.6873V22.9997H60.3155Z" fill="white"/>
</svg>
