<svg width="45" height="45" viewBox="0 0 45 45" fill="none" xmlns="http://www.w3.org/2000/svg">
<path d="M42.6933 1.88146C42.6933 1.84366 42.6744 1.82476 42.6366 1.80631C42.6177 1.74961 42.5799 1.71181 42.5421 1.67401C42.5232 1.65511 42.5232 1.63621 42.5232 1.63621C42.4854 1.61731 42.4665 1.61731 42.4476 1.61731C42.4098 1.57951 42.3531 1.56061 42.2964 1.54171C42.2779 1.52281 42.2208 1.52281 42.2023 1.52281C42.1645 1.50391 42.1452 1.50391 42.1267 1.50391H2.89215C2.87325 1.50391 2.85435 1.50391 2.81655 1.52281C2.77875 1.52281 2.7414 1.52281 2.7036 1.54171C2.6469 1.56061 2.6091 1.57951 2.5524 1.61731C2.5524 1.61731 2.5146 1.61731 2.4957 1.63621C2.4957 1.63621 2.4768 1.65511 2.4768 1.67401C2.439 1.71181 2.4012 1.74961 2.3634 1.80631C2.3445 1.82476 2.3256 1.84366 2.3067 1.88146C2.2878 1.95706 2.25 2.05156 2.25 2.12716V11.1942C2.25 11.2887 2.2878 11.3643 2.3067 11.4588C2.3256 11.4777 2.3445 11.4966 2.3634 11.5155C2.4012 11.5722 2.439 11.6289 2.4768 11.6663V11.6852C2.5146 11.7041 2.5524 11.7041 2.5524 11.723C2.6091 11.7419 2.6469 11.7608 2.7036 11.7797C2.7414 11.7986 2.77875 11.7986 2.81655 11.7986C2.85435 11.8175 2.87325 11.8364 2.89215 11.8364H42.1267C42.2023 11.8364 42.2779 11.7986 42.3531 11.7797C42.372 11.7608 42.3909 11.7608 42.4287 11.7419C42.4476 11.723 42.4854 11.723 42.5232 11.6852V11.6663C42.5799 11.6289 42.6177 11.5722 42.6366 11.5155C42.6744 11.4966 42.6933 11.4777 42.6933 11.4588C42.7311 11.3643 42.75 11.2887 42.75 11.1942V2.12716C42.75 2.05156 42.7311 1.95706 42.6933 1.88146ZM19.6663 6.66091L3.5343 10.4009V2.93941L19.6663 6.66091ZM22.5 7.32196L36.5162 10.5521H8.48385L22.5 7.32196ZM25.3337 6.66091L41.4846 2.93941V10.4009L25.3337 6.66091ZM22.5 6.01876L8.48385 2.76976H36.5166L22.5 6.01876Z" fill="#5E5F5F"/>
<path d="M12.5073 24.4741C12.4695 24.4363 12.4506 24.3801 12.4128 24.3423C12.3939 24.3423 12.3939 24.3229 12.375 24.3045C12.3183 24.2667 12.2616 24.2095 12.2049 24.1911C12.2049 24.1911 12.2049 24.1911 12.186 24.1717C12.1293 24.1533 12.0537 24.1339 11.9592 24.1339H2.89215H2.87325C2.79765 24.1339 2.7225 24.1533 2.6469 24.1717C2.6469 24.1911 2.6469 24.1911 2.628 24.1911C2.5713 24.2095 2.5146 24.2667 2.4768 24.3045C2.4579 24.3229 2.439 24.3423 2.4201 24.3423C2.3823 24.3801 2.3634 24.4363 2.3256 24.4741C2.3256 24.4935 2.3067 24.5313 2.3067 24.5497C2.2878 24.606 2.25 24.6816 2.25 24.7765V33.8247C2.25 33.9003 2.2878 33.9759 2.3067 34.0321C2.3067 34.0321 2.3256 34.0893 2.3256 34.1077C2.3634 34.1455 2.3823 34.2027 2.4201 34.2405C2.439 34.2405 2.4579 34.2589 2.4768 34.2783C2.5146 34.3161 2.5713 34.3723 2.628 34.3917C2.6469 34.3917 2.6469 34.4101 2.6469 34.4101C2.7225 34.4295 2.79765 34.4479 2.87325 34.4479H2.89215H11.9403C12.0348 34.4479 12.1104 34.4295 12.186 34.4101C12.2049 34.4101 12.2049 34.3917 12.2049 34.3917C12.2616 34.3723 12.3183 34.3161 12.375 34.2783C12.3939 34.2589 12.3939 34.2405 12.4128 34.2405C12.4506 34.2027 12.4695 34.1455 12.5073 34.1077C12.5262 34.0893 12.5262 34.0515 12.5451 34.0321C12.564 33.9759 12.5829 33.9003 12.5829 33.8247V24.7765C12.5829 24.6816 12.564 24.606 12.5451 24.5497C12.5262 24.5313 12.5262 24.4935 12.5073 24.4741ZM6.51915 29.2914L3.5343 32.2753V26.3065L6.51915 29.2914ZM7.4259 30.1972L10.4103 33.1821H4.42215L7.4259 30.1972ZM8.33265 29.2914L11.3175 26.3065V32.2753L8.33265 29.2914ZM7.4259 28.3842L4.42215 25.3993H10.4103L7.4259 28.3842Z" fill="#5E5F5F"/>
<path d="M27.6003 24.4935C27.5625 24.4363 27.5436 24.3801 27.4869 24.3423C27.4869 24.3423 27.468 24.3229 27.468 24.3045C27.4113 24.2667 27.3546 24.2095 27.279 24.1911C27.279 24.1717 27.279 24.1717 27.279 24.1717C27.2034 24.1533 27.1278 24.1339 27.0527 24.1339H27.0333H17.9852C17.9663 24.1339 17.9663 24.1339 17.9663 24.1339C17.8722 24.1339 17.7966 24.1533 17.7399 24.1717C17.721 24.1911 17.721 24.1911 17.721 24.1911C17.6643 24.2289 17.5887 24.2667 17.5509 24.3045C17.532 24.3229 17.532 24.3423 17.5131 24.3607C17.4753 24.3985 17.4564 24.4363 17.4186 24.4741C17.3997 24.4935 17.3997 24.5313 17.3808 24.5497C17.3619 24.606 17.343 24.6816 17.343 24.7572C17.343 24.7572 17.343 24.7572 17.343 24.7765V33.8247C17.343 33.9003 17.3619 33.9759 17.3808 34.0321C17.3997 34.0515 17.3997 34.0893 17.4186 34.1077C17.4564 34.1455 17.4753 34.2027 17.5131 34.2405C17.532 34.2405 17.532 34.2589 17.5509 34.2783C17.5887 34.3161 17.6643 34.3723 17.7021 34.3917C17.7021 34.3917 17.721 34.3917 17.7399 34.4101C17.7966 34.4295 17.8722 34.4479 17.9474 34.4479C17.9474 34.4479 17.9663 34.4479 17.9852 34.4479H27.0333C27.1089 34.4479 27.2034 34.4295 27.279 34.4101C27.3546 34.3723 27.4113 34.3161 27.468 34.2783C27.468 34.2589 27.4869 34.2589 27.4869 34.2405C27.5436 34.2027 27.5625 34.1455 27.6003 34.0893L27.6192 34.0515C27.6381 33.9759 27.6759 33.9003 27.6759 33.8247V24.7765C27.6759 24.6816 27.6381 24.606 27.6192 24.5497C27.6192 24.5313 27.6003 24.5119 27.6003 24.4935ZM18.6089 26.3065L21.5937 29.2914L18.6089 32.2753V26.3065ZM22.5 30.1972L25.5038 33.1821H19.5152L22.5 30.1972ZM26.3912 32.2753L23.4063 29.2914L26.3912 26.3065V32.2753ZM22.5 28.3842L19.5152 25.3993H25.5038L22.5 28.3842Z" fill="#5E5F5F"/>
<path d="M42.6744 24.4741C42.6555 24.4363 42.6177 24.3801 42.5988 24.3423C42.561 24.3423 42.561 24.3229 42.5421 24.3045C42.4854 24.2667 42.4476 24.2095 42.372 24.1911C42.372 24.1911 42.372 24.1911 42.372 24.1717C42.2964 24.1533 42.2023 24.1339 42.1452 24.1339C42.1267 24.1339 42.1267 24.1339 42.1267 24.1339H33.0786C33.0597 24.1339 33.0408 24.1339 33.0408 24.1339C32.9652 24.1339 32.8896 24.1533 32.814 24.1717C32.814 24.1911 32.814 24.1911 32.814 24.1911C32.7384 24.2095 32.6817 24.2667 32.625 24.3045C32.625 24.3229 32.6061 24.3423 32.5872 24.3423C32.5494 24.3801 32.5305 24.4363 32.5116 24.4741C32.4927 24.4935 32.4738 24.5313 32.4738 24.5497C32.4549 24.606 32.436 24.6816 32.436 24.7765V33.8247C32.436 33.9003 32.4549 33.9759 32.4738 34.0321C32.4738 34.0321 32.4927 34.0893 32.5116 34.1077C32.5305 34.1455 32.5494 34.2027 32.5872 34.2405C32.6061 34.2405 32.625 34.2589 32.625 34.2783C32.6817 34.3161 32.7384 34.3723 32.814 34.3917V34.4101C32.8896 34.4295 32.9652 34.4479 33.0408 34.4479C33.0408 34.4479 33.0597 34.4479 33.0786 34.4479H42.1267C42.2023 34.4479 42.2779 34.4295 42.372 34.4101V34.3917C42.4476 34.3723 42.4854 34.3161 42.5421 34.2783C42.561 34.2589 42.561 34.2405 42.5988 34.2405C42.6177 34.2027 42.6555 34.1455 42.6744 34.1077C42.6933 34.0893 42.6933 34.0515 42.7122 34.0321C42.7311 33.9759 42.75 33.9003 42.75 33.8247V24.7765C42.75 24.6816 42.7311 24.606 42.7122 24.5497C42.6933 24.5313 42.6933 24.4935 42.6744 24.4741ZM36.6862 29.2914L33.7014 32.2753V26.3065L36.6862 29.2914ZM37.593 30.1972L40.5778 33.1821H34.5892L37.593 30.1972ZM38.4997 29.2914L41.4846 26.3065V32.2753L38.4997 29.2914ZM37.593 28.3842L34.5892 25.3993H40.5778L37.593 28.3842Z" fill="#5E5F5F"/>
<path d="M37.593 16.3512C37.9332 16.3512 38.2167 16.0677 38.2167 15.7091C38.2167 15.3693 37.9332 15.0858 37.593 15.0858H7.4259C7.0668 15.0858 6.78375 15.3693 6.78375 15.7091C6.78375 16.0677 7.0668 16.3512 7.4259 16.3512H37.593Z" fill="#5E5F5F"/>
<path d="M30.037 19.6002H14.963C14.6228 19.6002 14.3208 19.8837 14.3208 20.2428C14.3208 20.6015 14.6228 20.885 14.963 20.885H30.037C30.3961 20.885 30.6792 20.6019 30.6792 20.2428C30.6792 19.8837 30.3961 19.6002 30.037 19.6002Z" fill="#5E5F5F"/>
<path d="M11.9403 37.7158H2.89215C2.5524 37.7158 2.25 37.9993 2.25 38.3395C2.25 38.6982 2.5524 38.9812 2.89215 38.9812H11.9403C12.2994 38.9812 12.5829 38.6982 12.5829 38.3395C12.5829 37.9993 12.2994 37.7158 11.9403 37.7158Z" fill="#5E5F5F"/>
<path d="M10.4481 42.2307H2.89215C2.5524 42.2307 2.25 42.5138 2.25 42.8729C2.25 43.2131 2.5524 43.4961 2.89215 43.4961H10.4481C10.7879 43.4961 11.0714 43.2131 11.0714 42.8729C11.0718 42.5138 10.7883 42.2307 10.4481 42.2307Z" fill="#5E5F5F"/>
<path d="M27.0333 37.7158H17.9852C17.6265 37.7158 17.343 37.9998 17.343 38.34C17.343 38.6986 17.6265 38.9817 17.9852 38.9817H27.0333C27.3735 38.9817 27.6759 38.6986 27.6759 38.34C27.6759 37.9993 27.3735 37.7158 27.0333 37.7158Z" fill="#5E5F5F"/>
<path d="M22.5 42.2307H17.9852C17.6265 42.2307 17.343 42.5138 17.343 42.8733C17.343 43.2135 17.6265 43.4966 17.9852 43.4966H22.5C22.8591 43.4966 23.1426 43.2135 23.1426 42.8733C23.1426 42.5138 22.8591 42.2307 22.5 42.2307Z" fill="#5E5F5F"/>
<path d="M42.1267 37.7158H33.0786C32.7195 37.7158 32.436 37.9998 32.436 38.34C32.436 38.6986 32.7195 38.9817 33.0786 38.9817H42.1267C42.4665 38.9817 42.75 38.6986 42.75 38.34C42.75 37.9993 42.4665 37.7158 42.1267 37.7158Z" fill="#5E5F5F"/>
<path d="M42.1267 42.2307H33.0786C32.7195 42.2307 32.436 42.5138 32.436 42.8733C32.436 43.2135 32.7195 43.4966 33.0786 43.4966H42.1267C42.4665 43.4966 42.75 43.2135 42.75 42.8733C42.75 42.5138 42.4665 42.2307 42.1267 42.2307Z" fill="#5E5F5F"/>
</svg>
