<svg width="49" height="50" viewBox="0 0 49 50" fill="none" xmlns="http://www.w3.org/2000/svg">
<path d="M48.1552 0.449543C48.1552 0.404535 48.1327 0.382031 48.0877 0.360063C48.0652 0.292551 48.0202 0.247543 47.9752 0.202535C47.9527 0.180032 47.9527 0.157528 47.9527 0.157528C47.9077 0.135024 47.8852 0.135024 47.8627 0.135024C47.8177 0.0900158 47.7501 0.0675119 47.6826 0.0450079C47.6607 0.022504 47.5926 0.022504 47.5706 0.022504C47.5256 2.99406e-08 47.5026 0 47.4806 0H0.764598C0.742094 0 0.71959 2.99406e-08 0.674582 0.022504C0.629574 0.022504 0.585102 0.022504 0.540094 0.0450079C0.472583 0.0675119 0.427575 0.0900158 0.360063 0.135024C0.360063 0.135024 0.315055 0.135024 0.292551 0.157528C0.292551 0.157528 0.270047 0.180032 0.270047 0.202535C0.225039 0.247543 0.180031 0.292551 0.135024 0.360063C0.11252 0.382031 0.0900157 0.404535 0.0675118 0.449543C0.0450078 0.539559 0 0.652079 0 0.742094V11.5381C0 11.6506 0.0450078 11.7406 0.0675118 11.8531C0.0900157 11.8757 0.11252 11.8982 0.135024 11.9207C0.180031 11.9882 0.225039 12.0557 0.270047 12.1002V12.1227C0.315055 12.1452 0.360063 12.1452 0.360063 12.1677C0.427575 12.1902 0.472583 12.2127 0.540094 12.2352C0.585102 12.2577 0.629574 12.2577 0.674582 12.2577C0.71959 12.2802 0.742094 12.3027 0.764598 12.3027H47.4806C47.5706 12.3027 47.6607 12.2577 47.7501 12.2352C47.7726 12.2127 47.7952 12.2127 47.8402 12.1902C47.8627 12.1677 47.9077 12.1677 47.9527 12.1227V12.1002C48.0202 12.0557 48.0652 11.9882 48.0877 11.9207C48.1327 11.8982 48.1552 11.8757 48.1552 11.8531C48.2002 11.7406 48.2227 11.6506 48.2227 11.5381V0.742094C48.2227 0.652079 48.2002 0.539559 48.1552 0.449543ZM20.7374 6.14036L1.5292 10.5935V1.70923L20.7374 6.14036ZM24.1114 6.92746L40.8002 10.7735H7.42255L24.1114 6.92746ZM27.4853 6.14036L46.716 1.70923V10.5935L27.4853 6.14036ZM24.1114 5.37576L7.42255 1.50723H40.8007L24.1114 5.37576Z" fill="#4976FF"/>
<path d="M12.2132 27.3505C12.1682 27.3055 12.1457 27.2385 12.1007 27.1935C12.0782 27.1935 12.0782 27.1705 12.0557 27.1485C11.9882 27.1035 11.9207 27.0354 11.8531 27.0135C11.8531 27.0135 11.8531 27.0135 11.8306 26.9904C11.7631 26.9685 11.6731 26.9454 11.5606 26.9454H0.764598H0.742094C0.652079 26.9454 0.562598 26.9685 0.472583 26.9904C0.472583 27.0135 0.472583 27.0135 0.450079 27.0135C0.382567 27.0354 0.315055 27.1035 0.270047 27.1485C0.247543 27.1705 0.225039 27.1935 0.202535 27.1935C0.157527 27.2385 0.135024 27.3055 0.0900159 27.3505C0.0900159 27.3735 0.0675118 27.4186 0.0675118 27.4405C0.0450078 27.5075 0 27.5975 0 27.7106V38.4841C0 38.5741 0.0450078 38.6641 0.0675118 38.7311C0.0675118 38.7311 0.0900159 38.7991 0.0900159 38.8211C0.135024 38.8661 0.157527 38.9341 0.202535 38.9791C0.225039 38.9791 0.247543 39.0011 0.270047 39.0242C0.315055 39.0692 0.382567 39.1361 0.450079 39.1592C0.472583 39.1592 0.472583 39.1811 0.472583 39.1811C0.562598 39.2042 0.652079 39.2262 0.742094 39.2262H0.764598H11.5381C11.6506 39.2262 11.7406 39.2042 11.8306 39.1811C11.8531 39.1811 11.8531 39.1592 11.8531 39.1592C11.9207 39.1361 11.9882 39.0692 12.0557 39.0242C12.0782 39.0011 12.0782 38.9791 12.1007 38.9791C12.1457 38.9341 12.1682 38.8661 12.2132 38.8211C12.2357 38.7991 12.2357 38.7541 12.2582 38.7311C12.2807 38.6641 12.3032 38.5741 12.3032 38.4841V27.7106C12.3032 27.5975 12.2807 27.5075 12.2582 27.4405C12.2357 27.4186 12.2357 27.3735 12.2132 27.3505ZM5.08321 33.0863L1.5292 36.6393V29.5323L5.08321 33.0863ZM6.16287 34.1649L9.71634 37.7189H2.58635L6.16287 34.1649ZM7.24252 33.0863L10.7965 29.5323V36.6393L7.24252 33.0863ZM6.16287 32.0061L2.58635 28.4521H9.71634L6.16287 32.0061Z" fill="#4976FF"/>
<path d="M30.184 27.3735C30.139 27.3055 30.1165 27.2385 30.049 27.1935C30.049 27.1935 30.0265 27.1705 30.0265 27.1485C29.959 27.1035 29.8915 27.0354 29.8015 27.0135C29.8015 26.9904 29.8015 26.9904 29.8015 26.9904C29.7115 26.9685 29.6214 26.9454 29.532 26.9454H29.5089H18.7354C18.7129 26.9454 18.7129 26.9454 18.7129 26.9454C18.6009 26.9454 18.5109 26.9685 18.4434 26.9904C18.4209 27.0135 18.4209 27.0135 18.4209 27.0135C18.3534 27.0585 18.2634 27.1035 18.2184 27.1485C18.1959 27.1705 18.1959 27.1935 18.1734 27.2155C18.1284 27.2605 18.1058 27.3055 18.0608 27.3505C18.0383 27.3735 18.0383 27.4186 18.0158 27.4405C17.9933 27.5075 17.9708 27.5975 17.9708 27.6875C17.9708 27.6875 17.9708 27.6875 17.9708 27.7106V38.4841C17.9708 38.5741 17.9933 38.6641 18.0158 38.7311C18.0383 38.7541 18.0383 38.7991 18.0608 38.8211C18.1058 38.8661 18.1284 38.9341 18.1734 38.9791C18.1959 38.9791 18.1959 39.0011 18.2184 39.0242C18.2634 39.0692 18.3534 39.1361 18.3984 39.1592C18.3984 39.1592 18.4209 39.1592 18.4434 39.1811C18.5109 39.2042 18.6009 39.2262 18.6904 39.2262C18.6904 39.2262 18.7129 39.2262 18.7354 39.2262H29.5089C29.5989 39.2262 29.7115 39.2042 29.8015 39.1811C29.8915 39.1361 29.959 39.0692 30.0265 39.0242C30.0265 39.0011 30.049 39.0011 30.049 38.9791C30.1165 38.9341 30.139 38.8661 30.184 38.7991L30.2065 38.7541C30.229 38.6641 30.274 38.5741 30.274 38.4841V27.7106C30.274 27.5975 30.229 27.5075 30.2065 27.4405C30.2065 27.4186 30.184 27.3955 30.184 27.3735ZM19.4781 29.5323L23.0321 33.0863L19.4781 36.6393V29.5323ZM24.1112 34.1649L27.6877 37.7189H20.5572L24.1112 34.1649ZM28.7443 36.6393L25.1903 33.0863L28.7443 29.5323V36.6393ZM24.1112 32.0061L20.5572 28.4521H27.6877L24.1112 32.0061Z" fill="#4976FF"/>
<path d="M48.1326 27.3505C48.1101 27.3055 48.0651 27.2385 48.0426 27.1935C47.9976 27.1935 47.9976 27.1705 47.9751 27.1485C47.9076 27.1035 47.8626 27.0354 47.7725 27.0135C47.7725 27.0135 47.7725 27.0135 47.7725 26.9904C47.6825 26.9685 47.5705 26.9454 47.5025 26.9454C47.4805 26.9454 47.4805 26.9454 47.4805 26.9454H36.707C36.6845 26.9454 36.662 26.9454 36.662 26.9454C36.572 26.9454 36.482 26.9685 36.392 26.9904C36.392 27.0135 36.392 27.0135 36.392 27.0135C36.302 27.0354 36.2344 27.1035 36.1669 27.1485C36.1669 27.1705 36.1444 27.1935 36.1219 27.1935C36.0769 27.2385 36.0544 27.3055 36.0319 27.3505C36.0094 27.3735 35.9869 27.4186 35.9869 27.4405C35.9644 27.5075 35.9419 27.5975 35.9419 27.7106V38.4841C35.9419 38.5741 35.9644 38.6641 35.9869 38.7311C35.9869 38.7311 36.0094 38.7991 36.0319 38.8211C36.0544 38.8661 36.0769 38.9341 36.1219 38.9791C36.1444 38.9791 36.1669 39.0011 36.1669 39.0242C36.2344 39.0692 36.302 39.1361 36.392 39.1592V39.1811C36.482 39.2042 36.572 39.2262 36.662 39.2262C36.662 39.2262 36.6845 39.2262 36.707 39.2262H47.4805C47.5705 39.2262 47.6606 39.2042 47.7725 39.1811V39.1592C47.8626 39.1361 47.9076 39.0692 47.9751 39.0242C47.9976 39.0011 47.9976 38.9791 48.0426 38.9791C48.0651 38.9341 48.1101 38.8661 48.1326 38.8211C48.1551 38.7991 48.1551 38.7541 48.1776 38.7311C48.2001 38.6641 48.2226 38.5741 48.2226 38.4841V27.7106C48.2226 27.5975 48.2001 27.5075 48.1776 27.4405C48.1551 27.4186 48.1551 27.3735 48.1326 27.3505ZM41.0026 33.0863L37.4486 36.6393V29.5323L41.0026 33.0863ZM42.0823 34.1649L45.6363 37.7189H38.5057L42.0823 34.1649ZM43.1619 33.0863L46.7159 29.5323V36.6393L43.1619 33.0863ZM42.0823 32.0061L38.5057 28.4521H45.6363L42.0823 32.0061Z" fill="#4976FF"/>
<path d="M42.0824 17.6784C42.4875 17.6784 42.825 17.3409 42.825 16.9138C42.825 16.5093 42.4875 16.1718 42.0824 16.1718H6.16291C5.73534 16.1718 5.39832 16.5093 5.39832 16.9138C5.39832 17.3409 5.73534 17.6784 6.16291 17.6784H42.0824Z" fill="#4976FF"/>
<path d="M33.0855 21.547H15.137C14.732 21.547 14.3724 21.8846 14.3724 22.3121C14.3724 22.7392 14.732 23.0767 15.137 23.0767H33.0855C33.5131 23.0767 33.8501 22.7397 33.8501 22.3121C33.8501 21.8846 33.5131 21.547 33.0855 21.547Z" fill="#4976FF"/>
<path d="M11.5381 43.1169H0.764598C0.360063 43.1169 0 43.4545 0 43.8596C0 44.2866 0.360063 44.6236 0.764598 44.6236H11.5381C11.9657 44.6236 12.3032 44.2866 12.3032 43.8596C12.3032 43.4545 11.9657 43.1169 11.5381 43.1169Z" fill="#4976FF"/>
<path d="M9.76135 48.4927H0.764598C0.360063 48.4927 0 48.8297 0 49.2573C0 49.6623 0.360063 49.9994 0.764598 49.9994H9.76135C10.1659 49.9994 10.5034 49.6623 10.5034 49.2573C10.504 48.8297 10.1664 48.4927 9.76135 48.4927Z" fill="#4976FF"/>
<path d="M29.5089 43.1169H18.7354C18.3084 43.1169 17.9708 43.455 17.9708 43.8601C17.9708 44.2871 18.3084 44.6242 18.7354 44.6242H29.5089C29.914 44.6242 30.274 44.2871 30.274 43.8601C30.274 43.4545 29.914 43.1169 29.5089 43.1169Z" fill="#4976FF"/>
<path d="M24.1112 48.4927H18.7354C18.3084 48.4927 17.9708 48.8297 17.9708 49.2578C17.9708 49.6629 18.3084 49.9999 18.7354 49.9999H24.1112C24.5388 49.9999 24.8763 49.6629 24.8763 49.2578C24.8763 48.8297 24.5388 48.4927 24.1112 48.4927Z" fill="#4976FF"/>
<path d="M47.4805 43.1169H36.707C36.2795 43.1169 35.9419 43.455 35.9419 43.8601C35.9419 44.2871 36.2795 44.6242 36.707 44.6242H47.4805C47.8851 44.6242 48.2226 44.2871 48.2226 43.8601C48.2226 43.4545 47.8851 43.1169 47.4805 43.1169Z" fill="#4976FF"/>
<path d="M47.4805 48.4927H36.707C36.2795 48.4927 35.9419 48.8297 35.9419 49.2578C35.9419 49.6629 36.2795 49.9999 36.707 49.9999H47.4805C47.8851 49.9999 48.2226 49.6629 48.2226 49.2578C48.2226 48.8297 47.8851 48.4927 47.4805 48.4927Z" fill="#4976FF"/>
</svg>
