<svg width="29" height="30" viewBox="0 0 29 30" fill="none" xmlns="http://www.w3.org/2000/svg">
<path d="M19.0035 19.0316C18.8801 19.0318 18.7579 19.0077 18.6438 18.9606C18.5298 18.9134 18.4262 18.8443 18.3389 18.757C18.2517 18.6698 18.1825 18.5662 18.1354 18.4521C18.0883 18.3381 18.0641 18.2159 18.0644 18.0925L18.0644 12.4036L9.94368 20.5243C9.76787 20.7001 9.52941 20.7989 9.28077 20.7989C9.03213 20.7989 8.79367 20.7001 8.61786 20.5243C8.44204 20.3484 8.34327 20.11 8.34327 19.8614C8.34327 19.6127 8.44204 19.3743 8.61786 19.1984L16.7385 11.0778L11.0485 11.0767C10.7995 11.0767 10.5606 10.9777 10.3845 10.8016C10.2084 10.6255 10.1094 10.3866 10.1094 10.1375C10.1094 9.88846 10.2084 9.64959 10.3845 9.47347C10.5606 9.29735 10.7995 9.1984 11.0485 9.1984L19.0035 9.1984C19.1269 9.19819 19.2491 9.22233 19.3631 9.26945C19.4772 9.31657 19.5808 9.38574 19.668 9.47299C19.7553 9.56024 19.8244 9.66385 19.8716 9.77789C19.9187 9.89193 19.9428 10.0141 19.9426 10.1375L19.9426 18.0925C19.9428 18.2159 19.9187 18.3381 19.8716 18.4521C19.8244 18.5662 19.7553 18.6698 19.668 18.757C19.5808 18.8443 19.4772 18.9134 19.3631 18.9606C19.2491 19.0077 19.1269 19.0318 19.0035 19.0316Z" fill="#F5A61C"/>
</svg>
